<svg version="1.1" id="black_1_" xmlns="http://www.w3.org/2000/svg" xmlns:xlink="http://www.w3.org/1999/xlink" x="0px" y="0px"
	 viewBox="0 0 200 145" style="enable-background:new 0 0 200 145;" xml:space="preserve">

	<path class="st0" d="M197.5,53c0,7.1-4.1,12.8-10.7,12.8c-6.8,0-12.2-5.8-12.2-12.8c0-7.1,5.4-11,12.2-11C193.4,42,197.5,45.9,197.5,53z"/>
<g>
	<path class="st0" d="M17.2,76.2C14.4,68.1,21.3,62,21.3,62c4.1-3.2,6.8-0.4,12.9-2.4c4.5-1.8,5.4-6.4,5.4-9c0-3.7-2.9-5.3-5.4-6.3
		c-5-1.9-7.5-0.8-11.4-3.1c-3.7-2.1-4.3-4.3-5.3-9.6c-1.6-9.7,6.5-18.2,18.5-13c4.1,1.7,8.1-0.2,10.1-3.7c2.7-4.9-3-12.1-14.5-13
		C9.8,0,1.2,14.9,1.3,29.9c0.1,8.6,5.3,12.5,5.4,21.6c0.1,8-4.5,15.2-5.4,23.9c-1,14.9,12.8,23.5,27.5,23c9.7-0.3,12-2.1,14.7-4.2
		c4.8-3.9,0.2-14.6-7.8-12.5C26.4,84.3,19.9,83.6,17.2,76.2z"/>
</g>
<path class="st0" d="M106.6,91.4c-3.7,0-8-4.2-8-7.8c0-7.5,5.2-11.6,10.4-15.1c3-2.1,7.5-7.3,7.5-13.7c0-7.3-7.3-12.6-8.8-13.5
	c-4.2-2.8-11-8.3-9.4-14.1c0.9-3.1,4-7.7,8.8-7.7h0.2c6.1,0.1,10.4,5.7,16.2,16c0.2,0.4,0.4,0.8,0.7,1.2c2.3,4.1,4.6,8.3,10.5,8.3
	c0.2,0,0.4,0,0.6,0c5.6-0.3,7.6-3.4,10.7-8v-0.1c0.3-0.4,0.6-0.9,0.9-1.3c7.3-10.9,12.8-16,17.2-16c0.6,0,1.1,0.1,1.8,0.3
	c4.5,1.6,6.6,4,6.2,7.5c-0.7,7.3-5,10.2-9.6,13.2l-0.9,0.6c-3.1,2.1-7.6,7.4-7.5,13.7c0.1,4.8,4.9,11.3,7.4,13.5
	c0.9,0.8,1.9,1.6,2.9,2.4c4.3,3.5,9.2,7.4,8.3,12.7c-0.5,3.3-3.4,6.2-7.1,7.3c-0.4,0.1-0.8,0.2-1.3,0.2c-4.3,0-10.2-5.8-17.2-16.8
	c-0.4-0.6-0.8-1.2-1.1-2l-0.1-0.1c-2.3-3.7-4.5-7.5-9.9-7.5c-0.2,0-0.4,0-0.6,0c-4.8,0.3-8.1,4.4-11.6,9.5
	C119.4,80.1,111.6,91.4,106.6,91.4z"/>
<g>
	<path class="st0" d="M93,18.9c4.5-3.3,4.4-10-0.6-13.3c0,0-4.6-3.6-12.2-3.6C62.1,2,50.6,14,50.6,29.7c0,9,4.6,15.5,4.6,25
		c0,8.4-3.7,11.4-4.7,20.5C49.9,80,50.9,89.2,53.1,93c3.8,6.4,9.8,7.2,15.4,3.7c3.8-2.9,3.6-7.3,2.4-10s-3.7-5.4-5-10.2
		c-1.5-5.8,1.3-11.7,4.3-14.4c3.7-3.4,7.9-1.1,14.3-3.3c2.4-0.8,4.6-4.4,4.6-7.4c0-4-2.9-6.8-5.5-7.9c-5.3-2.1-10-1.2-13.2-3
		c-1.3-0.8-4.7-3.1-4.7-8.7c-0.1-11,7.2-17.8,16.4-13.9C85.8,19.5,89.2,21.6,93,18.9z"/>
</g>
<g>
	<path class="st1" d="M98.9,100.9h8v2.5h-5v7.1h4.4v2.5h-4.4v7.6h5v2.5h-8V100.9z"/>
	<path class="st1" d="M109.7,100.9h8v2.5h-5v7.1h4.5v2.5h-4.5v10.2h-3V100.9z"/>
	<path class="st1" d="M118.5,100.9h2.9l1.5,4.3c0.6,1.7,1,3,1.1,3.7c0.1-0.5,0.2-1,0.4-1.4c0.1-0.5,0.3-0.9,0.4-1.4l0.2-0.7l1.4-4.6h3l-4.1,11
		l4.1,11.3h-3L125,119c-0.3-0.8-0.5-1.6-0.7-2.3c-0.2-0.7-0.3-1.3-0.4-1.8c-0.1,0.6-0.2,1.3-0.4,1.9l-0.5,1.6l-0.3,0.8l-1.3,4h-3.2
		l4.2-11.3L118.5,100.9z"/>
	<path class="st1" d="M131.1,100.9h3.7c1.1,0,2.1,0.1,2.8,0.4c0.7,0.2,1.3,0.7,1.9,1.3c0.8,0.9,1.4,2.1,1.8,3.6c0.4,1.4,0.5,3.5,0.5,6.2
		c0,2.5-0.2,4.5-0.6,6c-0.4,1.5-1,2.6-1.9,3.4c-1.1,1-3,1.5-5.9,1.5H131L131.1,100.9L131.1,100.9z M134.2,120.6
		c1.8,0,3.1-0.6,3.7-1.7c0.6-1.1,1-3.3,1-6.5c0-3.4-0.3-5.8-0.9-7.1c-0.6-1.3-1.7-1.9-3.3-1.9h-0.4v17.2H134.2z"/>
	<path class="st1" d="M144.9,100.9h8v2.5h-5v7.1h4.4v2.5h-4.4v7.6h5v2.5h-8V100.9z"/>
	<path class="st1" d="M163.1,101.4v2.9c-0.9-0.7-1.7-1-2.5-1s-1.4,0.3-1.9,0.8s-0.8,1.2-0.8,2.1c0,0.8,0.2,1.5,0.5,2c0.2,0.3,0.5,0.7,0.9,1.2
		s1,1,1.6,1.7c1.2,1.2,2.1,2.3,2.5,3.2c0.4,0.9,0.7,2,0.7,3.2c0,1.7-0.5,3.1-1.5,4.3c-1,1.1-2.2,1.6-3.7,1.6c-1.3,0-2.4-0.4-3.3-1.1
		v-3c1.1,0.8,2,1.2,2.9,1.2c0.8,0,1.5-0.3,1.9-0.8c0.5-0.5,0.7-1.3,0.7-2.2c0-0.8-0.2-1.5-0.5-2.2c-0.2-0.3-0.4-0.7-0.8-1.1
		c-0.3-0.4-0.7-0.8-1.2-1.3c-0.8-0.8-1.4-1.4-1.9-2s-0.9-1.1-1.1-1.5c-0.5-0.8-0.7-1.9-0.7-3.2c0-1.7,0.5-3.1,1.4-4.2
		c0.9-1,2.1-1.5,3.7-1.5C161.1,100.6,162.2,100.8,163.1,101.4z"/>
	<path class="st1" d="M166.7,100.9h3v22.3h-3V100.9z"/>
	<path class="st1" d="M178.5,111.5h5.5v0.9c0,4.3-0.4,7.3-1.1,8.8c-0.8,1.6-2.2,2.3-4.2,2.3c-2.1,0-3.6-0.9-4.6-2.6c-0.9-1.7-1.3-4.7-1.3-8.8
		c0-4.7,0.5-7.8,1.5-9.4c0.9-1.5,2.3-2.2,4.3-2.2c1.5,0,2.6,0.4,3.4,1.1c0.8,0.7,1.5,1.9,1.9,3.5l-2.8,1.2c-0.1-0.6-0.3-1.1-0.4-1.5
		c-0.2-0.4-0.3-0.7-0.5-0.9c-0.4-0.5-0.9-0.7-1.6-0.7c-1,0-1.7,0.6-2.1,1.9c-0.4,1.3-0.5,3.6-0.5,7s0.2,5.7,0.6,6.9
		c0.4,1.2,1.1,1.8,2.1,1.8s1.6-0.4,2-1.3s0.6-2.4,0.6-4.4v-0.6V114h-2.6v-2.5H178.5z"/>
	<path class="st1" d="M187,100.9h2.8l3,8.9c0.9,2.5,1.6,5.2,2.3,8.1c-0.2-1.7-0.4-3.3-0.5-4.7c-0.1-1.4-0.2-2.7-0.2-3.9V101h3v22.3h-2.8
		l-3.4-10.1c-0.3-0.9-0.6-1.9-0.9-2.9c-0.3-1-0.5-2-0.8-3.1c0-0.1-0.1-0.3-0.1-0.5s-0.1-0.4-0.2-0.7c0,0.3,0.1,0.5,0.1,0.6
		c0,0.2,0,0.3,0,0.5l0.2,2.3l0.2,2.8c0,0.2,0,0.3,0,0.6c0,0.2,0,0.5,0,0.8l0.2,9.7h-3L187,100.9L187,100.9z"/>
</g>
<g>
	<path class="st2" d="M34.1,132.6c0.5,0,1,0.1,1.3,0.3s0.6,0.4,0.8,0.8s0.3,0.7,0.4,1.2s0.1,1,0.1,1.6c0,0.7,0,1.3-0.1,1.8s-0.2,0.9-0.4,1.2
		s-0.5,0.6-0.8,0.7s-0.8,0.2-1.3,0.2h-2.5v-7.8H34.1z M33.8,139.2c0.3,0,0.5,0,0.7-0.1s0.3-0.3,0.4-0.5c0.1-0.2,0.2-0.5,0.2-0.9
		s0-0.8,0-1.3c0-0.4,0-0.8,0-1.2s-0.1-0.6-0.2-0.8c-0.1-0.2-0.2-0.4-0.4-0.5s-0.4-0.2-0.7-0.2h-0.7v5.5H33.8z"/>
	<path class="st2" d="M45.5,132.6H47v7.8h-1.6L45.5,132.6L45.5,132.6z"/>
	<path class="st2" d="M59.3,134.4c0-0.2-0.1-0.3-0.2-0.4c-0.1-0.1-0.2-0.2-0.3-0.3s-0.2-0.1-0.4-0.1c-0.4,0-0.7,0.2-0.8,0.6
		c-0.2,0.4-0.3,1.1-0.3,2.1c0,0.5,0,0.9,0,1.3c0,0.4,0.1,0.7,0.2,1c0.1,0.3,0.2,0.5,0.3,0.6s0.3,0.2,0.6,0.2c0.1,0,0.2,0,0.3-0.1
		s0.2-0.1,0.3-0.2c0.1-0.1,0.2-0.2,0.2-0.4c0.1-0.2,0.1-0.3,0.1-0.6v-0.8h-1v-1.2h2.5v4.2h-1.2v-0.7l0,0c-0.2,0.3-0.4,0.5-0.7,0.6
		s-0.6,0.2-1,0.2c-0.5,0-0.9-0.1-1.2-0.3s-0.5-0.4-0.7-0.8c-0.2-0.3-0.3-0.8-0.3-1.3c-0.1-0.5-0.1-1.1-0.1-1.8s0-1.2,0.1-1.7
		s0.2-0.9,0.4-1.2s0.5-0.6,0.8-0.7c0.3-0.2,0.8-0.3,1.3-0.3c0.9,0,1.5,0.2,1.9,0.6c0.4,0.4,0.6,1,0.6,1.8h-1.5
		C59.3,134.7,59.3,134.6,59.3,134.4z"/>
	<path class="st2" d="M69.7,132.6h1.6v7.8h-1.6V132.6z"/>
	<path class="st2" d="M84.6,133.9h-1.7v6.5h-1.6v-6.5h-1.7v-1.3h5C84.6,132.6,84.6,133.9,84.6,133.9z"/>
	<path class="st2" d="M95.8,132.6l2.1,7.8h-1.6l-0.4-1.6h-2.1l-0.4,1.6h-1.6l2.1-7.8H95.8z M95.6,137.4l-0.8-3.5l0,0l-0.8,3.5H95.6z"/>
	<path class="st2" d="M106.1,132.6h1.6v6.5h2.8v1.3h-4.4V132.6z"/>
	<path class="st2" d="M130.3,138.2c0,0.2,0,0.3,0,0.5c0,0.1,0.1,0.3,0.2,0.4c0.1,0.1,0.2,0.2,0.3,0.2c0.1,0.1,0.3,0.1,0.5,0.1s0.5-0.1,0.6-0.2
		c0.2-0.2,0.3-0.4,0.3-0.7c0-0.2,0-0.3-0.1-0.5c0-0.1-0.1-0.2-0.2-0.3c-0.1-0.1-0.3-0.2-0.4-0.3c-0.2-0.1-0.4-0.2-0.7-0.3
		s-0.7-0.2-0.9-0.4c-0.3-0.1-0.5-0.3-0.6-0.5c-0.2-0.2-0.3-0.4-0.4-0.6c-0.1-0.2-0.1-0.5-0.1-0.8c0-0.8,0.2-1.3,0.6-1.7
		s1-0.6,1.8-0.6c0.3,0,0.7,0,1,0.1s0.5,0.2,0.8,0.4s0.4,0.4,0.5,0.7s0.2,0.6,0.2,1v0.2h-1.5c0-0.4-0.1-0.7-0.2-0.9
		c-0.1-0.2-0.3-0.3-0.7-0.3c-0.2,0-0.3,0-0.4,0.1c-0.1,0.1-0.2,0.1-0.3,0.2c-0.1,0.1-0.1,0.2-0.1,0.3s0,0.2,0,0.3
		c0,0.2,0.1,0.4,0.2,0.6c0.1,0.2,0.3,0.3,0.7,0.5l1.2,0.5c0.3,0.1,0.5,0.3,0.7,0.4s0.3,0.3,0.5,0.5s0.2,0.3,0.2,0.5s0.1,0.4,0.1,0.7
		c0,0.8-0.2,1.4-0.7,1.8c-0.5,0.4-1.1,0.6-2,0.6s-1.5-0.2-1.9-0.6c-0.4-0.4-0.6-0.9-0.6-1.7v-0.3h1.6v0.1H130.3z"/>
	<path class="st2" d="M146.9,133.9h-1.7v6.5h-1.6v-6.5h-1.7v-1.3h5V133.9z"/>
	<path class="st2" d="M156.7,138c0,0.2,0,0.4,0,0.5c0,0.2,0.1,0.3,0.1,0.4s0.2,0.2,0.3,0.3s0.3,0.1,0.5,0.1s0.3,0,0.5-0.1s0.2-0.2,0.3-0.3
		s0.1-0.3,0.1-0.4c0-0.2,0-0.3,0-0.5v-5.4h1.6v5.4c0,0.5-0.1,0.9-0.2,1.2s-0.3,0.6-0.6,0.8c-0.2,0.2-0.5,0.3-0.8,0.4
		s-0.6,0.1-0.9,0.1s-0.6,0-0.9-0.1c-0.3-0.1-0.6-0.2-0.8-0.4s-0.4-0.4-0.6-0.8c-0.1-0.3-0.2-0.8-0.2-1.3v-5.4h1.6L156.7,138
		L156.7,138z"/>
	<path class="st2" d="M171.4,132.6c0.5,0,1,0.1,1.3,0.3s0.6,0.4,0.8,0.8s0.3,0.7,0.4,1.2s0.1,1,0.1,1.6c0,0.7,0,1.3-0.1,1.8s-0.2,0.9-0.4,1.2
		s-0.5,0.6-0.8,0.7c-0.3,0.2-0.8,0.2-1.3,0.2h-2.5v-7.8H171.4z M171.1,139.2c0.3,0,0.5,0,0.7-0.1s0.3-0.3,0.4-0.5s0.2-0.5,0.2-0.9
		s0-0.8,0-1.3c0-0.4,0-0.8,0-1.2s-0.1-0.6-0.2-0.8c-0.1-0.2-0.2-0.4-0.4-0.5s-0.4-0.2-0.7-0.2h-0.7v5.5H171.1z"/>
	<path class="st2" d="M182.8,132.6h1.6v7.8h-1.6V132.6z"/>
	<path class="st2" d="M193.1,134.8c0.1-0.5,0.2-0.9,0.4-1.3c0.2-0.4,0.5-0.6,0.8-0.8s0.8-0.3,1.4-0.3s1.1,0.1,1.4,0.3s0.6,0.5,0.8,0.8
		c0.2,0.4,0.3,0.8,0.4,1.3s0.1,1,0.1,1.6s0,1.1-0.1,1.6s-0.2,0.9-0.4,1.3c-0.2,0.4-0.5,0.6-0.8,0.8s-0.8,0.3-1.4,0.3
		s-1.1-0.1-1.4-0.3s-0.6-0.5-0.8-0.8c-0.2-0.4-0.3-0.8-0.4-1.3c-0.1-0.5-0.1-1-0.1-1.6C193,135.9,193,135.3,193.1,134.8z
		 M194.6,137.8c0,0.4,0.1,0.7,0.2,0.9s0.2,0.4,0.3,0.5s0.3,0.2,0.6,0.2c0.2,0,0.4-0.1,0.6-0.2s0.3-0.3,0.3-0.5
		c0.1-0.2,0.1-0.5,0.2-0.9c0-0.4,0-0.8,0-1.3s0-1,0-1.3s-0.1-0.7-0.2-0.9c-0.1-0.2-0.2-0.4-0.3-0.5s-0.3-0.2-0.6-0.2
		c-0.2,0-0.4,0.1-0.6,0.2c-0.1,0.1-0.3,0.3-0.3,0.5c-0.1,0.2-0.1,0.5-0.2,0.9c0,0.4,0,0.8,0,1.3S194.6,137.4,194.6,137.8z"/>
</g>

</svg>