<?xml version="1.0" encoding="utf-8"?>
<!-- Generator: Adobe Illustrator 23.0.1, SVG Export Plug-In . SVG Version: 6.00 Build 0)  -->
<svg version="1.1" id="Layer_1" xmlns="http://www.w3.org/2000/svg" xmlns:xlink="http://www.w3.org/1999/xlink" x="0px" y="0px"
	 width="540.7px" height="438.6px" viewBox="0 0 540.7 438.6" style="enable-background:new 0 0 540.7 438.6;" xml:space="preserve"
	>
<style type="text/css">
	.st0{fill-rule:evenodd;clip-rule:evenodd;fill:#00D8FF;}
	.st1{fill:#FF9600;}
</style>
<g>
	<path class="st0" d="M386.5,132c0-16.2-20.3-31.5-51.4-41.1c7.2-31.7,4-56.9-10.1-65c-3.2-1.9-7-2.8-11.2-2.8v11.1
		c2.3,0,4.1,0.5,5.7,1.3c6.8,3.9,9.7,18.7,7.4,37.7c-0.6,4.7-1.5,9.6-2.5,14.6c-9.8-2.4-20.4-4.2-31.6-5.4
		c-6.7-9.2-13.7-17.6-20.7-24.9c16.2-15.1,31.5-23.4,41.9-23.4V23.1l0,0c-13.7,0-31.6,9.8-49.8,26.7C245.9,33,228,23.3,214.3,23.3
		v11.1c10.3,0,25.6,8.2,41.9,23.2c-7,7.3-14,15.6-20.6,24.9c-11.3,1.2-21.9,3-31.7,5.5c-1.2-5-2-9.8-2.6-14.4
		c-2.3-19,0.6-33.9,7.3-37.8c1.5-0.9,3.4-1.3,5.7-1.3V23.4l0,0c-4.2,0-8,0.9-11.3,2.8c-14,8.1-17.2,33.3-9.9,64.9
		c-31,9.6-51.2,24.9-51.2,41c0,16.2,20.3,31.5,51.4,41.1c-7.2,31.7-4,56.9,10.1,65c3.2,1.9,7,2.8,11.2,2.8
		c13.7,0,31.6-9.8,49.8-26.7c18.1,16.9,36.1,26.5,49.8,26.5c4.2,0,8-0.9,11.3-2.8c14-8.1,17.2-33.3,9.9-64.9
		C366.3,163.5,386.5,148.2,386.5,132L386.5,132z M286.9,132c0-12.6-10.2-22.8-22.8-22.8c-12.6,0-22.8,10.2-22.8,22.8
		s10.2,22.8,22.8,22.8C276.7,154.8,286.9,144.6,286.9,132L286.9,132z M214.2,23.3L214.2,23.3L214.2,23.3L214.2,23.3z M321.6,98.8
		c-1.9,6.4-4.1,13.1-6.7,19.7c-2-4-4.2-8-6.5-12c-2.3-4-4.7-7.9-7.2-11.7C308.2,95.9,315,97.2,321.6,98.8L321.6,98.8z M298.7,151.9
		c-3.9,6.7-7.9,13.1-12,19c-7.4,0.7-14.9,1-22.5,1c-7.5,0-15-0.4-22.4-1c-4.1-5.9-8.2-12.3-12.1-18.9c-3.8-6.5-7.2-13.2-10.4-19.8
		c3.1-6.7,6.6-13.4,10.3-19.9c3.9-6.7,7.9-13.1,12-19c7.4-0.7,14.9-1,22.5-1c7.5,0,15,0.4,22.4,1c4.1,5.9,8.2,12.3,12.1,18.9
		c3.8,6.5,7.2,13.2,10.4,19.8C305.9,138.6,302.5,145.3,298.7,151.9L298.7,151.9z M314.8,145.4c2.7,6.7,5,13.4,6.9,19.8
		c-6.5,1.6-13.4,2.9-20.5,4c2.4-3.8,4.9-7.8,7.2-11.8C310.6,153.4,312.8,149.4,314.8,145.4L314.8,145.4z M264.3,198.5
		c-4.6-4.8-9.3-10.1-13.9-15.9c4.5,0.2,9.1,0.4,13.7,0.4c4.7,0,9.3-0.1,13.9-0.4C273.5,188.4,268.9,193.8,264.3,198.5L264.3,198.5z
		 M227.2,169.2c-7.1-1.1-13.9-2.3-20.4-3.9c1.9-6.4,4.1-13.1,6.7-19.7c2,4,4.2,8,6.5,12C222.4,161.5,224.8,165.4,227.2,169.2
		L227.2,169.2z M264,65.5c4.6,4.8,9.3,10.1,13.9,15.9c-4.5-0.2-9.1-0.4-13.7-0.4c-4.7,0-9.3,0.1-13.9,0.4
		C254.8,75.6,259.5,70.2,264,65.5L264,65.5z M227.2,94.8c-2.4,3.8-4.9,7.8-7.2,11.8c-2.3,4-4.4,8-6.5,12c-2.7-6.7-5-13.4-6.9-19.8
		C213.1,97.2,220,95.9,227.2,94.8L227.2,94.8z M182,157.2c-17.7-7.5-29.1-17.4-29.1-25.2s11.4-17.8,29.1-25.2c4.3-1.9,9-3.5,13.8-5
		c2.8,9.8,6.6,19.9,11.2,30.3c-4.6,10.4-8.3,20.5-11.1,30.2C191.1,160.8,186.4,159.1,182,157.2L182,157.2z M208.9,228.5
		c-6.8-3.9-9.7-18.7-7.4-37.7c0.6-4.7,1.5-9.6,2.5-14.6c9.8,2.4,20.4,4.2,31.6,5.4c6.7,9.2,13.7,17.6,20.7,24.9
		c-16.3,15.1-31.5,23.4-41.9,23.4C212.2,229.8,210.4,229.3,208.9,228.5L208.9,228.5z M327.1,190.5c2.3,19-0.6,33.9-7.3,37.8
		c-1.5,0.9-3.4,1.3-5.7,1.3c-10.3,0-25.6-8.2-41.9-23.2c7-7.3,14-15.6,20.6-24.9c11.3-1.2,21.9-3,31.7-5.5
		C325.6,181,326.5,185.8,327.1,190.5L327.1,190.5z M346.3,157.2c-4.3,1.9-9,3.5-13.8,5c-2.8-9.8-6.6-19.9-11.2-30.3
		c4.6-10.4,8.3-20.5,11.1-30.2c4.9,1.6,9.6,3.2,14,5.1c17.7,7.5,29.1,17.4,29.1,25.2C375.3,139.8,363.9,149.7,346.3,157.2
		L346.3,157.2z"/>
</g>
<g>
	<path class="st1" d="M401.6,318.9v78.9h-28.4v-78.9H401.6z M438.3,318.7l13,18.8l13.3-18.8h29.3l-28.4,37.5l30.9,41.4h-31.4
		l-15.6-21.4l-15.6,21.4h-29.3l30.7-40.2l-28.3-38.7H438.3z M335.9,316.3c21.4,0,27.8,14.7,27.9,31l0,0.5v49.5h-28.4l0-42.3l0,0
		l0-0.6l0,0l0-0.6l0,0l0-0.6l0,0l0-0.6c0-0.1,0-0.2,0-0.3l0-0.6c0-0.2,0-0.4,0-0.6l0-0.6c0-0.1,0-0.2,0-0.3l-0.1-0.5l0,0l-0.1-0.5
		c-0.8-6.8-3.4-10.3-10.2-10.3c-8.1,0-11.6,5.6-12.4,14.6l-0.1,0.6c-0.1,1.3-0.2,2.6-0.2,4.1l0,39.1h-28.4v-41.9l0-0.6
		c0-0.1,0-0.2,0-0.3l0-0.6l0,0l0-0.6l0,0l0-0.6l0,0l0-0.6c0-0.1,0-0.2,0-0.3l0-0.6l0,0l0-0.6l0,0l-0.1-0.5
		c-0.7-7.3-3.4-11.1-10.5-11.1c-9.2,0-12.6,7.6-12.6,19.3l0,39.1h-28.4v-78.9h28.4v11.9c4.2-8.7,12.6-14,24.4-14
		c13.9,0,21.1,6.4,24.4,15.6C313.4,323,322.7,316.3,335.9,316.3z M185.6,313.8c25.9,0,39.8,17.7,40,38.8l0,0.6v8h-55
		c0.7,9.7,7.7,14.3,16.3,14.3c7.6,0,12.5-2.6,15.2-8.6l0.1-0.2l22.8,2.1c-4,18-18.4,28.1-39.2,28.1c-25.1,0-43-15.2-43-40.3
		C143,331.6,161.2,313.8,185.6,313.8z M98.2,285.1c28.7,0,42.9,13.7,42.9,35.5c0,16.3-10,27-23.6,28.7c11.4,2.3,18.1,8.9,19.4,21.8
		l0.2,2.4l0,0l0.2,2.2l0,0l0.1,2.1l0,0l0.1,1.6l0,0l0.1,1.9l0,0l0.1,1.1l0,0l0.1,1.7l0,0l0.1,1.6l0,0l0,0.9l0,0l0,1.5l0,0l0,1.7l0,0
		l0,0.8l0,0l0,2.3l0,0l0,2.4l0,0l0,1.5l0,0h-29.6c0-0.6,0-1.2,0-1.8l0-1.2l0,0l0.1-2.8l0-0.9l0,0l0-1c0-0.2,0-0.3,0-0.5l0-0.9l0,0
		l0-1l0,0l0-0.8l0,0l0-1.1l0,0l0-1.1l0,0l0-1.2l0,0l-0.1-1.3l0,0l0-0.7l0,0l-0.1-1.1l0,0l-0.1-1.1l0,0l-0.1-1.6l0,0l-0.1-1.3
		c-0.8-11.9-5.6-15.2-14.3-15.6l-0.6,0l0,0l-0.6,0c-0.2,0-0.4,0-0.6,0l-46.8,0v-23.2h47.9c12.7,0,19-3.9,19-14.2
		c0-9-6.3-14.5-19-14.5H45v-22.7H98.2z M76.2,379.3c3.9,0,5.5,2.2,6.1,4.2l0.1,0.2c0,0,0,0.1,0,0.1l0,0.2l0,0l0,0.2c0,0,0,0.1,0,0.1
		l0,0.2l0,0l0,0.2c0,0,0,0.1,0,0.1l0,0.2c0,0,0,0.1,0,0.1l0,0.2l0,0v11.1H45v-17.3H76.2z M185.3,334.3c-7.1,0-11.1,3.4-13.1,8.5
		l-0.1,0.4l0,0l-0.1,0.4c-0.1,0.4-0.3,0.8-0.4,1.2l-0.1,0.4c-0.1,0.3-0.1,0.6-0.2,0.9l-0.1,0.4c0,0.1,0,0.1,0,0.2l-0.1,0.4l0,0
		l0,0.2h27.6C198.3,340.3,193.7,334.3,185.3,334.3z M401.7,286.4v25.1h-28.8v-25.1H401.7z"/>
</g>
</svg>
