<svg xmlns="http://www.w3.org/2000/svg" xmlns:xlink="http://www.w3.org/1999/xlink" viewBox="0 0 305.17 201.15"><defs><clipPath id="clip-path" transform="translate(-15.11 -17.16)"><path d="M212.46,18.63V17.16a15.85,15.85,0,0,1,2.58.21c5.55.94,11.89,3.66,12.81,14,.74,8.34-7.74,18.13-21.22,29.94-4.87,4.27-13.53,13-13.32,23.84l-1.46,0c-.21-11.57,8.82-20.6,13.81-25C219,48.52,227.1,39,226.38,31.5c-.86-9.41-6.46-11.8-11.58-12.68C214,18.69,213.17,18.7,212.46,18.63Z" style="fill:none"/></clipPath><clipPath id="clip-path-2" transform="translate(-15.11 -17.16)"><path d="M191.85,85.18l1.46,0c-.21,10.87,5.13,17.83,11.84,24,8.38,7.73,20.61,17.67,20.61,26.94,0,10.38-7.77,13.76-14.33,15.31a14.66,14.66,0,0,1-3.42.4c-11.3,0-23.44-12.37-31.19-30.16-5-11.51-10.61-21.31-20.85-21.85l-.64,0c-11.3,0-20.76,14.18-23.9,23.25-6.61,19.11-15.07,29.12-26.07,29.12a20.14,20.14,0,0,1-3.8-.38C91.45,149.8,86,144.08,85.45,137c-.68-9.36,8.33-20,18.06-26.51C109,106.83,120.38,96,120.4,85.15S109,62.9,103.51,59.22C93.78,52.76,82,41.66,85.45,30.05c2.23-7.37,8.55-12,16.78-12v1.47c-7.6,0-13.33,4.19-15.37,10.92-3.22,10.58,8,21.21,17.46,27.53,5.71,3.83,17.5,15.55,17.55,27.15S110,107.91,104.32,111.71C94.87,118,86.26,128.29,86.91,136.9c.46,6.34,5.42,11.55,14.93,13.42a30,30,0,0,0,3.52.36c10.1,0,18.19-9.41,24.69-28.12,3.23-9.38,13-24.2,25.28-24.25l.71,0c11.18.63,17.05,11,22.13,22.73,7.61,17.44,19.35,29.31,29.84,29.28a24,24,0,0,0,3.09-.36c6.21-1.48,13.2-4.55,13.19-13.88.06-8.44-11.78-18.15-20.13-25.86C197.24,103.89,191.62,96.57,191.85,85.18Z" style="fill:none"/></clipPath><clipPath id="clip-path-3" transform="translate(-15.11 -17.16)"><path d="M102.23,19.55V18.08c13.64.27,21.55,11,33,31.16,5.06,8.94,9,21.27,20,21.27H156c10.24-.54,16.88-10.39,21.88-21.88,8-18.29,22.55-31.46,34.61-31.46v1.47c-11.31,0-25.46,12.68-33.27,30.57C174.09,61,167.16,71.35,156,72a5.47,5.47,0,0,1-.8,0c-12.18-.07-16.27-13.09-21.32-22C122.61,30,115,19.77,102.23,19.55Z" style="fill:none"/></clipPath><clipPath id="clip-path-4" transform="translate(-15.11 -17.16)"><path d="M242.59,66.59V65.12c6.42,0,11.57,1.78,15.11,5.18s5.47,8.44,5.47,15c0,13-7.74,23.62-20.58,23.62a23.43,23.43,0,0,1-23.25-23.62c0-13,10.41-20.14,23.25-20.14v1.47c-12.17,0-21.78,6.61-21.78,18.67a22,22,0,0,0,21.78,22.15c11.88,0,19.1-9.79,19.11-22.15,0-6.16-1.8-10.81-5-13.9S248.18,66.78,242.59,66.59Z" style="fill:none"/></clipPath><linearGradient id="Dégradé_sans_nom_10" x1="-186.92" y1="23.1" x2="-234.21" y2="56.47" gradientTransform="translate(315.01)" gradientUnits="userSpaceOnUse"><stop offset="0" stop-color="#fff"/><stop offset="0.13" stop-color="#e3e4e6" stop-opacity="0.8"/><stop offset="0.31" stop-color="#c1c5c8" stop-opacity="0.56"/><stop offset="0.48" stop-color="#a5aaaf" stop-opacity="0.36"/><stop offset="0.64" stop-color="#8f969b" stop-opacity="0.2"/><stop offset="0.78" stop-color="#80878d" stop-opacity="0.09"/><stop offset="0.91" stop-color="#767e85" stop-opacity="0.02"/><stop offset="1" stop-color="#737b82" stop-opacity="0"/></linearGradient><linearGradient id="linear-gradient" x1="162.13" y1="148.53" x2="166.13" y2="112.83" gradientTransform="matrix(-1, 0, 0, 1, 365.93, 0)" gradientUnits="userSpaceOnUse"><stop offset="0" stop-color="#fff" stop-opacity="0.54"/><stop offset="0.49" stop-color="#b9bdc1" stop-opacity="0.27"/><stop offset="1" stop-color="#737b82" stop-opacity="0"/></linearGradient><linearGradient id="Dégradé_sans_nom_4" x1="94.02" y1="154.69" x2="108.35" y2="127.84" gradientUnits="userSpaceOnUse"><stop offset="0" stop-color="#fff"/><stop offset="0.63" stop-color="#a4aaae" stop-opacity="0.68"/><stop offset="1" stop-color="#737b82" stop-opacity="0.5"/></linearGradient><linearGradient id="linear-gradient-2" x1="137.83" y1="69.44" x2="104.05" y2="92.63" xlink:href="#linear-gradient"/><radialGradient id="radial-gradient" cx="159.36" cy="137.2" r="17.47" gradientTransform="matrix(0.14, -0.99, -1.19, -0.17, 385.24, 290.8)" gradientUnits="userSpaceOnUse"><stop offset="0" stop-color="#fff" stop-opacity="0.54"/><stop offset="0.16" stop-color="#fbfbfb" stop-opacity="0.52"/><stop offset="0.33" stop-color="#eeeff0" stop-opacity="0.47"/><stop offset="0.51" stop-color="#d8dbdd" stop-opacity="0.39"/><stop offset="0.69" stop-color="#babec2" stop-opacity="0.28"/><stop offset="0.87" stop-color="#949aa0" stop-opacity="0.13"/><stop offset="1" stop-color="#737b82" stop-opacity="0"/></radialGradient><linearGradient id="Dégradé_sans_nom_10-2" x1="229.06" y1="16.74" x2="193.43" y2="47.94" gradientTransform="translate(72.35 -133.32) rotate(41.21)" xlink:href="#Dégradé_sans_nom_10"/><linearGradient id="Dégradé_sans_nom_34" x1="157.19" y1="95.27" x2="157.19" y2="60.64" gradientTransform="matrix(-1.03, -0.07, 0.07, -1.04, 313.32, 180.47)" gradientUnits="userSpaceOnUse"><stop offset="0" stop-color="#fff" stop-opacity="0.8"/><stop offset="0" stop-color="#fefefe" stop-opacity="0.8"/><stop offset="0.21" stop-color="#d4d7d9" stop-opacity="0.56"/><stop offset="0.4" stop-color="#b2b6ba" stop-opacity="0.36"/><stop offset="0.58" stop-color="#969ca2" stop-opacity="0.2"/><stop offset="0.75" stop-color="#838a90" stop-opacity="0.09"/><stop offset="0.89" stop-color="#777f86" stop-opacity="0.02"/><stop offset="1" stop-color="#737b82" stop-opacity="0"/></linearGradient></defs><title>widgettoolkit</title><g style="isolation:isolate"><g id="Calque_1" data-name="Calque 1"><path d="M212.46,18.63c.71.07,1.57.06,2.34.19,5.12.88,10.72,3.27,11.58,12.68.72,7.54-7.38,17-20.72,28.7-5,4.38-14,13.41-13.81,25-.23,11.39,5.39,18.71,12.31,25.06,8.35,7.71,20.19,17.42,20.13,25.86,0,9.33-7,12.4-13.19,13.88a24,24,0,0,1-3.09.36c-10.49,0-22.23-11.84-29.84-29.28C173.09,109.35,167.22,99,156,98.33l-.71,0c-12.25,0-22.05,14.87-25.28,24.25-6.5,18.71-14.59,28.15-24.69,28.12a30,30,0,0,1-3.52-.36c-9.51-1.87-14.47-7.08-14.93-13.42-.65-8.61,8-18.9,17.41-25.19,5.69-3.8,17.49-14.95,17.55-26.56S110,61.83,104.32,58c-9.5-6.32-20.68-17-17.46-27.53,2-6.73,7.77-10.91,15.37-10.92C115,19.77,122.61,30,133.92,50c5.05,8.93,9.14,21.95,21.32,22a5.47,5.47,0,0,0,.8,0c11.12-.61,18.05-11,23.15-22.76C187,31.31,201.15,18.6,212.46,18.63Z" transform="translate(-15.11 -17.16)" style="fill:#8198a5"/><path d="M242.59,66.59c5.59.19,10.86,1.67,14.09,4.77s5,7.74,5,13.9c0,12.36-7.23,22.15-19.11,22.15a22,22,0,0,1-21.78-22.15C220.81,73.2,230.42,66.61,242.59,66.59Z" transform="translate(-15.11 -17.16)" style="fill:#8198a5"/><g style="isolation:isolate"><g style="clip-path:url(#clip-path)"><g style="isolation:isolate"><path d="M212.46,18.63V17.16a15.85,15.85,0,0,1,2.58.21c5.55.94,11.89,3.66,12.81,14,.74,8.34-7.74,18.13-21.22,29.94-4.87,4.27-13.53,13-13.32,23.84l-1.46,0c-.21-11.57,8.82-20.6,13.81-25C219,48.52,227.1,39,226.38,31.5c-.86-9.41-6.46-11.8-11.58-12.68-.77-.13-1.63-.12-2.34-.19" transform="translate(-15.11 -17.16)" style="fill:#bdc2c7"/><path d="M192.17,85.17h0c-.5-11.56,8.53-20.59,13.52-25C219,48.52,227.1,39,226.38,31.5c-.86-9.41-6.46-11.8-11.58-12.68-.77-.13-1.63-.12-2.34-.19V17.16a15.85,15.85,0,0,1,2.58.21c5.55.94,11.89,3.66,12.81,14,.74,8.34-7.74,18.13-21.22,29.94-4.87,4.27-13.53,13-13.32,23.84l-1.14,0" transform="translate(-15.11 -17.16)" style="fill:#bdc2c7"/><path d="M192.27,85.17c-.14-.13,0-.46,0-.65,0,.2-.09.46-.14.66-.45-11.57,8.58-20.6,13.57-25C219,48.52,227.1,39,226.38,31.5c-.86-9.41-6.46-11.8-11.58-12.68-.77-.13-1.63-.12-2.34-.19V17.16a15.85,15.85,0,0,1,2.58.21c5.55.94,11.89,3.66,12.81,14,.74,8.34-7.74,18.13-21.22,29.94-4.87,4.27-13.53,13-13.32,23.84l-1,0" transform="translate(-15.11 -17.16)" style="fill:#bac0c6"/><path d="M192.31,85.17c-.4-.38-.05-1.29-.12-1.84-.05.56-.12,1.29-.14,1.85-.41-11.57,8.62-20.6,13.61-25C219,48.52,227.1,39,226.38,31.5c-.86-9.41-6.46-11.8-11.58-12.68-.77-.13-1.63-.12-2.34-.19V17.16a15.85,15.85,0,0,1,2.58.21c5.55.94,11.89,3.66,12.81,14,.74,8.34-7.74,18.13-21.22,29.94-4.87,4.27-13.53,13-13.32,23.84l-1,0" transform="translate(-15.11 -17.16)" style="fill:#b8bec3"/><path d="M192.34,85.17c-1-.94,0-1.94-.06-2.91a16.87,16.87,0,0,0-.26,2.92c-.38-11.57,8.65-20.6,13.64-25C219,48.52,227.1,39,226.38,31.5c-.86-9.41-6.46-11.8-11.58-12.68-.77-.13-1.63-.12-2.34-.19a1.89,1.89,0,0,1,.11-.25c4.14,0,13.82,1.39,14.07,15.35.83-2.14-.16-8.26-2.84-11.19a11.3,11.3,0,0,0-4.35-3.05c-2.25-.85-4.7-.58-7-1.25V17.16a15.85,15.85,0,0,1,2.58.21c5.55.94,11.89,3.66,12.81,14,.74,8.34-7.74,18.13-21.22,29.94-4.87,4.27-13.53,13-13.32,23.84l-1,0" transform="translate(-15.11 -17.16)" style="fill:#b6bcc2"/><path d="M192.37,85.17c-.08-.08-.07-.38.07-4a16.07,16.07,0,0,0-.44,4c-.36-11.57,8.67-20.6,13.66-25C219,48.52,227.1,39,226.38,31.5c-.86-9.41-6.46-11.8-11.58-12.68-.77-.13-1.63-.12-2.34-.19l.11-.18c6.44.1,14.09,2.94,14,15.88.51-1.37,4.46-13.44-14.1-16.13v-1a15.85,15.85,0,0,1,2.58.21c5.55.94,11.89,3.66,12.81,14,.74,8.34-7.74,18.13-21.22,29.94-4.87,4.27-13.53,13-13.32,23.84l-.94,0" transform="translate(-15.11 -17.16)" style="fill:#b3bac0"/><path d="M192.4,85.17s-.22-.78.26-5.11a17.61,17.61,0,0,0-.69,5.12c-.33-11.57,8.7-20.6,13.69-25C219,48.52,227.1,39,226.38,31.5c-.86-9.41-6.46-11.8-11.58-12.68-.77-.13-1.63-.12-2.34-.19l.11-.15c14.2.57,14,12.2,13.85,16.57.05-.15,4.7-15.22-14-16.88v-1a15.85,15.85,0,0,1,2.58.21c5.55.94,11.89,3.66,12.81,14,.74,8.34-7.74,18.13-21.22,29.94-4.87,4.27-13.53,13-13.32,23.84l-.91,0" transform="translate(-15.11 -17.16)" style="fill:#b1b7be"/><path d="M192.43,85.17a24.43,24.43,0,0,1,.55-6.42,17.18,17.18,0,0,0-1,6.43c-.31-11.57,8.72-20.6,13.71-25C219,48.52,227.1,39,226.38,31.5c-.86-9.41-6.46-11.8-11.58-12.68-.77-.13-1.63-.12-2.34-.19l.11-.12c15.92.72,13.92,15.32,13.64,17,.11-.15,5.4-15.86-13.75-17.36v-1a15.85,15.85,0,0,1,2.58.21c5.55.94,11.89,3.66,12.81,14,.74,8.34-7.74,18.13-21.22,29.94-4.87,4.27-13.53,13-13.32,23.84l-.88,0" transform="translate(-15.11 -17.16)" style="fill:#afb5bb"/><path d="M192.45,85.17a23.11,23.11,0,0,1,.92-7.69,18.21,18.21,0,0,0-1.44,7.7c-.29-11.57,8.74-20.6,13.73-25C219,48.52,227.1,39,226.38,31.5c-.86-9.41-6.46-11.8-11.58-12.68-.77-.13-1.63-.12-2.34-.19v-.09c17.71.9,13.43,18,13.39,18.15.09-.17,5.9-17.51-13.39-18.59v-.94a15.85,15.85,0,0,1,2.58.21c5.55.94,11.89,3.66,12.81,14,.74,8.34-7.74,18.13-21.22,29.94-4.87,4.27-13.53,13-13.32,23.84l-.86,0" transform="translate(-15.11 -17.16)" style="fill:#acb2b9"/><path d="M192.48,85.17c-.79-.77.91-7.24,1.55-9.68a22.31,22.31,0,0,0-2.12,9.69c-.27-11.57,8.76-20.6,13.75-25C219,48.52,227.1,39,226.38,31.5c-.86-9.41-6.46-11.8-11.58-12.68-.77-.13-1.63-.12-2.34-.19l.11-.06c15.68.93,14.43,14.72,12.75,19.48,2-3.33,5.19-19.17-12.86-20v-.91a15.85,15.85,0,0,1,2.58.21c5.55.94,11.89,3.66,12.81,14,.74,8.34-7.74,18.13-21.22,29.94-4.87,4.27-13.53,13-13.32,23.84l-.83,0" transform="translate(-15.11 -17.16)" style="fill:#a8afb6"/><path d="M192.51,85.17s-.63-4.91,2.62-12a22.91,22.91,0,0,0-3.24,12c-.25-11.57,8.78-20.6,13.77-25C219,48.52,227.1,39,226.38,31.5c-.86-9.41-6.46-11.8-11.58-12.68-.77-.13-1.63-.12-2.34-.19l.11,0c13.28.85,16.06,11.27,11.94,21.12,5-8.49,2.84-21.15-12-21.66v-.89a15.85,15.85,0,0,1,2.58.21c5.55.94,11.89,3.66,12.81,14,.74,8.34-7.74,18.13-21.22,29.94-4.87,4.27-13.53,13-13.32,23.84l-.8,0" transform="translate(-15.11 -17.16)" style="fill:#a3aab1"/><path d="M192.54,85.17c-1.17-1.14-1.17-1.14,4.1-14.73a26,26,0,0,0-4.78,14.74c-.22-11.57,8.81-20.6,13.8-25C219,48.52,227.1,39,226.38,31.5c-.86-9.41-6.46-11.8-11.58-12.68-.77-.13-1.63-.12-2.34-.19h.11c12.69.87,17.51,11.52,10.54,23.27,7.75-10.25,4.3-23.54-10.65-23.88v-.85a15.85,15.85,0,0,1,2.58.21c5.55.94,11.89,3.66,12.81,14,.74,8.34-7.74,18.13-21.22,29.94-4.87,4.27-13.53,13-13.32,23.84l-.77,0" transform="translate(-15.11 -17.16)" style="fill:#9ea5ac"/><path d="M192.57,85.17c-.07-.07-2.3-11.34,13.89-25.64C216,51.1,225.89,41.43,227,33.59c.09-.62,2-15.37-14.56-15.61v-.82a15.85,15.85,0,0,1,2.58.21c5.55.94,11.89,3.66,12.81,14,.74,8.34-7.74,18.13-21.22,29.94-4.87,4.27-13.53,13-13.32,23.84l-.74,0" transform="translate(-15.11 -17.16)" style="fill:#919aa1"/><path d="M192.61,85.17c-.07-.07-2.61-10.9,13.92-25.55,13.68-12.11,19.64-19.76,20.58-26.4,0-.16,1.71-15.26-14.65-15.27v-.79a15.85,15.85,0,0,1,2.58.21c5.55.94,11.89,3.66,12.81,14,.74,8.34-7.74,18.13-21.22,29.94-4.87,4.27-13.53,13-13.32,23.84l-.7,0" transform="translate(-15.11 -17.16)" style="fill:#8e979e"/><path d="M192.65,85.16c-.07-.06-2.54-10.91,13.93-25.49,9.52-8.43,19.4-18.14,20.54-26.23,0-.15,2-15.54-14.66-15.53v-.75a15.85,15.85,0,0,1,2.58.21c5.55.94,11.89,3.66,12.81,14,.74,8.34-7.74,18.13-21.22,29.94-4.87,4.27-13.53,13-13.32,23.84h-.66" transform="translate(-15.11 -17.16)" style="fill:#8a939b"/><path d="M192.7,85.16c-.07-.06-2.57-10.85,13.91-25.45,13.69-12.12,19.65-19.79,20.59-26.48,0-.15,2-15.36-14.74-15.36v-.71a15.85,15.85,0,0,1,2.58.21c5.55.94,11.89,3.66,12.81,14,.74,8.34-7.74,18.13-21.22,29.94-4.87,4.27-13.53,13-13.32,23.84h-.61" transform="translate(-15.11 -17.16)" style="fill:#879097"/><path d="M192.76,85.16c-.08-.07-2.63-10.79,13.89-25.42,43.41-38.44,6.23-41.92,5.81-41.92v-.66a15.85,15.85,0,0,1,2.58.21c5.55.94,11.89,3.66,12.81,14,.74,8.34-7.74,18.13-21.22,29.94-4.87,4.27-13.53,13-13.32,23.84h-.55" transform="translate(-15.11 -17.16)" style="fill:#848d94"/><path d="M192.82,85.16c-.07-.07-2.55-10.85,13.86-25.38,43.33-38.38,6.2-42,5.78-42v-.6a15.85,15.85,0,0,1,2.58.21c5.55.94,11.89,3.66,12.81,14,.74,8.34-7.74,18.13-21.22,29.94-4.87,4.27-13.53,13-13.32,23.84h-.49" transform="translate(-15.11 -17.16)" style="fill:#838a91"/><path d="M192.88,85.16c-.07-.07-2.56-10.83,13.83-25.35,5.8-5.13,19.37-17.15,20.62-26.33.88-6.43-2.35-15.94-14.87-15.78v-.54a15.85,15.85,0,0,1,2.58.21c5.55.94,11.89,3.66,12.81,14,.74,8.34-7.74,18.13-21.22,29.94-4.87,4.27-13.53,13-13.32,23.84h-.43" transform="translate(-15.11 -17.16)" style="fill:#7f878e"/><path d="M192.94,85.16c-.07-.07-2.55-10.82,13.8-25.31,9.6-8.5,19.56-18.29,20.67-26.45.6-4.44-.91-15.94-14.95-15.76v-.48a15.85,15.85,0,0,1,2.58.21c5.55.94,11.89,3.66,12.81,14,.74,8.34-7.74,18.13-21.22,29.94-4.87,4.27-13.53,13-13.32,23.84h-.37" transform="translate(-15.11 -17.16)" style="fill:#7d848a"/><path d="M193,85.16c-.07-.07-2.53-10.81,13.79-25.27,9.61-8.52,19.59-18.34,20.7-26.59.83-6.16-2.52-15.86-15-15.72v-.42a15.85,15.85,0,0,1,2.58.21c5.55.94,11.89,3.66,12.81,14,.74,8.34-7.74,18.13-21.22,29.94-4.87,4.27-13.53,13-13.32,23.84H193" transform="translate(-15.11 -17.16)" style="fill:#798187"/><path d="M193,85.16c-.07-.07-2.53-10.8,13.78-25.22,43.55-38.52,6.07-42.42,5.64-42.41v-.37a15.85,15.85,0,0,1,2.58.21c5.55.94,11.89,3.66,12.81,14,.74,8.34-7.74,18.13-21.22,29.94-4.87,4.27-13.53,13-13.32,23.84H193" transform="translate(-15.11 -17.16)" style="fill:#777d84"/><path d="M193.08,85.16c-.07-.07-2.52-10.74,13.78-25.18,43.63-38.66,6-42.51,5.6-42.5a4.93,4.93,0,0,1,2.58-.11c5.55.94,11.89,3.66,12.81,14,.74,8.34-7.74,18.13-21.22,29.94-4.87,4.27-13.53,13-13.32,23.84h-.23" transform="translate(-15.11 -17.16)" style="fill:#737a82"/><path d="M193.12,85.16c-.07-.07-2.43-10.76,13.78-25.13,43.66-38.69,6-42.6,5.56-42.6a5.5,5.5,0,0,1,2.58-.06c5.55.94,11.89,3.66,12.81,14,.74,8.34-7.74,18.13-21.22,29.94-4.87,4.27-13.53,13-13.32,23.84h-.19" transform="translate(-15.11 -17.16)" style="fill:#71777f"/><path d="M193.15,85.16c-.07-.07-2.41-10.71,13.8-25.08,10.12-9,19.63-18.4,20.7-26.64.87-6.8-3.26-16.28-15.19-16a6.07,6.07,0,0,1,2.58,0c5.55.94,11.89,3.66,12.81,14,.74,8.34-7.74,18.13-21.22,29.94-4.87,4.27-13.53,13-13.32,23.84h-.16" transform="translate(-15.11 -17.16)" style="fill:#6e757b"/><path d="M193.18,85.15c-.06-.06-2.37-10.67,13.81-25,10.12-9,19.63-18.41,20.69-26.7.87-6.81-3.27-16.3-15.22-16.07a6.59,6.59,0,0,1,2.58,0c5.55.94,11.89,3.66,12.81,14,.74,8.34-7.74,18.13-21.22,29.94-4.87,4.27-13.53,13-13.32,23.84h-.13" transform="translate(-15.11 -17.16)" style="fill:#6b7178"/><path d="M193.21,85.15c-.07-.06-2.07-10.93,13.83-25,14-12.36,19.81-19.94,20.7-27,.67-5.24-2.2-16-15.28-15.83a7.45,7.45,0,0,1,2.58.05c5.55.94,11.89,3.66,12.81,14,.74,8.34-7.74,18.13-21.22,29.94-4.87,4.27-13.53,13-13.32,23.84h-.1" transform="translate(-15.11 -17.16)" style="fill:#696f75"/><path d="M193.24,85.15c-.07-.06-2.29-10.63,13.84-24.92,6.32-5.6,19.47-17.25,20.61-26.37,1-8.18-4-16.77-15.23-16.57a8.26,8.26,0,0,1,2.58.08c5.55.94,11.89,3.66,12.81,14,.74,8.34-7.74,18.13-21.22,29.94-4.87,4.27-13.53,13-13.32,23.84h-.07" transform="translate(-15.11 -17.16)" style="fill:#666b72"/><path d="M193.26,85.15c-.07-.06-2.27-10.58,13.86-24.88,10.11-9,19.6-18.39,20.64-26.74.86-6.9-3.33-16.5-15.3-16.27a9.28,9.28,0,0,1,2.58.11c5.55.94,11.89,3.66,12.81,14,.74,8.34-7.74,18.13-21.22,29.94-4.87,4.27-13.53,13-13.32,23.84h-.05" transform="translate(-15.11 -17.16)" style="fill:#63696e"/><path d="M193.28,85.15c-.07-.06-2.24-10.56,13.88-24.84,14-12.39,19.78-19.94,20.64-26.92.81-6.63-3.5-16.35-15.34-16.15a10.12,10.12,0,0,1,2.58.13c5.55.94,11.89,3.66,12.81,14,.74,8.34-7.74,18.13-21.22,29.94-4.87,4.27-13.53,13-13.32,23.84h0" transform="translate(-15.11 -17.16)" style="fill:#60666b"/><path d="M193.29,85.15c-.06-.06-2.22-10.52,13.9-24.79,14-12.39,19.77-20,20.63-27,.8-6.63-3.52-16.35-15.36-16.18a11.7,11.7,0,0,1,2.58.16c5.55.94,11.89,3.66,12.81,14,.74,8.34-7.74,18.13-21.22,29.94-4.87,4.27-13.53,13-13.32,23.84h0" transform="translate(-15.11 -17.16)" style="fill:#5d6368"/><path d="M193.3,85.15c-.06-.06-2.22-10.46,13.93-24.75,20.58-18.23,22.62-25.74,19.3-34.79a19.88,19.88,0,0,1,1.32,5.76c.74,8.34-7.74,18.13-21.22,29.94-4.87,4.27-13.53,13-13.32,23.84h0" transform="translate(-15.11 -17.16)" style="fill:#5a6065"/><path d="M193.31,85.15c-.06-.06-2.09-10.51,13.95-24.71,18.75-16.6,21.6-23.8,20.29-31.29q.19,1.05.3,2.22c.74,8.34-7.74,18.13-21.22,29.94-4.87,4.27-13.53,13-13.32,23.84h0" transform="translate(-15.11 -17.16)" style="fill:#575d62"/><path d="M193.31,85.15c.15-8.75,4.33-16.13,14-24.68,14.73-13,20.5-21,20.59-28.31.17,8.16-8.2,17.71-21.26,29.15-4.87,4.27-13.53,13-13.32,23.84" transform="translate(-15.11 -17.16)" style="fill:#555a5e"/><path d="M193.6,81.3c1.52-7.48,5.5-13.5,13.73-20.79,13.5-11.95,19.43-19.61,20.45-26.46-1,7.74-9.09,16.69-21.15,27.26-4.4,3.86-11.89,11.32-13.14,20.75,0-.23.07-.54.11-.76" transform="translate(-15.11 -17.16)" style="fill:#53575b"/><path d="M226.69,32.9c-.64-11.71-7.39-13.28-12.33-14.43.38-.29,6.29.44,9.3,3.93,3.78,4.38,3.16,10.45,3.15,10.5s-.08.18-.11.26c0-.08,0-.18,0-.26" transform="translate(-15.11 -17.16)" style="fill:#b8bec3"/><path d="M194.54,77.66c2.35-6.25,5.94-11,12.82-17.11,12-10.63,18-17.86,19.92-24.2-2.14,7.2-9.76,15.42-20.65,25-3.86,3.38-10.09,9.54-12.41,17.35.1-.3.22-.7.32-1" transform="translate(-15.11 -17.16)" style="fill:#4f5458"/><path d="M226.61,31.48c-.33-2.22-.88-5.95-3.37-8.69-1.35-1.48-3.35-3.13-7.93-4.14-.15,0-.42,0-.51-.12a.09.09,0,0,1,0-.1s5.75.4,8.83,4c3.61,4.22,3.18,10,3.17,10a1.3,1.3,0,0,1-.1.15c0-.33-.06-.76-.11-1.09" transform="translate(-15.11 -17.16)" style="fill:#bac0c6"/><path d="M226.65,31.48c-1.06-7.58-4-11-11-12.8,0,0,.05-.07.08-.08.19-.05,5.26.66,7.88,3.83a14.49,14.49,0,0,1,3.18,9.51.12.12,0,0,1-.1,0c-.12-.08,0-.34-.06-.49" transform="translate(-15.11 -17.16)" style="fill:#bdc2c7"/><path d="M226.66,31.28a6.81,6.81,0,0,1-.2-1.29,18.56,18.56,0,0,0-.91-3.36,12.79,12.79,0,0,0-2.16-3.72,13.07,13.07,0,0,0-6.16-3.84,1.52,1.52,0,0,1-.58-.26c2.4.49,9.68,2,10.12,12.64a1,1,0,0,1-.11-.17" transform="translate(-15.11 -17.16)" style="fill:#c0c4c9"/><path d="M196.87,72.66c7.56-12.77,21.84-19.6,29-32.75-3.23,6.32-10.06,13.4-19.2,21.4-3.1,2.72-7.73,7.23-10.64,13l.68-1.26.2-.34" transform="translate(-15.11 -17.16)" style="fill:#4c5155"/><path d="M226.53,30.21c-1.15-4-1.15-4-1.25-4.28a13,13,0,0,0-1.88-3A12.45,12.45,0,0,0,221,20.82c-1.13-.74-2.44-1.09-3.58-1.8,5.68,1.39,8.69,5.18,9.23,11.57a2.5,2.5,0,0,1-.15-.38" transform="translate(-15.11 -17.16)" style="fill:#c1c6cb"/><path d="M220.62,19.12a19.1,19.1,0,0,0-8.16-1.93,13.07,13.07,0,0,1,2.58.18,18.1,18.1,0,0,1,6.51,2.27h0c-.28-.15-.64-.38-.93-.52" transform="translate(-15.11 -17.16)" style="fill:#5a6065"/><path d="M226.34,29.09c-.74-2.55-1.18-4.09-2.93-6.2A11.94,11.94,0,0,0,221,20.8c-.9-.62-1.94-1-2.87-1.55,4.85,1.31,7.76,4.95,8.39,10.52-.07-.2-.17-.48-.22-.68" transform="translate(-15.11 -17.16)" style="fill:#c3c7cc"/><path d="M226.18,28.28c-1.94-5.61-3.53-6.54-7.37-8.79,4.24,1.34,6.79,4.5,7.58,9.4-.06-.18-.14-.43-.21-.61" transform="translate(-15.11 -17.16)" style="fill:#c4c8cd"/><path d="M218.62,18.27a19.55,19.55,0,0,0-6.16-1.09,13.88,13.88,0,0,1,2.58.19,21.32,21.32,0,0,1,3.79,1h0l-.21-.07" transform="translate(-15.11 -17.16)" style="fill:#575d62"/><path d="M225.75,26.92a12.48,12.48,0,0,0-6.31-7.16A10.45,10.45,0,0,1,226.19,28c-.13-.34-.3-.79-.44-1.12" transform="translate(-15.11 -17.16)" style="fill:#c5cacf"/><path d="M225.81,26.89a13,13,0,0,0-5.73-6.82A10,10,0,0,1,226,27.23a3.45,3.45,0,0,0-.14-.34" transform="translate(-15.11 -17.16)" style="fill:#c7cbd0"/><path d="M225.3,25.65a13.11,13.11,0,0,0-4.63-5.26,9.44,9.44,0,0,1,5,6c-.1-.22-.25-.52-.36-.74" transform="translate(-15.11 -17.16)" style="fill:#c9cdd1"/><path d="M215.55,17.46a15.44,15.44,0,0,0-3.09-.29,14.8,14.8,0,0,1,2.58.2l.53.1h0" transform="translate(-15.11 -17.16)" style="fill:#555a5e"/><path d="M224.73,24.54a13.65,13.65,0,0,0-3.41-3.74,9,9,0,0,1,4,4.81c-.18-.32-.41-.76-.61-1.07" transform="translate(-15.11 -17.16)" style="fill:#cbced2"/><path d="M224.77,24.51a13.85,13.85,0,0,0-2.69-3.16,7.63,7.63,0,0,1,2.78,3.32l-.09-.16" transform="translate(-15.11 -17.16)" style="fill:#cdd0d3"/><path d="M212.94,17.17h0" transform="translate(-15.11 -17.16)" style="fill:#53575b"/><path d="M223.42,22.62a.6.6,0,0,1-.08-.08,3.48,3.48,0,0,1,.26.3l-.18-.22" transform="translate(-15.11 -17.16)" style="fill:#ccd0d4"/></g></g></g><g style="isolation:isolate"><g style="clip-path:url(#clip-path-2)"><g style="isolation:isolate"><path d="M191.85,85.18l1.46,0c-.21,10.87,5.13,17.83,11.84,24,8.38,7.73,20.61,17.67,20.61,26.94,0,10.38-7.77,13.76-14.33,15.31a14.66,14.66,0,0,1-3.42.4c-11.3,0-23.44-12.37-31.19-30.16-5-11.51-10.61-21.31-20.85-21.85l-.64,0c-11.3,0-20.76,14.18-23.9,23.25-6.61,19.11-15.07,29.12-26.07,29.12a20.14,20.14,0,0,1-3.8-.38C91.45,149.8,86,144.08,85.45,137c-.68-9.36,8.33-20,18.06-26.51C109,106.83,120.38,96,120.4,85.15S109,62.9,103.51,59.22C93.78,52.76,82,41.66,85.45,30.05c2.23-7.37,8.55-12,16.78-12v1.47c-7.6,0-13.33,4.19-15.37,10.92-3.22,10.58,8,21.21,17.46,27.53,5.71,3.83,17.5,15.55,17.55,27.15S110,107.91,104.32,111.71C94.87,118,86.26,128.29,86.91,136.9c.46,6.34,5.42,11.55,14.93,13.42a30,30,0,0,0,3.52.36c10.1,0,18.19-9.41,24.69-28.12,3.23-9.38,13-24.2,25.28-24.25l.71,0c11.18.63,17.05,11,22.13,22.73,7.61,17.44,19.35,29.31,29.84,29.28a24,24,0,0,0,3.09-.36c6.21-1.48,13.2-4.55,13.19-13.88.06-8.44-11.78-18.15-20.13-25.86-6.92-6.35-12.54-13.67-12.31-25.06" transform="translate(-15.11 -17.16)" style="fill:#b8bec3"/><path d="M102.23,19.55c-7.6,0-13.33,4.19-15.37,10.92-3.22,10.58,8,21.21,17.46,27.53,5.71,3.83,17.5,15.55,17.55,27.15S110,107.91,104.32,111.71C94.87,118,86.26,128.29,86.91,136.9c.46,6.34,5.42,11.55,14.93,13.42a30,30,0,0,0,3.52.36c10.1,0,18.19-9.41,24.69-28.12,3.23-9.38,13-24.2,25.28-24.25,11.89.65,17.76,11,22.84,22.75,7.61,17.44,19.35,29.31,29.84,29.28a24,24,0,0,0,3.09-.36c6.21-1.48,13.2-4.55,13.19-13.88.06-8.44-11.78-18.15-20.13-25.86-6.92-6.35-12.54-13.67-12.31-25.06.07.49.17,1.15.24,1.64,1,22.94,27.7,28.94,32.63,49.31.1-7.54-6.82-14.38-17.4-24-7-6.34-14.93-13.53-15-27l1,0c-.21,10.87,5.13,17.83,11.84,24,8.38,7.73,20.61,17.67,20.61,26.94,0,10.38-7.77,13.76-14.33,15.31a14.66,14.66,0,0,1-3.42.4c-11.3,0-23.44-12.37-31.19-30.16-5-11.51-10.61-21.31-20.85-21.85C144,99.78,134.57,114,131.43,123c-6.61,19.11-15.07,29.12-26.07,29.12a20.14,20.14,0,0,1-3.8-.38C91.45,149.8,86,144.08,85.45,137c-.68-9.36,8.33-20,18.06-26.51C109,106.83,120.38,96,120.4,85.15S109,62.9,103.51,59.22C93.78,52.76,82,41.66,85.45,30.05c2.23-7.37,8.55-12,16.78-12v1.47" transform="translate(-15.11 -17.16)" style="fill:#b8bec3"/><path d="M102.23,19.55c-7.6,0-13.33,4.19-15.37,10.92-3.22,10.58,8,21.21,17.46,27.53,5.71,3.83,17.5,15.55,17.55,27.15S110,107.91,104.32,111.71C94.87,118,86.26,128.29,86.91,136.9c.46,6.34,5.42,11.55,14.93,13.42a30,30,0,0,0,3.52.36c10.1,0,18.19-9.41,24.69-28.12,3.23-9.38,13-24.2,25.28-24.25,11.89.65,17.76,11,22.84,22.75,7.61,17.44,19.35,29.31,29.84,29.28a24,24,0,0,0,3.09-.36c6.21-1.48,13.2-4.55,13.19-13.88.06-8.44-11.78-18.15-20.13-25.86-6.92-6.35-12.54-13.67-12.31-25.06l.2,1.67c1.32,22.79,29.52,27.93,32.57,49.58,1.48-7.28-9.36-17.1-17.28-24.28-7-6.32-14.89-13.48-15-27l1,0c-.21,10.87,5.13,17.83,11.84,24,8.38,7.73,20.61,17.67,20.61,26.94,0,10.38-7.77,13.76-14.33,15.31a14.66,14.66,0,0,1-3.42.4c-11.3,0-23.44-12.37-31.19-30.16-5-11.51-10.61-21.31-20.85-21.85C144,99.78,134.57,114,131.43,123c-6.61,19.11-15.07,29.12-26.07,29.12a20.14,20.14,0,0,1-3.8-.38C91.45,149.8,86,144.08,85.45,137c-.68-9.36,8.33-20,18.06-26.51C109,106.83,120.38,96,120.4,85.15S109,62.9,103.51,59.22C93.78,52.76,82,41.66,85.45,30.05c2.23-7.37,8.55-12,16.78-12v1.47" transform="translate(-15.11 -17.16)" style="fill:#b6bcc2"/><path d="M102.23,19.55c-7.6,0-13.33,4.19-15.37,10.92-3.22,10.58,8,21.21,17.46,27.53,5.71,3.83,17.5,15.55,17.55,27.15S110,107.91,104.32,111.71C94.87,118,86.26,128.29,86.91,136.9c.46,6.34,5.42,11.55,14.93,13.42a30,30,0,0,0,3.52.36c10.1,0,18.19-9.41,24.69-28.12,3.23-9.38,13-24.2,25.28-24.25,11.89.65,17.76,11,22.84,22.75,7.61,17.44,19.35,29.31,29.84,29.28a24,24,0,0,0,3.09-.36c6.21-1.48,13.2-4.55,13.19-13.88.06-8.44-11.78-18.15-20.13-25.86-6.92-6.35-12.54-13.67-12.31-25.06l.17,1.67c.7,12,6.39,18,14.35,25.26,11.12,10.09,17.89,16.78,18.12,24.61,1.56-7.65-8.37-16.64-17.14-24.58-7-6.3-14.84-13.45-15-27l1,0c-.21,10.87,5.13,17.83,11.84,24,8.38,7.73,20.61,17.67,20.61,26.94,0,10.38-7.77,13.76-14.33,15.31a14.66,14.66,0,0,1-3.42.4c-11.3,0-23.44-12.37-31.19-30.16-5-11.51-10.61-21.31-20.85-21.85C144,99.78,134.57,114,131.43,123c-6.61,19.11-15.07,29.12-26.07,29.12a20.14,20.14,0,0,1-3.8-.38C91.45,149.8,86,144.08,85.45,137c-.68-9.36,8.33-20,18.06-26.51C109,106.83,120.38,96,120.4,85.15S109,62.9,103.51,59.22C93.78,52.76,82,41.66,85.45,30.05c2.23-7.37,8.55-12,16.78-12v1.47" transform="translate(-15.11 -17.16)" style="fill:#b3bac0"/><path d="M102.23,19.2v.16c-7.6.2-13.33,4.38-15.37,11.11-3.22,10.58,8,21.21,17.46,27.53,5.71,3.83,17.5,15.55,17.55,27.15S110,107.91,104.32,111.71C94.87,118,86.26,128.29,86.91,136.9c.46,6.34,5.42,11.55,14.93,13.42a30,30,0,0,0,3.52.36c10.1,0,18.19-9.41,24.69-28.12,3.23-9.38,13-24.2,25.28-24.25,11.89.65,17.76,11,22.84,22.75,7.61,17.44,19.35,29.31,29.84,29.28a24,24,0,0,0,3.09-.36c6.21-1.48,13.2-4.55,13.19-13.88.06-8.44-11.78-18.15-20.13-25.86-6.92-6.35-12.54-13.67-12.31-25.06,0,.5.1,1.17.15,1.67.69,12,6.39,18.05,14.36,25.27,13.89,12.6,18.44,18.13,18,26,3.18-7.75-8.5-18.32-17-26-7.28-6.59-14.8-13.4-15-26.95l.94,0c-.21,10.87,5.13,17.83,11.84,24,8.38,7.73,20.61,17.67,20.61,26.94,0,10.38-7.77,13.76-14.33,15.31a14.66,14.66,0,0,1-3.42.4c-11.3,0-23.44-12.37-31.19-30.16-5-11.51-10.61-21.31-20.85-21.85C144,99.78,134.57,114,131.43,123c-6.61,19.11-15.07,29.12-26.07,29.12a20.14,20.14,0,0,1-3.8-.38C91.45,149.8,86,144.08,85.45,137c-.68-9.36,8.33-20,18.06-26.51C109,106.83,120.38,96,120.4,85.15S109,62.9,103.51,59.22C93.78,52.76,82,41.66,85.45,30.05c2.23-7.37,8.55-12,16.78-12V19.2" transform="translate(-15.11 -17.16)" style="fill:#b1b7be"/><path d="M102.23,19.11c-.18.21-.65.09-.92.13l.92.15c-7.6.17-13.33,4.35-15.37,11.08-3.22,10.58,8,21.21,17.46,27.53,5.71,3.83,17.5,15.55,17.55,27.15S110,107.91,104.32,111.71C94.87,118,86.26,128.29,86.91,136.9c.46,6.34,5.42,11.55,14.93,13.42a30,30,0,0,0,3.52.36c10.1,0,18.19-9.41,24.69-28.12,3.23-9.38,13-24.2,25.28-24.25,11.89.65,17.76,11,22.84,22.75,7.61,17.44,19.35,29.31,29.84,29.28a24,24,0,0,0,3.09-.36c6.21-1.48,13.2-4.55,13.19-13.88.06-8.44-11.78-18.15-20.13-25.86-6.92-6.35-12.54-13.67-12.31-25.06,0,.5.09,1.17.13,1.67.69,12,6.39,18.05,14.37,25.29,15.11,13.7,18.47,18.65,18,26.43,3.66-7.8-8.73-19-16.94-26.46-8.57-7.77-14.66-14.24-15-26.94l.91,0c-.21,10.87,5.13,17.83,11.84,24,8.38,7.73,20.61,17.67,20.61,26.94,0,10.38-7.77,13.76-14.33,15.31a14.66,14.66,0,0,1-3.42.4c-11.3,0-23.44-12.37-31.19-30.16-5-11.51-10.61-21.31-20.85-21.85C144,99.78,134.57,114,131.43,123c-6.61,19.11-15.07,29.12-26.07,29.12a20.14,20.14,0,0,1-3.8-.38C91.45,149.8,86,144.08,85.45,137c-.68-9.36,8.33-20,18.06-26.51C109,106.83,120.38,96,120.4,85.15S109,62.9,103.51,59.22C93.78,52.76,82,41.66,85.45,30.05c2.23-7.37,8.55-12,16.78-12v1" transform="translate(-15.11 -17.16)" style="fill:#afb5bb"/><path d="M102.23,19.07c-.46.49-1.56.21-2.21.38a21.55,21.55,0,0,1,2.21,0c-7.6.14-13.33,4.32-15.37,11-3.22,10.58,8,21.21,17.46,27.53,5.71,3.83,17.5,15.55,17.55,27.15S110,107.91,104.32,111.71C94.87,118,86.26,128.29,86.91,136.9c.46,6.34,5.42,11.55,14.93,13.42a30,30,0,0,0,3.52.36c10.1,0,18.19-9.41,24.69-28.12,3.23-9.38,13-24.2,25.28-24.25,11.89.65,17.76,11,22.84,22.75,7.61,17.44,19.35,29.31,29.84,29.28a24,24,0,0,0,3.09-.36c6.21-1.48,13.2-4.55,13.19-13.88.06-8.44-11.78-18.15-20.13-25.86-6.92-6.35-12.54-13.67-12.31-25.06l.1,1.67c.7,12,6.4,18.06,14.39,25.3,14.75,13.38,19.13,18.93,17.76,27.57,3.47-8.48-4.73-16.8-16.7-27.64-7-6.33-14.92-13.51-15-26.91l.88,0c-.21,10.87,5.13,17.83,11.84,24,8.38,7.73,20.61,17.67,20.61,26.94,0,10.38-7.77,13.76-14.33,15.31a14.66,14.66,0,0,1-3.42.4c-11.3,0-23.44-12.37-31.19-30.16-5-11.51-10.61-21.31-20.85-21.85C144,99.78,134.57,114,131.43,123c-6.61,19.11-15.07,29.12-26.07,29.12a20.14,20.14,0,0,1-3.8-.38C91.45,149.8,86,144.08,85.45,137c-.68-9.36,8.33-20,18.06-26.51C109,106.83,120.38,96,120.4,85.15S109,62.9,103.51,59.22C93.78,52.76,82,41.66,85.45,30.05c2.23-7.37,8.55-12,16.78-12v1" transform="translate(-15.11 -17.16)" style="fill:#acb2b9"/><path d="M102.23,19c-.79.84-1.82.15-2.7.42.9,0,1.8,0,2.7,0-7.6.11-13.33,4.29-15.37,11-3.22,10.58,8,21.21,17.46,27.53,5.71,3.83,17.5,15.55,17.55,27.15S110,107.91,104.32,111.71C94.87,118,86.26,128.29,86.91,136.9c.46,6.34,5.42,11.55,14.93,13.42a30,30,0,0,0,3.52.36c10.1,0,18.19-9.41,24.69-28.12,3.23-9.38,13-24.2,25.28-24.25,11.89.65,17.76,11,22.84,22.75,7.61,17.44,19.35,29.31,29.84,29.28a24,24,0,0,0,3.09-.36c6.21-1.48,13.2-4.55,13.19-13.88.06-8.44-11.78-18.15-20.13-25.86-6.92-6.35-12.54-13.67-12.31-25.06,0,.5.05,1.17.08,1.67.69,12,6.4,18.06,14.39,25.31,16.5,15,19.58,20.1,17.39,28.93,4.58-9.11-3.86-17.78-16.29-29-8.62-7.81-14.75-14.31-15-26.89l.85,0c-.21,10.87,5.13,17.83,11.84,24,8.38,7.73,20.61,17.67,20.61,26.94,0,10.38-7.77,13.76-14.33,15.31a14.66,14.66,0,0,1-3.42.4c-11.3,0-23.44-12.37-31.19-30.16-5-11.51-10.61-21.31-20.85-21.85C144,99.78,134.57,114,131.43,123c-6.61,19.11-15.07,29.12-26.07,29.12a20.14,20.14,0,0,1-3.8-.38C91.45,149.8,86,144.08,85.45,137c-.68-9.36,8.33-20,18.06-26.51C109,106.83,120.38,96,120.4,85.15S109,62.9,103.51,59.22C93.78,52.76,82,41.66,85.45,30.05c2.23-7.37,8.55-12,16.78-12v1" transform="translate(-15.11 -17.16)" style="fill:#a8afb6"/><path d="M102.23,19a14.69,14.69,0,0,0-4.29.77,27.77,27.77,0,0,1,4.29-.29c-7.6.08-13.33,4.26-15.37,11-3.22,10.58,8,21.21,17.46,27.53,5.71,3.83,17.5,15.55,17.55,27.15S110,107.91,104.32,111.71C94.87,118,86.26,128.29,86.91,136.9c.46,6.34,5.42,11.55,14.93,13.42a30,30,0,0,0,3.52.36c10.1,0,18.19-9.41,24.69-28.12,3.23-9.38,13-24.2,25.28-24.25,11.89.65,17.76,11,22.84,22.75,7.61,17.44,19.35,29.31,29.84,29.28a24,24,0,0,0,3.09-.36c6.21-1.48,13.2-4.55,13.19-13.88.06-8.44-11.78-18.15-20.13-25.86-6.92-6.35-12.54-13.67-12.31-25.06,0,.5,0,1.17.05,1.68.7,12,6.42,18.06,14.41,25.31,15.87,14.39,20.29,20.38,17,29.83,5.4-9.59-2.79-18.09-15.9-30-7.25-6.56-14.73-13.34-15-26.87l.82,0c-.21,10.87,5.13,17.83,11.84,24,8.38,7.73,20.61,17.67,20.61,26.94,0,10.38-7.77,13.76-14.33,15.31a14.66,14.66,0,0,1-3.42.4c-11.3,0-23.44-12.37-31.19-30.16-5-11.51-10.61-21.31-20.85-21.85C144,99.78,134.57,114,131.43,123c-6.61,19.11-15.07,29.12-26.07,29.12a20.14,20.14,0,0,1-3.8-.38C91.45,149.8,86,144.08,85.45,137c-.68-9.36,8.33-20,18.06-26.51C109,106.83,120.38,96,120.4,85.15S109,62.9,103.51,59.22C93.78,52.76,82,41.66,85.45,30.05c2.23-7.37,8.55-12,16.78-12V19" transform="translate(-15.11 -17.16)" style="fill:#a3aab1"/><path d="M102.23,19c-1.69,1.81-4.06.58-6,1.33a22.92,22.92,0,0,1,6-.78c-7.6,0-13.33,4.22-15.37,11-3.22,10.58,8,21.21,17.46,27.53,5.71,3.83,17.5,15.55,17.55,27.15S110,107.91,104.32,111.71C94.87,118,86.26,128.29,86.91,136.9c.46,6.34,5.42,11.55,14.93,13.42a30,30,0,0,0,3.52.36c10.1,0,18.19-9.41,24.69-28.12,3.23-9.38,13-24.2,25.28-24.25,11.89.65,17.76,11,22.84,22.75,7.61,17.44,19.35,29.31,29.84,29.28a24,24,0,0,0,3.09-.36c6.21-1.48,13.2-4.55,13.19-13.88.06-8.44-11.78-18.15-20.13-25.86-6.92-6.35-12.54-13.67-12.31-25.06,0,.5,0,1.17,0,1.68.7,12,6.42,18.06,14.42,25.32,15.21,13.8,21,20.44,16.62,30.68C230,132.41,218.54,122,207.47,112c-7.25-6.56-14.74-13.34-14.94-26.84l.78,0c-.21,10.87,5.13,17.83,11.84,24,8.38,7.73,20.61,17.67,20.61,26.94,0,10.38-7.77,13.76-14.33,15.31a14.66,14.66,0,0,1-3.42.4c-11.3,0-23.44-12.37-31.19-30.16-5-11.51-10.61-21.31-20.85-21.85C144,99.78,134.57,114,131.43,123c-6.61,19.11-15.07,29.12-26.07,29.12a20.14,20.14,0,0,1-3.8-.38C91.45,149.8,86,144.08,85.45,137c-.68-9.36,8.33-20,18.06-26.51C109,106.83,120.38,96,120.4,85.15S109,62.9,103.51,59.22C93.78,52.76,82,41.66,85.45,30.05c2.23-7.37,8.55-12,16.78-12V19" transform="translate(-15.11 -17.16)" style="fill:#9ea5ac"/><path d="M102.23,18.94c-11.46.71-26.12,14.71-5.54,33.19,21,18.88,21,18.88,23.45,25,1.46,3.68,4.5,11.33-4.25,23.34-7.65,10.49-21,15.43-26.92,27.61-5.43,11.14,1.16,17,4.25,19A25,25,0,0,0,105,150.67c9.88.28,18.84-9.45,25.22-27.4,7.61-21.4,19.79-24.43,23.34-24.85,13.86-1.64,20.8,14.09,23.76,20.8,13.7,31.07,28.6,31.34,31.44,31.08,6.87-.63,16.86-5.25,16.22-15.38-.47-7.48-9.93-16-17.53-22.93-7.25-6.56-14.74-13.35-14.93-26.82l.75,0c-.21,10.87,5.13,17.83,11.84,24,8.38,7.73,20.61,17.67,20.61,26.94,0,10.38-7.77,13.76-14.33,15.31a14.66,14.66,0,0,1-3.42.4c-11.3,0-23.44-12.37-31.19-30.16-5-11.51-10.61-21.31-20.85-21.85C144,99.78,134.57,114,131.43,123c-6.61,19.11-15.07,29.12-26.07,29.12a20.14,20.14,0,0,1-3.8-.38C91.45,149.8,86,144.08,85.45,137c-.68-9.36,8.33-20,18.06-26.51C109,106.83,120.38,96,120.4,85.15S109,62.9,103.51,59.22C93.78,52.76,82,41.66,85.45,30.05c2.23-7.37,8.55-12,16.78-12v.86" transform="translate(-15.11 -17.16)" style="fill:#919aa1"/><path d="M102.23,18.89c-.2.22-.68.05-1,.06-7.41.44-13.94,6.36-14.87,13.5C84.93,43.57,97.93,53.7,103.58,57.54c8.12,5.51,17,16,18.11,25.43,3.43,27.62-35.61,27.57-34.83,53.47.32,10.65,13,14.59,19.33,14.25,9.72-.51,17.83-9.73,24.12-27.4,6.43-18.09,20.92-31.77,35.1-21.51,4.18,3,8.08,8.73,11.92,17.46C189.6,147,205.7,157,220.42,145.8c13.32-10.1-3.09-25-12.9-33.84-7.24-6.56-14.74-13.34-14.92-26.79.5,10.85,5.84,17.81,12.55,24,8.38,7.73,20.61,17.67,20.61,26.94,0,10.38-7.77,13.76-14.33,15.31a14.66,14.66,0,0,1-3.42.4c-11.3,0-23.44-12.37-31.19-30.16-5-11.51-10.61-21.31-20.85-21.85C144,99.78,134.57,114,131.43,123c-6.61,19.11-15.07,29.12-26.07,29.12a20.14,20.14,0,0,1-3.8-.38C91.45,149.8,86,144.08,85.45,137c-.68-9.36,8.33-20,18.06-26.51C109,106.83,120.38,96,120.4,85.15S109,62.9,103.51,59.22C93.78,52.76,82,41.66,85.45,30.05c2.23-7.37,8.55-12,16.78-12v.81" transform="translate(-15.11 -17.16)" style="fill:#8e979e"/><path d="M102.23,18.85c-.22.24-.76,0-1.09.07-7.35.44-13.85,6.38-14.78,13.52C84.9,43.58,97.91,53.72,103.57,57.56c6.09,4.13,17.73,15.12,18.23,27.15,1.07,25.85-35.74,26.09-35,51.73.32,10.65,13,14.61,19.36,14.29,9.73-.5,17.86-9.73,24.16-27.42,6.52-18.32,21.41-31.38,35.05-21.51,4.17,3,8.06,8.73,11.91,17.45,12.29,27.84,28.41,37.8,43.15,26.62,13.38-10.15-3.72-25.63-12.91-33.95-7.22-6.53-14.69-13.3-14.92-26.75.47,10.85,5.81,17.81,12.52,24,8.38,7.73,20.61,17.67,20.61,26.94,0,10.38-7.77,13.76-14.33,15.31a14.66,14.66,0,0,1-3.42.4c-11.3,0-23.44-12.37-31.19-30.16-5-11.51-10.61-21.31-20.85-21.85C144,99.78,134.57,114,131.43,123c-6.61,19.11-15.07,29.12-26.07,29.12a20.14,20.14,0,0,1-3.8-.38C91.45,149.8,86,144.08,85.45,137c-.68-9.36,8.33-20,18.06-26.51C109,106.83,120.38,96,120.4,85.15S109,62.9,103.51,59.22C93.78,52.76,82,41.66,85.45,30.05c2.23-7.37,8.55-12,16.78-12v.77" transform="translate(-15.11 -17.16)" style="fill:#8a939b"/><path d="M102.23,18.81c-.22.24-.77,0-1.09.06A16.18,16.18,0,0,0,86.33,32.43c-1.47,11.16,11.56,21.3,17.23,25.15,8.11,5.51,16.92,16,18.08,25.4C125,110.58,86,110.55,86.8,136.44c.32,10.65,13,14.64,19.39,14.32,9.75-.49,17.89-9.72,24.21-27.44,6.12-17.2,20-30.89,33.73-22.35,6.29,3.92,10.52,12.31,13.16,18.29,12.3,27.88,28.46,37.85,43.24,26.64,13.4-10.16-3.74-25.68-12.94-34-7.2-6.52-14.64-13.25-14.91-26.73.42,10.86,5.76,17.82,12.47,24,8.38,7.73,20.61,17.67,20.61,26.94,0,10.38-7.77,13.76-14.33,15.31a14.66,14.66,0,0,1-3.42.4c-11.3,0-23.44-12.37-31.19-30.16-5-11.51-10.61-21.31-20.85-21.85C144,99.78,134.57,114,131.43,123c-6.61,19.11-15.07,29.12-26.07,29.12a20.14,20.14,0,0,1-3.8-.38C91.45,149.8,86,144.08,85.45,137c-.68-9.36,8.33-20,18.06-26.51C109,106.83,120.38,96,120.4,85.15S109,62.9,103.51,59.22C93.78,52.76,82,41.66,85.45,30.05c2.23-7.37,8.55-12,16.78-12v.73" transform="translate(-15.11 -17.16)" style="fill:#879097"/><path d="M102.23,18.76c-.23.25-.77,0-1.11.07A16,16,0,0,0,86.3,32.42C84.83,43.59,97.87,53.75,103.54,57.6c6.09,4.13,17.72,15.11,18.2,27.11,1.05,25.83-35.74,26.09-35,51.73.32,10.66,13,14.66,19.42,14.35,9.79-.47,17.94-9.71,24.25-27.45,5.28-14.87,17.05-28.7,30.4-23.94,6.29,2.24,11.35,8.37,16.42,19.87,6.18,14,19.32,36.48,37.9,29.66,15.73-5.77,13.65-17.83-6.18-35.84-8.67-7.88-16.16-14.68-16.24-27.93.36,10.86,5.7,17.82,12.41,24,8.38,7.73,20.61,17.67,20.61,26.94,0,10.38-7.77,13.76-14.33,15.31a14.66,14.66,0,0,1-3.42.4c-11.3,0-23.44-12.37-31.19-30.16-5-11.51-10.61-21.31-20.85-21.85C144,99.78,134.57,114,131.43,123c-6.61,19.11-15.07,29.12-26.07,29.12a20.14,20.14,0,0,1-3.8-.38C91.45,149.8,86,144.08,85.45,137c-.68-9.36,8.33-20,18.06-26.51C109,106.83,120.38,96,120.4,85.15S109,62.9,103.51,59.22C93.78,52.76,82,41.66,85.45,30.05c2.23-7.37,8.55-12,16.78-12v.68" transform="translate(-15.11 -17.16)" style="fill:#848d94"/><path d="M102.23,18.71c-.21.23-.73,0-1,.06A16.16,16.16,0,0,0,86.27,32.42C84.8,43.6,97.85,53.77,103.53,57.62c6.08,4.13,17.71,15.1,18.19,27.09,1,25.82-35.75,26.09-35,51.74.32,10.65,13,14.68,19.46,14.37,9.8-.46,18-9.7,24.29-27.46,5.29-14.85,17-28.67,30.35-23.93,6.27,2.23,11.33,8.35,16.4,19.85,6.19,14,19.34,36.52,37.93,29.69,15.78-5.79,13.7-17.88-6.16-35.92-8.93-8.12-16-14.53-16.22-27.89.31,10.86,5.65,17.82,12.36,24,8.38,7.73,20.61,17.67,20.61,26.94,0,10.38-7.77,13.76-14.33,15.31a14.66,14.66,0,0,1-3.42.4c-11.3,0-23.44-12.37-31.19-30.16-5-11.51-10.61-21.31-20.85-21.85C144,99.78,134.57,114,131.43,123c-6.61,19.11-15.07,29.12-26.07,29.12a20.14,20.14,0,0,1-3.8-.38C91.45,149.8,86,144.08,85.45,137c-.68-9.36,8.33-20,18.06-26.51C109,106.83,120.38,96,120.4,85.15S109,62.9,103.51,59.22C93.78,52.76,82,41.66,85.45,30.05c2.23-7.37,8.55-12,16.78-12v.63" transform="translate(-15.11 -17.16)" style="fill:#838a91"/><path d="M102.23,18.64c-.22.24-.75.05-1.07.07a16.17,16.17,0,0,0-14.92,13.7c-1.48,11.2,11.59,21.38,17.27,25.23,7.72,5.24,19.45,17.88,18.06,29.49-2.73,22.72-35.61,24.13-34.85,49.32.32,10.66,13,14.7,19.48,14.41,10-.46,17.92-9.45,24.34-27.49,5-14,15.64-27,28.2-24.51,7.17,1.42,12.87,7.72,18.48,20.43,7.5,17,20.18,36,38,29.73,7.22-2.54,21.2-11-4.76-34.74-10.83-9.9-17.37-15.88-17.57-29.12.24,10.86,5.58,17.82,12.29,24,8.38,7.73,20.61,17.67,20.61,26.94,0,10.38-7.77,13.76-14.33,15.31a14.66,14.66,0,0,1-3.42.4c-11.3,0-23.44-12.37-31.19-30.16-5-11.51-10.61-21.31-20.85-21.85C144,99.78,134.57,114,131.43,123c-6.61,19.11-15.07,29.12-26.07,29.12a20.14,20.14,0,0,1-3.8-.38C91.45,149.8,86,144.08,85.45,137c-.68-9.36,8.33-20,18.06-26.51C109,106.83,120.38,96,120.4,85.15S109,62.9,103.51,59.22C93.78,52.76,82,41.66,85.45,30.05c2.23-7.37,8.55-12,16.78-12v.56" transform="translate(-15.11 -17.16)" style="fill:#7f878e"/><path d="M102.23,18.58c-.23.25-.79.05-1.13.07A16.15,16.15,0,0,0,86.27,32C84.8,43.16,96.43,52.87,103.5,57.66c8,5.41,19.34,17.71,18,29.47C119,110,85.93,111.27,86.69,136.45c.32,10.76,12.86,14.71,19.5,14.44,10-.4,18-9.4,24.41-27.5,5-14,15.61-27,28.13-24.5,7.17,1.41,12.86,7.71,18.47,20.41,10.43,23.64,23.94,34.61,37.06,30.09,9.31-3.21,21.27-12-3.24-34.61-12-11.08-18-16.64-18.1-29.62.18,10.86,5.52,17.82,12.23,24,8.38,7.73,20.61,17.67,20.61,26.94,0,10.38-7.77,13.76-14.33,15.31a14.66,14.66,0,0,1-3.42.4c-11.3,0-23.44-12.37-31.19-30.16-5-11.51-10.61-21.31-20.85-21.85C144,99.78,134.57,114,131.43,123c-6.61,19.11-15.07,29.12-26.07,29.12a20.14,20.14,0,0,1-3.8-.38C91.45,149.8,86,144.08,85.45,137c-.68-9.36,8.33-20,18.06-26.51C109,106.83,120.38,96,120.4,85.15S109,62.9,103.51,59.22C93.78,52.76,82,41.66,85.45,30.05c2.23-7.37,8.55-12,16.78-12v.5" transform="translate(-15.11 -17.16)" style="fill:#7d848a"/><path d="M102.23,18.52c-.22.23-.73,0-1,.06a16.08,16.08,0,0,0-15,13.79c-1.48,11.24,11.62,21.45,17.31,25.31,7.72,5.24,19.44,17.86,18,29.44-2.79,22.67-35.6,24.15-34.84,49.33.32,10.77,12.88,14.75,19.53,14.49,9.88-.4,18.11-9.66,24.47-27.52,5.19-14.61,16.84-28.32,30.15-23.92,8,2.65,13.17,12.58,16.36,19.81,10.45,23.67,24,34.65,37.1,30.12,9.33-3.22,21.32-12-3.23-34.68C198.72,103.38,193.1,98.18,193,85.16c.13,10.86,5.47,17.82,12.18,24,8.38,7.73,20.61,17.67,20.61,26.94,0,10.38-7.77,13.76-14.33,15.31a14.66,14.66,0,0,1-3.42.4c-11.3,0-23.44-12.37-31.19-30.16-5-11.51-10.61-21.31-20.85-21.85C144,99.78,134.57,114,131.43,123c-6.61,19.11-15.07,29.12-26.07,29.12a20.14,20.14,0,0,1-3.8-.38C91.45,149.8,86,144.08,85.45,137c-.68-9.36,8.33-20,18.06-26.51C109,106.83,120.38,96,120.4,85.15S109,62.9,103.51,59.22C93.78,52.76,82,41.66,85.45,30.05c2.23-7.37,8.55-12,16.78-12v.44" transform="translate(-15.11 -17.16)" style="fill:#798187"/><path d="M102.23,18.46c-.22.23-.74,0-1,.06A16.09,16.09,0,0,0,86.13,32.36c-1.49,11.26,11.63,21.48,17.34,25.35,5.86,4,20.48,17.32,17.7,31.09-4.27,21.14-35.3,22.87-34.56,47.65.32,10.66,13.12,14.78,19.58,14.53,9.91-.39,18.16-9.66,24.53-27.54,5.25-14.77,16.9-28.55,30.08-23.9,6.23,2.2,11.27,8.3,16.34,19.78,7.51,17,20.22,36,38.1,29.82,7.24-2.5,21.32-10.86-4.18-34.41-12.3-11.37-17.92-16.56-18-29.57.08,10.86,5.42,17.82,12.13,24,8.38,7.73,20.61,17.67,20.61,26.94,0,10.38-7.77,13.76-14.33,15.31a14.66,14.66,0,0,1-3.42.4c-11.3,0-23.44-12.37-31.19-30.16-5-11.51-10.61-21.31-20.85-21.85C144,99.78,134.57,114,131.43,123c-6.61,19.11-15.07,29.12-26.07,29.12a20.14,20.14,0,0,1-3.8-.38C91.45,149.8,86,144.08,85.45,137c-.68-9.36,8.33-20,18.06-26.51C109,106.83,120.38,96,120.4,85.15S109,62.9,103.51,59.22C93.78,52.76,82,41.66,85.45,30.05c2.23-7.37,8.55-12,16.78-12v.38" transform="translate(-15.11 -17.16)" style="fill:#777d84"/><path d="M102.23,18.41c-.21.22-.7,0-1,.05A16.33,16.33,0,0,0,86.09,32.35C84.6,43.63,97.73,53.86,103.45,57.74s20.46,17.31,17.68,31.05c-4.28,21.14-35.3,22.88-34.56,47.66.32,10.69,13.15,14.82,19.62,14.57,10.08-.39,18.12-9.41,24.58-27.56,4.6-12.93,16.76-29.81,31.4-23.32,7.2,3.2,12,12.49,14.94,19.2,7.52,17,20.25,36,38.14,29.85,7.25-2.51,21.36-10.89-4.17-34.48-12.29-11.35-17.9-16.53-18-29.55,0,10.86,5.38,17.82,12.09,24,8.38,7.73,20.61,17.67,20.61,26.94,0,10.38-7.77,13.76-14.33,15.31a14.66,14.66,0,0,1-3.42.4c-11.3,0-23.44-12.37-31.19-30.16-5-11.51-10.61-21.31-20.85-21.85C144,99.78,134.57,114,131.43,123c-6.61,19.11-15.07,29.12-26.07,29.12a20.14,20.14,0,0,1-3.8-.38C91.45,149.8,86,144.08,85.45,137c-.68-9.36,8.33-20,18.06-26.51C109,106.83,120.38,96,120.4,85.15S109,62.9,103.51,59.22C93.78,52.76,82,41.66,85.45,30.05c2.23-7.37,8.55-12,16.78-12v.33" transform="translate(-15.11 -17.16)" style="fill:#737a82"/><path d="M102.23,18.36c-.22.23-.75,0-1.07.06A16.1,16.1,0,0,0,86.05,32.34c-1.5,11.3,11.65,21.55,17.37,25.43s20.45,17.29,17.67,31c-4.28,21.14-35.29,22.89-34.55,47.67.32,10.84,13,14.87,19.65,14.61,10.11-.38,18.17-9.41,24.64-27.58,3.69-10.38,13.72-27.2,27.86-24.45,7.12,1.39,12.79,7.66,18.38,20.33,7.54,17.06,20.28,36.1,38.2,29.89,7.27-2.52,21.4-10.93-4.17-34.55-12.31-11.37-17.92-16.56-18-29.54,0,10.86,5.34,17.82,12.05,24,8.38,7.73,20.61,17.67,20.61,26.94,0,10.38-7.77,13.76-14.33,15.31a14.66,14.66,0,0,1-3.42.4c-11.3,0-23.44-12.37-31.19-30.16-5-11.51-10.61-21.31-20.85-21.85C144,99.78,134.57,114,131.43,123c-6.61,19.11-15.07,29.12-26.07,29.12a20.14,20.14,0,0,1-3.8-.38C91.45,149.8,86,144.08,85.45,137c-.68-9.36,8.33-20,18.06-26.51C109,106.83,120.38,96,120.4,85.15S109,62.9,103.51,59.22C93.78,52.76,82,41.66,85.45,30.05c2.23-7.37,8.55-12,16.78-12v.28" transform="translate(-15.11 -17.16)" style="fill:#71777f"/><path d="M102.23,18.32c-.22.23-.75,0-1.07.05A16.24,16.24,0,0,0,86.09,31.84c-3.79,28.43,40.74,26.84,35.06,56.44-4.1,21.41-35.39,23.27-34.65,48.17.32,10.79,13,14.87,19.68,14.66,10.12-.32,18.2-9.35,24.7-27.61,4.79-13.44,15.53-26.82,27.81-24.43,7.1,1.38,12.76,7.64,18.35,20.3,4.93,11.17,18.44,36.48,37.3,30.25,5.9-2,23.19-10.13-1.83-33.64-14.89-14-19.38-18.21-19.37-30.82,0,10.86,5.3,17.82,12,24,8.38,7.73,20.61,17.67,20.61,26.94,0,10.38-7.77,13.76-14.33,15.31a14.66,14.66,0,0,1-3.42.4c-11.3,0-23.44-12.37-31.19-30.16-5-11.51-10.61-21.31-20.85-21.85C144,99.78,134.57,114,131.43,123c-6.61,19.11-15.07,29.12-26.07,29.12a20.14,20.14,0,0,1-3.8-.38C91.45,149.8,86,144.08,85.45,137c-.68-9.36,8.33-20,18.06-26.51C109,106.83,120.38,96,120.4,85.15S109,62.9,103.51,59.22C93.78,52.76,82,41.66,85.45,30.05c2.23-7.37,8.55-12,16.78-12v.24" transform="translate(-15.11 -17.16)" style="fill:#6e757b"/><path d="M102.23,18.28c-.22.24-.76,0-1.09,0A16.09,16.09,0,0,0,86,32.26c-1.52,11.39,11.67,21.68,17.41,25.57,9,6.07,18.32,17.8,18.05,27.58-.69,24.53-35.73,25.51-35,51,.33,10.83,13,14.93,19.73,14.73,10.13-.32,18.23-9.36,24.75-27.66,3.67-10.28,13.63-27,27.73-24.4,9.06,1.66,14.56,11.71,18.35,20.28,10.44,23.65,24.05,34.69,37.35,30.29,5.9-2,23.22-10.17-1.84-33.72C197.69,102,193.21,97.82,193.17,85.15c-.07,10.87,5.27,17.83,12,24,8.38,7.73,20.61,17.67,20.61,26.94,0,10.38-7.77,13.76-14.33,15.31a14.66,14.66,0,0,1-3.42.4c-11.3,0-23.44-12.37-31.19-30.16-5-11.51-10.61-21.31-20.85-21.85C144,99.78,134.57,114,131.43,123c-6.61,19.11-15.07,29.12-26.07,29.12a20.14,20.14,0,0,1-3.8-.38C91.45,149.8,86,144.08,85.45,137c-.68-9.36,8.33-20,18.06-26.51C109,106.83,120.38,96,120.4,85.15S109,62.9,103.51,59.22C93.78,52.76,82,41.66,85.45,30.05c2.23-7.37,8.55-12,16.78-12v.2" transform="translate(-15.11 -17.16)" style="fill:#6b7178"/><path d="M102.23,18.24c-.23.24-.77,0-1.09.05a16.09,16.09,0,0,0-15.22,14C84.39,43.66,97.61,54,103.36,57.86S123.75,75.09,121,88.72c-4.34,21.1-35.28,23-34.55,47.73.32,10.86,13,15,19.78,14.77,10.15-.31,18.26-9.37,24.8-27.69,4.76-13.37,15.46-26.7,27.67-24.37,7.08,1.35,12.73,7.59,18.32,20.24,10.47,23.69,24.1,34.75,37.41,30.33,5.91-2,23.25-10.19-1.85-33.77C197.7,102,193.22,97.81,193.2,85.15c-.1,10.87,5.24,17.83,12,24,8.38,7.73,20.61,17.67,20.61,26.94,0,10.38-7.77,13.76-14.33,15.31a14.66,14.66,0,0,1-3.42.4c-11.3,0-23.44-12.37-31.19-30.16-5-11.51-10.61-21.31-20.85-21.85C144,99.78,134.57,114,131.43,123c-6.61,19.11-15.07,29.12-26.07,29.12a20.14,20.14,0,0,1-3.8-.38C91.45,149.8,86,144.08,85.45,137c-.68-9.36,8.33-20,18.06-26.51C109,106.83,120.38,96,120.4,85.15S109,62.9,103.51,59.22C93.78,52.76,82,41.66,85.45,30.05c2.23-7.37,8.55-12,16.78-12v.16" transform="translate(-15.11 -17.16)" style="fill:#696f75"/><path d="M102.23,18.21c-14,.73-25.4,16.68-5.88,34.25,21.11,19,21.11,19,23.34,24.81,1.54,4,4.4,11.47-4.89,23.32-7.83,10-20.55,15.23-26.43,27.13-4.43,9-.81,15.88,3.64,19.06a25.36,25.36,0,0,0,13,4.47c10.7.38,19.2-8.68,26-27.71,4.75-13.33,13.82-23.16,22.55-24.48,13.47-2,20.65,14.24,23.36,20.37,12.74,28.85,26.55,31.63,31.9,31.49.11,0,10.89-.83,15-7.66,6.68-11.1-4.85-21.54-16-31.63-7.22-6.53-14.68-13.29-14.6-26.48-.13,10.87,5.21,17.83,11.92,24,8.38,7.73,20.61,17.67,20.61,26.94,0,10.38-7.77,13.76-14.33,15.31a14.66,14.66,0,0,1-3.42.4c-11.3,0-23.44-12.37-31.19-30.16-5-11.51-10.61-21.31-20.85-21.85C144,99.78,134.57,114,131.43,123c-6.61,19.11-15.07,29.12-26.07,29.12a20.14,20.14,0,0,1-3.8-.38C91.45,149.8,86,144.08,85.45,137c-.68-9.36,8.33-20,18.06-26.51C109,106.83,120.38,96,120.4,85.15S109,62.9,103.51,59.22C93.78,52.76,82,41.66,85.45,30.05c2.23-7.37,8.55-12,16.78-12v.13" transform="translate(-15.11 -17.16)" style="fill:#666b72"/><path d="M102.23,18.18c-.23.24-.78,0-1.11.05a16.09,16.09,0,0,0-15.3,13.94C84.27,43.69,97.53,54,103.3,58c9,6.09,18.33,17.78,18,27.46-.92,24.37-35.73,25.52-35,51,.32,10.88,13.1,15.06,19.87,14.89,10.16-.27,18.31-9.36,24.89-27.78,4.75-13.33,15.41-26.61,27.57-24.3,7,1.34,12.67,7.57,18.25,20.19,10.5,23.76,24.18,34.84,37.54,30.4,5.92-2,23.3-10.24-1.87-33.91-14.83-13.94-19.31-18.15-19.3-30.79-.15,10.87,5.19,17.83,11.9,24,8.38,7.73,20.61,17.67,20.61,26.94,0,10.38-7.77,13.76-14.33,15.31a14.66,14.66,0,0,1-3.42.4c-11.3,0-23.44-12.37-31.19-30.16-5-11.51-10.61-21.31-20.85-21.85C144,99.78,134.57,114,131.43,123c-6.61,19.11-15.07,29.12-26.07,29.12a20.14,20.14,0,0,1-3.8-.38C91.45,149.8,86,144.08,85.45,137c-.68-9.36,8.33-20,18.06-26.51C109,106.83,120.38,96,120.4,85.15S109,62.9,103.51,59.22C93.78,52.76,82,41.66,85.45,30.05c2.23-7.37,8.55-12,16.78-12v.1" transform="translate(-15.11 -17.16)" style="fill:#63696e"/><path d="M102.23,18.15c-.23.25-.78,0-1.12.05a16.11,16.11,0,0,0-15.35,14C84.2,43.7,97.49,54.07,103.27,58c9,6.06,18.27,17.73,17.94,27.42-.84,24.42-35.73,25.51-35,51,.32,10.94,13.14,15.14,19.93,15,10.17-.27,18.33-9.38,24.92-27.83,4.75-13.28,15.38-26.53,27.51-24.26,7,1.32,12.65,7.54,18.23,20.16,10.52,23.81,24.23,34.9,37.61,30.44,5.93-2,23.32-10.27-1.89-34-14.83-14-19.3-18.15-19.28-30.79-.17,10.87,5.17,17.83,11.88,24,8.38,7.73,20.61,17.67,20.61,26.94,0,10.38-7.77,13.76-14.33,15.31a14.66,14.66,0,0,1-3.42.4c-11.3,0-23.44-12.37-31.19-30.16-5-11.51-10.61-21.31-20.85-21.85C144,99.78,134.57,114,131.43,123c-6.61,19.11-15.07,29.12-26.07,29.12a20.14,20.14,0,0,1-3.8-.38C91.45,149.8,86,144.08,85.45,137c-.68-9.36,8.33-20,18.06-26.51C109,106.83,120.38,96,120.4,85.15S109,62.9,103.51,59.22C93.78,52.76,82,41.66,85.45,30.05c2.23-7.37,8.55-12,16.78-12v.07" transform="translate(-15.11 -17.16)" style="fill:#60666b"/><path d="M102.23,18.13c-.19.2-.65,0-.93,0A16.05,16.05,0,0,0,85.79,31.6C84.21,43.24,96.05,53.16,103.24,58c9,6.09,18.32,17.75,17.91,27.37-1.05,24.28-35.73,25.52-35,51,.32,11,13.18,15.21,20,15,13.58-.4,20.74-16.1,25-27.88,4.74-13.25,15.36-26.48,27.47-24.21,7,1.32,12.63,7.52,18.2,20.12,10.53,23.85,24.27,35,37.67,30.48,5.94-2,23.35-10.3-1.91-34-15.1-14.2-19.16-18-19.26-30.78-.19,10.87,5.15,17.83,11.86,24,8.38,7.73,20.61,17.67,20.61,26.94,0,10.38-7.77,13.76-14.33,15.31a14.66,14.66,0,0,1-3.42.4c-11.3,0-23.44-12.37-31.19-30.16-5-11.51-10.61-21.31-20.85-21.85C144,99.78,134.57,114,131.43,123c-6.61,19.11-15.07,29.12-26.07,29.12a20.14,20.14,0,0,1-3.8-.38C91.45,149.8,86,144.08,85.45,137c-.68-9.36,8.33-20,18.06-26.51C109,106.83,120.38,96,120.4,85.15S109,62.9,103.51,59.22C93.78,52.76,82,41.66,85.45,30.05c2.23-7.37,8.55-12,16.78-12v.05" transform="translate(-15.11 -17.16)" style="fill:#5d6368"/><path d="M102.23,18.11c-.23.24-.79,0-1.13,0A16.1,16.1,0,0,0,85.65,32.07c-1.59,11.66,11.75,22.08,17.56,26,9,6.06,18.26,17.7,17.88,27.32-1,24.33-35.72,25.52-35,51,.32,11,13.21,15.23,20,15.07,14.63-.35,21.5-18.67,25.6-29.62,2.33-6.22,9.35-20.89,24.18-22.77,4.17-.53,12.4,1.41,20.79,20.39,14.23,32.19,29.87,32.17,34.33,31.39,14.86-2.58,16.25-13.36,13.56-20a13.3,13.3,0,0,1,1.14,5.16c0,10.38-7.77,13.76-14.33,15.31a14.66,14.66,0,0,1-3.42.4c-11.3,0-23.44-12.37-31.19-30.16-5-11.51-10.61-21.31-20.85-21.85C144,99.78,134.57,114,131.43,123c-6.61,19.11-15.07,29.12-26.07,29.12a20.14,20.14,0,0,1-3.8-.38C91.45,149.8,86,144.08,85.45,137c-.68-9.36,8.33-20,18.06-26.51C109,106.83,120.38,96,120.4,85.15S109,62.9,103.51,59.22C93.78,52.76,82,41.66,85.45,30.05c2.23-7.37,8.55-12,16.78-12v0" transform="translate(-15.11 -17.16)" style="fill:#5a6065"/><path d="M102.23,18.1c-.24.24-.8,0-1.14,0A16.12,16.12,0,0,0,85.58,32.07C84,43.75,97.35,54.19,103.17,58.13c8.92,6.05,18.21,17.66,17.85,27.27-.89,24.39-35.72,25.52-35,51,.32,11.07,13.25,15.33,20.1,15.15,13.49-.34,20.74-16.13,25-28,3-8.23,10.06-22.33,24.17-24.38,5.29-.77,13.28,2.13,21.33,20.32,14,31.81,29.4,32.18,33.77,31.54,4.06-.6,17.12-3.59,15.12-17.06a11.34,11.34,0,0,1,.19,2.08c0,10.38-7.77,13.76-14.33,15.31a14.66,14.66,0,0,1-3.42.4c-11.3,0-23.44-12.37-31.19-30.16-5-11.51-10.61-21.31-20.85-21.85C144,99.78,134.57,114,131.43,123c-6.61,19.11-15.07,29.12-26.07,29.12a20.14,20.14,0,0,1-3.8-.38C91.45,149.8,86,144.08,85.45,137c-.68-9.36,8.33-20,18.06-26.51C109,106.83,120.38,96,120.4,85.15S109,62.9,103.51,59.22C93.78,52.76,82,41.66,85.45,30.05c2.23-7.37,8.55-12,16.78-12v0" transform="translate(-15.11 -17.16)" style="fill:#575d62"/><path d="M102.23,18.08c-.24.25-.8,0-1.14,0-8.57.25-14.6,7-15.47,13.29-3.9,28.43,38.81,27.34,35.2,55.59-2.89,22.62-35.59,24.24-34.83,49.44.33,11.14,13.36,15.4,20.26,15.21,13.49-.38,20.7-16.18,24.95-28,4.38-12.22,14.26-24.51,24.66-24.35s16.36,10.36,20.76,20.31c14,31.57,29.43,32.15,33.84,31.58,6.77-.88,14.92-4.2,15.3-15,0,10.36-7.78,13.74-14.33,15.29a14.66,14.66,0,0,1-3.42.4c-11.3,0-23.44-12.37-31.19-30.16-5-11.51-10.61-21.31-20.85-21.85C144,99.78,134.57,114,131.43,123c-6.61,19.11-15.07,29.12-26.07,29.12a20.14,20.14,0,0,1-3.8-.38C91.45,149.8,86,144.08,85.45,137c-.68-9.36,8.33-20,18.06-26.51C109,106.83,120.38,96,120.4,85.15S109,62.9,103.51,59.22C93.78,52.76,82,41.66,85.45,30.05c2.23-7.37,8.55-12,16.78-12h0" transform="translate(-15.11 -17.16)" style="fill:#555a5e"/><path d="M102.23,18.08c-.24.25-.8,0-1.15,0A16.11,16.11,0,0,0,85.45,32c-1.62,11.8,11.8,22.29,17.65,26.25,7.59,5.14,19.1,17.49,17.66,28.71-2.91,22.62-35.58,24.28-34.84,49.46.33,11.12,13.34,15.45,20.24,15.3,14.59-.31,21.52-18.77,25.66-29.79,5.45-14.51,10-16.54,23.52-22.57.1,0,10.54-3.89,21.21,20.24,14.2,32.1,30.08,32.05,33.12,31.72,5.26-.59,14.33-3,15.94-12.82-1.11,8.52-8.16,11.49-14.18,12.91a14.66,14.66,0,0,1-3.42.4c-11.3,0-23.44-12.37-31.19-30.16-5-11.51-10.61-21.31-20.85-21.85C144,99.78,134.57,114,131.43,123c-6.61,19.11-15.07,29.12-26.07,29.12a20.14,20.14,0,0,1-3.8-.38C91.45,149.8,86,144.08,85.45,137c-.68-9.36,8.33-20,18.06-26.51C109,106.83,120.38,96,120.4,85.15S109,62.9,103.51,59.22C93.78,52.76,82,41.66,85.45,30.05c2.23-7.37,8.55-12,16.78-12h0" transform="translate(-15.11 -17.16)" style="fill:#53575b"/><path d="M99.35,18.27c-14.52,2.46-23.56,20.61,2.24,39C120.77,71,121,83.11,120.8,85.4c-.64,9.36-.64,9.36-23.19,29.75-11.55,10.46-14.86,21.34-8.85,29.13,1.94,2.51,17.92,15.62,31.48.17,11.24-12.8,10.82-33,27.16-42.57,5.62-3.28,16.48-6.15,26,11.51,16.17,29.86,16.17,29.86,25.14,35.18,11,6.54,22.62,0,25.48-5.17a13.52,13.52,0,0,0,1.06-2.53c-2,6.72-8.26,9.26-13.69,10.54a14.66,14.66,0,0,1-3.42.4c-11.3,0-23.44-12.37-31.19-30.16-5-11.51-10.61-21.31-20.85-21.85C144,99.78,134.57,114,131.43,123c-6.61,19.11-15.07,29.12-26.07,29.12a20.14,20.14,0,0,1-3.8-.38C91.45,149.8,86,144.08,85.45,137c-.68-9.36,8.33-20,18.06-26.51C109,106.83,120.38,96,120.4,85.15S109,62.9,103.51,59.22C93.78,52.76,82,41.66,85.45,30.05A16.45,16.45,0,0,1,99.69,18.23l-.34,0" transform="translate(-15.11 -17.16)" style="fill:#4f5458"/><path d="M94.17,19.79a16.16,16.16,0,0,0-9,13.16c-2,27,38.91,26,35.41,54-2.83,22.68-35.51,24.33-34.84,49.46.06,2.32,1.09,10.18,11.86,13.94,12.27,4.28,21.19-.49,28.91-15.46-5.77,11.37-12.71,17.26-21.15,17.26a20.14,20.14,0,0,1-3.8-.38C91.45,149.8,86,144.08,85.45,137c-.68-9.36,8.33-20,18.06-26.51C109,106.83,120.38,96,120.4,85.15S109,62.9,103.51,59.22C93.78,52.76,82,41.66,85.45,30.05A16.26,16.26,0,0,1,96.3,19h0a18.43,18.43,0,0,0-2.13.83" transform="translate(-15.11 -17.16)" style="fill:#4c5155"/><path d="M133.72,117.74c6.3-12.06,26.24-35.21,42.67,1.94,20.27,45.85,44.22,30.25,47.83,23.44-2.6,5.06-8,7.16-12.79,8.29a14.66,14.66,0,0,1-3.42.4c-11.3,0-23.44-12.37-31.19-30.16-5-11.51-10.61-21.31-20.85-21.85l-.64,0c-9.31,0-17.37,9.63-21.68,18.09h0l.07-.13" transform="translate(-15.11 -17.16)" style="fill:#4c5155"/><path d="M224.33,134.15c-5.8-19-31.94-24.23-32-47.14.92,11.53,7.1,18,14.47,24.68,9.19,8.32,17.87,16.18,17.94,23.84a12.13,12.13,0,0,0-.37-1.38" transform="translate(-15.11 -17.16)" style="fill:#bac0c6"/><path d="M224.42,134.14c-5.83-18.4-30.24-23.57-32-44.9,1.75,10.4,7.27,16.1,14.3,22.47,8.85,8,17.21,15.59,17.9,23.22-.06-.24-.16-.55-.23-.79" transform="translate(-15.11 -17.16)" style="fill:#bdc2c7"/><path d="M224.5,134.13C218.85,116,195.21,111,192.63,90.56c2.28,10.46,8.09,15.72,15.45,22.38,10.23,9.27,15.3,14.8,16.46,21.18,0,0,0,0,0,0" transform="translate(-15.11 -17.16)" style="fill:#c0c4c9"/><path d="M223.32,131c-2.93-5.76-7.22-10.15-16.34-18.43-6.14-5.57-12.49-11.33-14.11-20.68,2.47,9.59,8.37,14.93,15.19,21.11,9.66,8.75,15.13,14.63,16.36,20.65a15.48,15.48,0,0,0-1.1-2.65" transform="translate(-15.11 -17.16)" style="fill:#c1c6cb"/><path d="M223.37,130.94c-7.4-14.72-26.11-20.4-30.19-37.78,2.87,9,8.16,13.76,14.86,19.82,9.39,8.51,14.48,13.92,16.17,19.85-.23-.57-.56-1.33-.84-1.89" transform="translate(-15.11 -17.16)" style="fill:#c3c7cc"/><path d="M223.42,130.93c-7.36-14.19-24.68-20.19-29.79-36.24,3.07,7.82,7.25,11.86,14.39,18.32,9.11,8.26,13.82,13.21,15.93,19-.16-.34-.36-.79-.53-1.12" transform="translate(-15.11 -17.16)" style="fill:#c4c8cd"/><path d="M223.46,130.91c-7.13-13.9-23.72-19.86-29.39-35,3.25,7.45,7.73,11.5,13.92,17.11,5.88,5.33,13.2,12,15.65,18.23l-.18-.35" transform="translate(-15.11 -17.16)" style="fill:#c5cacf"/><path d="M221.61,127.67c-7.6-11.15-20.77-17.31-26.75-29.91,6.83,13,21.35,19.23,28.18,32.22-.41-.7-1-1.64-1.43-2.31" transform="translate(-15.11 -17.16)" style="fill:#c7cbd0"/><path d="M126.48,131.84c2.31-5.22,3.8-10.79,6.7-15.76a59,59,0,0,0-3.57,8.77,78.41,78.41,0,0,1-5,10.87c.56-1.16,1.29-2.71,1.82-3.88" transform="translate(-15.11 -17.16)" style="fill:#9ea5ac"/><path d="M221.65,127.65c-7.23-10.51-19.2-16.64-25.7-27.82,6.91,11.14,19.24,17.3,26.12,28.46l-.42-.64" transform="translate(-15.11 -17.16)" style="fill:#c9cdd1"/><path d="M195.06,95.54a27.37,27.37,0,0,1-1.76-10.39,27.07,27.07,0,0,0,2,11l-.24-.61" transform="translate(-15.11 -17.16)" style="fill:#5a6065"/><path d="M129,125.9c1.95-5.22,1.95-5.22,2.29-6-1.3,3.32-2.44,6.7-3.86,10,.48-1.2,1.12-2.79,1.57-4" transform="translate(-15.11 -17.16)" style="fill:#a3aab1"/><path d="M193.47,88.91a30.69,30.69,0,0,1-.16-3.76,29,29,0,0,0,.47,5.88l-.23-1.42c0-.21-.06-.49-.08-.7" transform="translate(-15.11 -17.16)" style="fill:#575d62"/><path d="M193.31,85.15v1.26c0-.38-.26-1,0-1.26" transform="translate(-15.11 -17.16)" style="fill:#555a5e"/></g></g></g><g style="isolation:isolate"><g style="clip-path:url(#clip-path-3)"><g style="isolation:isolate"><path d="M102.23,19.55V18.08c13.64.27,21.55,11,33,31.16,5.06,8.94,9,21.27,20,21.27H156c10.24-.54,16.88-10.39,21.88-21.88,8-18.29,22.55-31.46,34.61-31.46v1.47c-11.31,0-25.46,12.68-33.27,30.57C174.09,61,167.16,71.35,156,72a5.47,5.47,0,0,1-.8,0c-12.18-.07-16.27-13.09-21.32-22C122.61,30,115,19.77,102.23,19.55" transform="translate(-15.11 -17.16)" style="fill:#b3bac0"/><path d="M212.46,18.29v.1C201.15,18.6,187,31.31,179.19,49.2,174.09,61,167.16,71.35,156,72a5.47,5.47,0,0,1-.8,0c-12.18-.07-16.27-13.09-21.32-22C122.61,30,115,19.77,102.23,19.55l1.84-.09c6.2.8,15.57,2,32.91,36.12,5.47,10.77,9.61,16,18.26,16.18C146,69.3,146,69.3,132.74,46.44c-9.11-15.71-17.14-27.68-30.51-27.26v-1.1c13.64.27,21.55,11,33,31.16,5.06,8.94,9,21.27,20,21.27H156c10.24-.54,16.88-10.39,21.88-21.88,8-18.29,22.55-31.46,34.61-31.46v1.13" transform="translate(-15.11 -17.16)" style="fill:#b3bac0"/><path d="M212.46,18.23c-.16.18-.56.06-.81.08l.81.13C201.15,18.6,187,31.31,179.19,49.2,174.09,61,167.16,71.35,156,72a5.47,5.47,0,0,1-.8,0c-12.18-.07-16.27-13.09-21.32-22C122.61,30,115,19.77,102.23,19.55l1.86-.05c6.18.78,15.53,2,32.87,36.08,5.48,10.78,9.61,16,18.28,16.22C146,69.31,146,69.31,132.76,46.43,122,27.87,114.69,19.06,102.23,19.13V18.08c13.64.27,21.55,11,33,31.16,5.06,8.94,9,21.27,20,21.27H156c10.24-.54,16.88-10.39,21.88-21.88,8-18.29,22.55-31.46,34.61-31.46v1.07" transform="translate(-15.11 -17.16)" style="fill:#b1b7be"/><path d="M212.46,18.18c-.37.41-1.28.16-1.8.32.54,0,1.26,0,1.8,0C201.15,18.6,187,31.31,179.19,49.2,174.09,61,167.16,71.35,156,72a5.47,5.47,0,0,1-.8,0c-12.18-.07-16.27-13.09-21.32-22C122.61,30,115,19.77,102.23,19.55l1.87,0c6.17.76,15.5,1.91,32.85,36.06,3.45,6.79,8.67,17.06,18.87,16.2-2.31-1.16-5-1.05-7.3-2.26a20,20,0,0,1-4.65-4c-.07-.08-.07-.08-11.09-19.07-10.71-18.47-18-27.27-30.55-27.32v-1c13.64.27,21.55,11,33,31.16,5.06,8.94,9,21.27,20,21.27H156c10.24-.54,16.88-10.39,21.88-21.88,8-18.29,22.55-31.46,34.61-31.46v1" transform="translate(-15.11 -17.16)" style="fill:#afb5bb"/><path d="M212.46,18.15a10.45,10.45,0,0,0-2.88.5c.86,0,2-.13,2.88-.13C201.15,18.6,187,31.31,179.19,49.2,174.09,61,167.16,71.35,156,72a5.47,5.47,0,0,1-.8,0c-12.18-.07-16.27-13.09-21.32-22C122.61,30,115,19.77,102.23,19.55h1.88c10.46,1.25,18,9,30.06,30.74,9.9,17.89,12.56,22.7,23.18,21.34-11.07-.55-13-4.11-22.27-21.23-15.58-28.76-23.77-31.18-32.85-31.36v-1c13.64.27,21.55,11,33,31.16,5.06,8.94,9,21.27,20,21.27H156c10.24-.54,16.88-10.39,21.88-21.88,8-18.29,22.55-31.46,34.61-31.46v1" transform="translate(-15.11 -17.16)" style="fill:#acb2b9"/><path d="M212.46,18.12a15.51,15.51,0,0,0-4.09.77,34.37,34.37,0,0,1,4.09-.34C201.15,18.6,187,31.31,179.19,49.2,174.09,61,167.16,71.35,156,72a5.47,5.47,0,0,1-.8,0c-12.18-.07-16.27-13.09-21.32-22C122.61,30,115,19.77,102.23,19.55l1.88,0c6.15.73,15.44,1.83,32.81,36,3.65,7.17,9.75,19.18,22.2,15.68-11.77,1.24-16.17-5.61-22-17-18-35.13-27.74-35.19-34.88-35.23v-.94c13.64.27,21.55,11,33,31.16,5.06,8.94,9,21.27,20,21.27H156c10.24-.54,16.88-10.39,21.88-21.88,8-18.29,22.55-31.46,34.61-31.46v1" transform="translate(-15.11 -17.16)" style="fill:#a8afb6"/><path d="M212.46,18.08c-1.6,1.75-3.83.6-5.67,1.26,5.28-.76,5.28-.76,5.67-.76-11.31,0-25.46,12.73-33.27,30.62C174.09,61,167.16,71.35,156,72a5.47,5.47,0,0,1-.8,0c-12.18-.07-16.27-13.09-21.32-22C122.61,30,115,19.77,102.23,19.55l1.88.06c6.14.72,15.43,1.8,32.8,36,3.16,6.22,10.56,20.79,23.47,15.32-12.37,2.5-17.44-5.35-23.25-16.71C119.18,19.12,109.38,19,102.23,19v-.91c13.64.27,21.55,11,33,31.16,5.06,8.94,9,21.27,20,21.27H156c10.24-.54,16.88-10.39,21.88-21.88,8-18.29,22.55-31.46,34.61-31.46v.92" transform="translate(-15.11 -17.16)" style="fill:#a3aab1"/><path d="M212.46,18.05c-2.23,2.37-5.55.92-8.06,2.32a22.37,22.37,0,0,1,8.06-1.76c-11.31,0-25.46,12.7-33.27,30.59C174.09,61,167.16,71.35,156,72a5.47,5.47,0,0,1-.8,0c-12.18-.07-16.27-13.09-21.32-22C122.61,30,115,19.77,102.23,19.55l1.88.08c6.14.71,15.42,1.79,32.79,36,3.52,6.93,10.85,21.36,25.31,14.74-14.81,3.19-18.41-3.64-26.31-18.61-16-30.39-25.07-32.86-33.67-32.81v-.87c13.64.27,21.55,11,33,31.16,5.06,8.94,9,21.27,20,21.27H156c10.24-.54,16.88-10.39,21.88-21.88,8-18.29,22.55-31.46,34.61-31.46v.89" transform="translate(-15.11 -17.16)" style="fill:#9ea5ac"/><path d="M212.46,18c-.3.32-1,.08-1.45.12-1.79.15-8.32,1.3-17.31,9.81C187.91,33.42,183,40.73,179,49.68c-8.47,19.07-16.37,21.7-23,21.75-10,.08-14.87-9.52-18.82-17.24-18-35.11-27.79-35.2-35-35.27v-.84c13.64.27,21.55,11,33,31.16,5.06,8.94,9,21.27,20,21.27H156c10.24-.54,16.88-10.39,21.88-21.88,8-18.29,22.55-31.46,34.61-31.46V18" transform="translate(-15.11 -17.16)" style="fill:#919aa1"/><path d="M212.46,18c-.31.34-1.06.09-1.51.13-2.3.2-8.62,1.56-17.5,10-3.86,3.65-9.5,10.36-14.5,21.6C174.48,59.73,167.83,71.29,156,71.39c-9.92.08-14.82-9.51-18.76-17.22-18-35.14-27.82-35.22-35-35.28v-.81c13.64.27,21.55,11,33,31.16,5.06,8.94,9,21.27,20,21.27H156c10.24-.54,16.88-10.39,21.88-21.88,8-18.29,22.55-31.46,34.61-31.46V18" transform="translate(-15.11 -17.16)" style="fill:#8e979e"/><path d="M212.46,17.94c-.22.24-.76.06-1.08.08C203.8,18.57,189,27.26,179.22,49,176,56.19,169.2,71.24,156,71.35c-9.88.08-14.78-9.51-18.72-17.21-17.88-34.95-27.4-35.14-35-35.29v-.77c13.64.27,21.55,11,33,31.16,5.06,8.94,9,21.27,20,21.27H156c10.24-.54,16.88-10.39,21.88-21.88,8-18.29,22.55-31.46,34.61-31.46v.78" transform="translate(-15.11 -17.16)" style="fill:#8a939b"/><path d="M212.46,17.9c-.29.32-1,.08-1.44.12-1.56.13-9.87,1.32-19.78,12.17-9.06,9.9-12.14,23.49-20.78,33.64-5.29,6.21-19.1,17.7-33.13-9.72-16.75-32.74-26.16-35.38-35.1-35.3v-.73c13.64.27,21.55,11,33,31.16,5.06,8.94,9,21.27,20,21.27H156c10.24-.54,16.88-10.39,21.88-21.88,8-18.29,22.55-31.46,34.61-31.46v.74" transform="translate(-15.11 -17.16)" style="fill:#879097"/><path d="M212.46,17.85c-.19.2-.64,0-.92.06-9.48.68-23.65,11.55-32.38,31-3.24,7.21-10,22.22-23.16,22.33-9.8.08-14.49-9.09-18.62-17.18C119.43,19,109.89,18.86,102.23,18.75v-.67c13.64.27,21.55,11,33,31.16,5.06,8.94,9,21.27,20,21.27H156c10.24-.54,16.88-10.39,21.88-21.88,8-18.29,22.55-31.46,34.61-31.46v.69" transform="translate(-15.11 -17.16)" style="fill:#848d94"/><path d="M212.46,17.79c-.3.33-1,.09-1.46.13-2.36.21-8.8,1.57-17.46,9.76-5.71,5.4-10.66,12.77-14.72,21.93S167.91,71.09,156,71.19c-9.76.08-14.64-9.46-18.56-17.13-16.73-32.7-26.19-35.39-35.19-35.36v-.62c13.64.27,21.55,11,33,31.16,5.06,8.94,9,21.27,20,21.27H156c10.24-.54,16.88-10.39,21.88-21.88,8-18.29,22.55-31.46,34.61-31.46v.63" transform="translate(-15.11 -17.16)" style="fill:#838a91"/><path d="M212.46,17.73c-.26.29-.91.08-1.3.11-5.55.48-13.32,5-18.91,11.07-8.57,9.26-12.28,21.5-19.42,31.64-5.59,7.92-20.21,23.13-35.37-6.52-16.81-32.84-26.25-35.48-35.23-35.4v-.55c13.64.27,21.55,11,33,31.16,5.06,8.94,9,21.27,20,21.27H156c10.24-.54,16.88-10.39,21.88-21.88,8-18.29,22.55-31.46,34.61-31.46v.57" transform="translate(-15.11 -17.16)" style="fill:#7f878e"/><path d="M212.46,17.66c-.21.23-.71.06-1,.08-9.2.72-23.27,10.77-32.39,31.14C175.84,56.05,169.16,71,156,71.08c-9.73.08-14.39-9-18.5-17.06-18.05-35.28-28-35.38-35.26-35.45,13.64-.22,21.55,10.51,33,30.67,5.06,8.94,9,21.27,20,21.27H156c10.24-.54,16.88-10.39,21.88-21.88,8-18.29,22.55-31.46,34.61-31.46v.5" transform="translate(-15.11 -17.16)" style="fill:#7d848a"/><path d="M212.46,17.6c-.14.15-.48,0-.68,0-3.15.21-9.71,1.76-18.31,9.91-3.93,3.72-9.68,10.55-14.76,22C174.65,58.72,167.87,70.91,156,71c-9.73.08-14.37-9-18.47-17-18-35.24-28-35.39-35.29-35.5,13.64-.15,21.55,10.58,33,30.74,5.06,8.94,9,21.27,20,21.27H156c10.24-.54,16.88-10.39,21.88-21.88,8-18.29,22.55-31.46,34.61-31.46v.44" transform="translate(-15.11 -17.16)" style="fill:#798187"/><path d="M212.46,17.54c-.32.36-1.12.1-1.6.14-2.34.22-8.74,1.59-17.43,9.82-5.7,5.41-10.67,12.82-14.75,22-2.34,5.27-9.44,21.28-22.16,21.39-9.55.08-13.71-6.66-19-17-16.78-32.81-26.64-35.54-35.31-35.53,13.64-.1,21.55,10.63,33,30.79,5.06,8.94,9,21.27,20,21.27H156c10.24-.54,16.88-10.39,21.88-21.88,8-18.29,22.55-31.46,34.61-31.46v.38" transform="translate(-15.11 -17.16)" style="fill:#777d84"/><path d="M212.46,17.49c-.27.29-.92.07-1.31.1-2.4.19-8.93,1.52-17.74,9.85-3.92,3.72-9.67,10.57-14.78,22.08-4,9.13-10.8,21.27-22.65,21.37-9.71.08-14.14-8.56-18.41-16.92-18-35.28-28-35.45-35.34-35.58,13.64,0,21.55,10.69,33,30.85,5.06,8.94,9,21.27,20,21.27H156c10.24-.54,16.88-10.39,21.88-21.88,8-18.29,22.55-31.46,34.61-31.46v.33" transform="translate(-15.11 -17.16)" style="fill:#737a82"/><path d="M212.46,17.44c-.25.27-.85.06-1.21.09-7.63.53-22.54,9.29-32.34,31.22-2.94,6.57-9.83,22-22.93,22.08-9.72.09-14.13-8.54-18.39-16.88-18-35.28-28-35.47-35.36-35.6,13.64,0,21.55,10.73,33,30.89,5.06,8.94,9,21.27,20,21.27H156c10.24-.54,16.88-10.39,21.88-21.88,8-18.29,22.55-31.46,34.61-31.46v.28" transform="translate(-15.11 -17.16)" style="fill:#71777f"/><path d="M212.46,17.4c-.14.15-.48,0-.68,0-9.63.49-24.05,11.41-32.94,31.35-2.93,6.55-9.78,21.9-22.86,22-9.72.08-14.12-8.53-18.37-16.85-17.94-35.07-28-35.4-35.38-35.63,13.64,0,21.55,10.77,33,30.93,5.06,8.94,9,21.27,20,21.27H156c10.24-.54,16.88-10.39,21.88-21.88,8-18.29,22.55-31.46,34.61-31.46v.24" transform="translate(-15.11 -17.16)" style="fill:#6e757b"/><path d="M212.46,17.36c-.29.32-1,.07-1.44.1-7.59.54-22.44,9.32-32.24,31.29-2.92,6.55-9.75,21.87-22.82,22-9.71.08-14.09-8.5-18.34-16.8-18.05-35.29-28.07-35.51-35.39-35.66,13.64.08,21.55,10.81,33,31,5.06,8.94,9,21.27,20,21.27H156c10.24-.54,16.88-10.39,21.88-21.88,8-18.29,22.55-31.46,34.61-31.46v.2" transform="translate(-15.11 -17.16)" style="fill:#6b7178"/><path d="M212.46,17.33c-.29.3-1,.06-1.39.09-7.62.5-22.51,9.25-32.34,31.3-2.92,6.55-9.76,21.87-22.76,22-9.71.08-13.9-8.11-18.33-16.77-18-35.28-28.08-35.52-35.41-35.7,13.64.12,21.55,10.85,33,31,5.06,8.94,9,21.27,20,21.27H156c10.24-.54,16.88-10.39,21.88-21.88,8-18.29,22.55-31.46,34.61-31.46v.17" transform="translate(-15.11 -17.16)" style="fill:#696f75"/><path d="M212.46,17.29c-.18.19-.6,0-.86,0-5.53.26-11.84,3.7-18.75,10.21-3.07,2.9-9,9.58-14.48,21.86C176.05,54.64,169,70.55,156,70.66c-9.72.08-13.9-8.09-18.32-16.74-17.94-35.07-28-35.45-35.42-35.72,13.64.15,21.55,10.88,33,31,5.06,8.94,9,21.27,20,21.27H156c10.24-.54,16.88-10.39,21.88-21.88,8-18.29,22.55-31.46,34.61-31.46v.13" transform="translate(-15.11 -17.16)" style="fill:#666b72"/><path d="M212.46,17.26c-.33.36-1.13.08-1.61.11-7.58.51-22.42,9.27-32.23,31.3-2.67,6-9.74,21.85-22.65,22-9.73.08-13.9-8.08-18.31-16.72-18-35.27-28.09-35.54-35.43-35.74,13.64.18,21.55,10.91,33,31.07,5.06,8.94,9,21.27,20,21.27H156c10.24-.54,16.88-10.39,21.88-21.88,8-18.29,22.55-31.46,34.61-31.46v.1" transform="translate(-15.11 -17.16)" style="fill:#63696e"/><path d="M212.46,17.24c-.3.31-1,.06-1.44.08-7.64.45-22.59,9.17-32.46,31.33-2.66,6-9.73,21.83-22.4,21.94-9.26.08-13.16-6.25-18.5-16.68-18.15-35.5-28.55-35.66-35.43-35.76,13.64.2,21.55,10.93,33,31.09,5.06,8.94,9,21.27,20,21.27H156c10.24-.54,16.88-10.39,21.88-21.88,8-18.29,22.55-31.46,34.61-31.46v.08" transform="translate(-15.11 -17.16)" style="fill:#60666b"/><path d="M212.46,17.21c-.24.26-.83,0-1.18.06-7.73.37-22.83,9-32.78,31.35-2.66,6-9.73,21.84-22.53,21.95-9.07.07-13.13-6.55-18.3-16.66-18-35.13-28.06-35.51-35.44-35.78,13.64.22,21.55,11,33,31.11,5.06,8.94,9,21.27,20,21.27H156c10.24-.54,16.88-10.39,21.88-21.88,8-18.29,22.55-31.46,34.61-31.46v.05" transform="translate(-15.11 -17.16)" style="fill:#5d6368"/><path d="M212.46,17.19c-.12.13-.42,0-.6,0-5.92.17-13,4-19.5,10.49-5.66,5.68-5.66,5.68-16.4,26.16-11.85,22.59-25,16.23-27.57,14.73a12.7,12.7,0,0,0,6.85,1.92H156c10.24-.54,16.88-10.39,21.88-21.88,8-18.29,22.55-31.46,34.61-31.46v0" transform="translate(-15.11 -17.16)" style="fill:#5a6065"/><path d="M212.46,17.18c-.32.33-1.07.06-1.53.08C207,17.47,200,20.14,193,27c-7.41,7.24-9.27,11-16.22,25.12-7.29,14.78-16,20.7-26,17.6a12.8,12.8,0,0,0,4.52.78H156c10.24-.54,16.88-10.39,21.88-21.88,8-18.29,22.55-31.46,34.61-31.46v0" transform="translate(-15.11 -17.16)" style="fill:#575d62"/><path d="M212.46,17.17c-.31.32-1.05,0-1.5.07-1.41.07-8.87.86-17.93,9.63-7.83,7.6-10.58,13.31-16.07,24.69-4.29,8.9-11.47,20.53-24.26,18.72a13.87,13.87,0,0,0,2.54.23H156c10.24-.54,16.88-10.39,21.88-21.88,8-18.29,22.55-31.46,34.61-31.46h0" transform="translate(-15.11 -17.16)" style="fill:#555a5e"/><path d="M212.46,17.16c-.32.33-1.07.05-1.52.07-1.39.07-8.78.83-17.94,9.6-8.37,8-12.15,16.19-15.82,24.1-6.09,13.16-13.27,19.57-21.94,19.58H156c10.24-.54,16.88-10.39,21.88-21.88,8-18.29,22.55-31.46,34.61-31.46h0" transform="translate(-15.11 -17.16)" style="fill:#53575b"/><path d="M154,71.7c-7.66-.38-7.66-.38-21.16-23.94C118.68,23.13,112.57,21,103,19.24c6.06.06,16.2.15,33.77,34.55,5.33,10.44,9.22,16.86,18.3,17.85-.33,0-.76.07-1.09.06" transform="translate(-15.11 -17.16)" style="fill:#b6bcc2"/><path d="M210,17.34C195.31,20,183.69,35.8,178.2,48.48c-6,13.92-12.75,20.89-21.17,21.93,9.65-1.14,16-10.71,20.82-21.79,7.49-17.22,20.85-29.89,32.46-31.32l-.33,0" transform="translate(-15.11 -17.16)" style="fill:#4f5458"/><path d="M152.81,71.56c-8.15-1-12.48-9.45-16.29-17-16.32-32.1-25.6-33.94-32.37-35.28,5.77.33,15.42.87,32.58,34.48,5.64,11,8.75,15.74,17,17.75a6.79,6.79,0,0,1-.9,0" transform="translate(-15.11 -17.16)" style="fill:#b8bec3"/><path d="M151.75,71.34c-7.53-1.63-11.62-9.66-15.22-16.75-16.11-31.69-25.6-33.84-31.27-35.13,10.8.95,18.27,10.82,29.1,29.93C145.58,69.17,145.58,69.17,153,71.47c-.38,0-.88-.06-1.26-.13" transform="translate(-15.11 -17.16)" style="fill:#bac0c6"/><path d="M151.62,71.26c-7.3-1.39-11.61-9.86-15.07-16.68C121,23.9,111.73,21.23,106.22,19.63,115.38,20.75,123.1,29,134.69,50c10,18.16,10.21,18.51,17.64,21.34-.21,0-.5,0-.71-.09" transform="translate(-15.11 -17.16)" style="fill:#bdc2c7"/><path d="M204.89,18.72c-15.45,6.72-23.86,23-26.76,29.72C171.38,64,164.89,68,160,69.77c8-2.55,13.54-11.24,17.85-21.15,6.68-15.35,18-27.1,28.64-30.47-.48.17-1.13.38-1.6.57" transform="translate(-15.11 -17.16)" style="fill:#4c5155"/><path d="M151.64,71.2c-7.41-1.55-11.31-9.21-15.08-16.62-15.38-30.26-24.47-33.16-29.35-34.72,6.11.89,14.24,5.33,28.21,31.54,7.67,14.39,8.65,16.24,16.22,19.79h0" transform="translate(-15.11 -17.16)" style="fill:#c0c4c9"/><path d="M149.61,70.59c-6.15-2.49-9.65-9.37-13-16C121.75,25.42,112.89,22,108.13,20.11,117.92,21.82,127,36.19,134.65,50,144,67,144,67,151,71c-.42-.13-1-.26-1.39-.43" transform="translate(-15.11 -17.16)" style="fill:#c1c6cb"/><path d="M149.62,70.56c-6.13-2.43-9.64-9.33-13-16C122,25.82,112.94,22,109.08,20.43c7.21,1.33,16.06,11.75,26.3,31,7.32,13.72,7.32,13.72,15,19.38l-.73-.24" transform="translate(-15.11 -17.16)" style="fill:#c3c7cc"/><path d="M149.64,70.53c-5.76-2.35-8.9-7.85-13-16C122.74,27.28,114,22.8,110.24,20.89c1.54.11,10,2.07,25.13,30.54,5.74,10.77,5.74,10.77,7.67,13.35,1.8,2.41,4.52,3.76,6.67,5.77l-.07,0" transform="translate(-15.11 -17.16)" style="fill:#c4c8cd"/><path d="M147.79,69.61c-5-2.91-8-8.82-11.16-15.08C123,27.71,114.4,23.06,111.16,21.31c4.58.34,14.79,11.64,25.45,32.57,4.75,9.31,7.18,13,12.24,16.16-.32-.13-.75-.27-1.06-.43" transform="translate(-15.11 -17.16)" style="fill:#c5cacf"/><path d="M148.17,69.79c-.36,0-3.76,0-11.52-15.27C123.84,29.34,115.51,24,112.37,22c7.12,3.6,15.26,14.35,24.21,31.94,3.75,7.37,6.58,12.45,11.67,15.82,0,0-.05.07-.08.08" transform="translate(-15.11 -17.16)" style="fill:#c7cbd0"/><path d="M147.23,69.2c-2.94-1.41-2.94-1.41-12.84-19-6.56-11.67-9.89-16.08-11.88-18.72-2.56-3.4-6-5.87-9-8.91,8.54,5.33,17.22,20,23,31.37,3,5.81,6,11.82,11,15.38a2.14,2.14,0,0,1-.34-.09" transform="translate(-15.11 -17.16)" style="fill:#c9cdd1"/><path d="M146.16,68.4c-2.55-1.79-2.55-1.79-11.75-18.24C125,33.31,121.64,30,115,23.54c8.16,6.12,16.22,19.9,21.55,30.39,3.43,6.76,5.84,11.14,10.18,14.77-.16-.09-.4-.2-.55-.3" transform="translate(-15.11 -17.16)" style="fill:#cbced2"/><path d="M128.17,39.45c-5.54-8.57-8.46-11.51-11.29-14.36,3.84,3.49,7.26,7.52,13.42,17.76-.64-1-1.48-2.39-2.13-3.4" transform="translate(-15.11 -17.16)" style="fill:#cdd0d3"/><path d="M112.22,20.57a21.76,21.76,0,0,0-10-2.46,21.73,21.73,0,0,1,11.58,3.37c-.48-.27-1.11-.66-1.59-.91" transform="translate(-15.11 -17.16)" style="fill:#5a6065"/><path d="M144.63,67a27.13,27.13,0,0,1-4.49-6.22,31.25,31.25,0,0,0,5.45,7c-.29-.24-.69-.54-1-.81" transform="translate(-15.11 -17.16)" style="fill:#cdd0d3"/><path d="M107.47,18.76a22.5,22.5,0,0,0-5.24-.67,22.26,22.26,0,0,1,7.36,1.32h0c-.63-.2-1.47-.5-2.12-.65" transform="translate(-15.11 -17.16)" style="fill:#575d62"/><path d="M104.92,18.28c-2-.18-2-.18-2.69-.2a24.4,24.4,0,0,1,4,.4c-.39-.06-.9-.16-1.29-.2" transform="translate(-15.11 -17.16)" style="fill:#555a5e"/><path d="M102.23,18.08h0" transform="translate(-15.11 -17.16)" style="fill:#53575b"/></g></g></g><g style="isolation:isolate"><g style="clip-path:url(#clip-path-4)"><g style="isolation:isolate"><path d="M242.59,66.59V65.12c6.42,0,11.57,1.78,15.11,5.18s5.47,8.44,5.47,15c0,13-7.74,23.62-20.58,23.62a23.43,23.43,0,0,1-23.25-23.62c0-13,10.41-20.14,23.25-20.14v1.47c-12.17,0-21.78,6.61-21.78,18.67a22,22,0,0,0,21.78,22.15c11.88,0,19.1-9.79,19.11-22.15,0-6.16-1.8-10.81-5-13.9s-8.5-4.58-14.09-4.77" transform="translate(-15.11 -17.16)" style="fill:#b3bac0"/><path d="M242.59,66.25v.34c-12.17,0-21.78,6.61-21.78,18.67a22,22,0,0,0,21.78,22.15c11.88,0,19.1-9.79,19.11-22.15,0-6.16-1.8-10.81-5-13.9s-8.5-4.58-14.09-4.77l.85-.18c3.78.21,10.71,1.31,14.66,6.37,3.16,4,3.16,4.28,3.6,17,1-5.54,2.66-23.61-19.11-23.57v-1.1c6.42,0,11.57,1.78,15.11,5.18s5.47,8.44,5.47,15c0,13-7.74,23.62-20.58,23.62a23.43,23.43,0,0,1-23.25-23.62c0-13,10.41-20.14,23.25-20.14v1.13" transform="translate(-15.11 -17.16)" style="fill:#b3bac0"/><path d="M242.59,66.2c-.27.29-.93.06-1.33.08l1.33.12c-12.17.21-21.78,6.8-21.78,18.86a22,22,0,0,0,21.78,22.15c11.88,0,19.1-9.79,19.11-22.15,0-6.16-1.8-10.81-5-13.9s-8.5-4.58-14.09-4.77l.85-.14C263.12,67.52,262.54,84,261.38,91c.07-.24,6.67-25-18.79-24.84v-1c6.42,0,11.57,1.78,15.11,5.18s5.47,8.44,5.47,15c0,13-7.74,23.62-20.58,23.62a23.43,23.43,0,0,1-23.25-23.62c0-13,10.41-20.14,23.25-20.14V66.2" transform="translate(-15.11 -17.16)" style="fill:#b1b7be"/><path d="M242.59,66.15c-.92,1-2.06.08-3.07.36.69,0,1.78-.08,3.07-.06-12.17.16-21.78,6.75-21.78,18.81a22,22,0,0,0,21.78,22.15c11.88,0,19.1-9.79,19.11-22.15,0-6.16-1.8-10.81-5-13.9s-8.5-4.58-14.09-4.77l.85-.1c20.41,1.1,19.08,18.66,17.56,26.16.17-.27,7.74-26.57-18.41-26.52v-1c6.42,0,11.57,1.78,15.11,5.18s5.47,8.44,5.47,15c0,13-7.74,23.62-20.58,23.62a23.43,23.43,0,0,1-23.25-23.62c0-13,10.41-20.14,23.25-20.14v1" transform="translate(-15.11 -17.16)" style="fill:#afb5bb"/><path d="M242.59,66.11c-.27.29-.93,0-1.33.07a18.4,18.4,0,0,0-3.73.59,37.16,37.16,0,0,1,5.06-.29c-12.17.13-21.78,6.72-21.78,18.78a22,22,0,0,0,21.78,22.15c11.88,0,19.1-9.79,19.11-22.15,0-6.16-1.8-10.81-5-13.9s-8.5-4.58-14.09-4.77l.84-.07c23.09,1.3,18.25,23.44,17,27.86,1.68-3.54,7.25-28.41-17.88-28.28v-1c6.42,0,11.57,1.78,15.11,5.18s5.47,8.44,5.47,15c0,13-7.74,23.62-20.58,23.62a23.43,23.43,0,0,1-23.25-23.62c0-13,10.41-20.14,23.25-20.14v1" transform="translate(-15.11 -17.16)" style="fill:#acb2b9"/><path d="M242.59,66.08c-.35.37-1.18.06-1.69.09a22.6,22.6,0,0,0-5.25,1,39.17,39.17,0,0,1,6.94-.64c-12.17.1-21.78,6.69-21.78,18.75a22,22,0,0,0,21.78,22.15c11.88,0,19.1-9.79,19.11-22.15,0-6.16-1.8-10.81-5-13.9s-8.5-4.58-14.09-4.77l.84,0c24.23,1.39,17.95,24.72,16.45,29.38,3.31-6.61,7.26-29.94-17.29-29.87v-.94c6.42,0,11.57,1.78,15.11,5.18s5.47,8.44,5.47,15c0,13-7.74,23.62-20.58,23.62a23.43,23.43,0,0,1-23.25-23.62c0-13,10.41-20.14,23.25-20.14v1" transform="translate(-15.11 -17.16)" style="fill:#a8afb6"/><path d="M242.59,66.05c-.35.37-1.19.06-1.71.08a25.41,25.41,0,0,0-7,1.51c6.73-1.09,6.73-1.09,8.73-1.1-12.17.07-21.78,6.66-21.78,18.72a22,22,0,0,0,21.78,22.15c11.88,0,19.1-9.79,19.11-22.15,0-6.16-1.8-10.81-5-13.9s-8.5-4.58-14.09-4.77h.84c9.42.55,24,5.28,15.78,30.78,4.38-7.62,7.71-31.52-16.62-31.33v-.91c6.42,0,11.57,1.78,15.11,5.18s5.47,8.44,5.47,15c0,13-7.74,23.62-20.58,23.62a23.43,23.43,0,0,1-23.25-23.62c0-13,10.41-20.14,23.25-20.14v.93" transform="translate(-15.11 -17.16)" style="fill:#a3aab1"/><path d="M242.59,66c-.31.33-1.06,0-1.52.07-2.82.13-7.24,1.12-9.46,2.51a29.06,29.06,0,0,1,11-2c-12.17,0-21.78,6.63-21.78,18.69a22,22,0,0,0,21.78,22.15c11.88,0,19.1-9.79,19.11-22.15,0-6.16-1.8-10.81-5-13.9s-8.5-4.58-14.09-4.77h.84c24.72,1.49,18.44,26.19,14.54,32.69,6-6.6,10.08-33.5-15.38-33.29v-.88c6.42,0,11.57,1.78,15.11,5.18s5.47,8.44,5.47,15c0,13-7.74,23.62-20.58,23.62a23.43,23.43,0,0,1-23.25-23.62c0-13,10.41-20.14,23.25-20.14V66" transform="translate(-15.11 -17.16)" style="fill:#9ea5ac"/><path d="M242.59,66c-.36.38-1.22.06-1.74.08-8.11.38-20.15,5.94-20,19.69a22,22,0,0,0,22.12,21.66c19.37,0,24.71-26.17,14.72-36.42-3.28-3.36-8.34-5-15.06-5v-.85c6.42,0,11.57,1.78,15.11,5.18s5.47,8.44,5.47,15c0,13-7.74,23.62-20.58,23.62a23.43,23.43,0,0,1-23.25-23.62c0-13,10.41-20.14,23.25-20.14V66" transform="translate(-15.11 -17.16)" style="fill:#919aa1"/><path d="M242.59,65.94c-.36.39-1.23.06-1.76.08-9.79.45-20.15,7.29-20.05,19.09a22.1,22.1,0,0,0,22.15,22.33c19.41,0,24.76-26.2,14.75-36.48-2.3-2.36-6.78-5.14-15.09-5v-.81c6.42,0,11.57,1.78,15.11,5.18s5.47,8.44,5.47,15c0,13-7.74,23.62-20.58,23.62a23.43,23.43,0,0,1-23.25-23.62c0-13,10.41-20.14,23.25-20.14v.82" transform="translate(-15.11 -17.16)" style="fill:#8e979e"/><path d="M242.59,65.9c-.36.38-1.21.06-1.74.08-10.06.48-20.19,7.2-20.09,19.13a22.15,22.15,0,0,0,22.17,22.36c19.48,0,24.84-26.23,14.79-36.55-3.33-3.41-8.42-5.11-15.13-5v-.77c6.42,0,11.57,1.78,15.11,5.18s5.47,8.44,5.47,15c0,13-7.74,23.62-20.58,23.62a23.43,23.43,0,0,1-23.25-23.62c0-13,10.41-20.14,23.25-20.14v.78" transform="translate(-15.11 -17.16)" style="fill:#8a939b"/><path d="M242.59,65.86c-.36.38-1.23.06-1.75.08-10.07.46-20.21,7.19-20.11,19.17a22.19,22.19,0,0,0,22.2,22.39c19.53,0,24.91-26.27,14.83-36.62-2.31-2.36-6.81-5.16-15.17-5v-.73c6.42,0,11.57,1.78,15.11,5.18s5.47,8.44,5.47,15c0,13-7.74,23.62-20.58,23.62a23.43,23.43,0,0,1-23.25-23.62c0-13,10.41-20.14,23.25-20.14v.74" transform="translate(-15.11 -17.16)" style="fill:#879097"/><path d="M242.59,65.81c-.35.37-1.2.06-1.72.08-7.07.34-20.38,4.93-20.16,19.87a22,22,0,0,0,22.51,21.76c19.7-.5,24.72-26.81,14.39-36.85-3.47-3.38-8.38-5-15-4.87v-.68c6.42,0,11.57,1.78,15.11,5.18s5.47,8.44,5.47,15c0,13-7.74,23.62-20.58,23.62a23.43,23.43,0,0,1-23.25-23.62c0-13,10.41-20.14,23.25-20.14v.69" transform="translate(-15.11 -17.16)" style="fill:#848d94"/><path d="M242.59,65.76c-.38.4-1.28.06-1.83.08-10,.49-20.18,7.27-20.08,19.27a22.29,22.29,0,0,0,22.25,22.45c19.63,0,25-26.33,14.9-36.75-3.4-3.49-8.53-5.19-15.24-5.06v-.63c6.42,0,11.57,1.78,15.11,5.18s5.47,8.44,5.47,15c0,13-7.74,23.62-20.58,23.62a23.43,23.43,0,0,1-23.25-23.62c0-13,10.41-20.14,23.25-20.14v.64" transform="translate(-15.11 -17.16)" style="fill:#838a91"/><path d="M242.59,65.69c-.35.37-1.18.06-1.68.08-10,.49-20.55,7-20.25,20,.28,12.45,10.77,22.44,22.89,21.81,19.83-1,24-28.09,13.6-37.46-3.38-3-8.28-4.54-14.56-4.43v-.56c6.42,0,11.57,1.78,15.11,5.18s5.47,8.44,5.47,15c0,13-7.74,23.62-20.58,23.62a23.43,23.43,0,0,1-23.25-23.62c0-13,10.41-20.14,23.25-20.14v.57" transform="translate(-15.11 -17.16)" style="fill:#7f878e"/><path d="M242.59,65.63c-.34.36-1.16.05-1.66.08-10,.49-20.6,7-20.3,20.05.28,12.46,10.78,22.46,22.93,21.84,20.18-1,24.51-27.68,13.61-37.52-5.07-4.58-12.23-4.49-14.58-4.46v-.5c6.42,0,11.57,1.78,15.11,5.18s5.47,8.44,5.47,15c0,13-7.74,23.62-20.58,23.62a23.43,23.43,0,0,1-23.25-23.62c0-13,10.41-20.14,23.25-20.14v.51" transform="translate(-15.11 -17.16)" style="fill:#7d848a"/><path d="M242.59,65.56c-.27.28-.91,0-1.31.06-10,.42-20.79,6.74-20.69,19.63a22.35,22.35,0,0,0,22.33,22.4c19.77.13,25.2-26.4,15-36.91-3.45-3.55-8.6-5.29-15.32-5.19v-.43c6.42,0,11.57,1.78,15.11,5.18s5.47,8.44,5.47,15c0,13-7.74,23.62-20.58,23.62a23.43,23.43,0,0,1-23.25-23.62c0-13,10.41-20.14,23.25-20.14v.44" transform="translate(-15.11 -17.16)" style="fill:#798187"/><path d="M242.59,65.5c-.12.13-.41,0-.58,0-12.72.37-21.54,8.42-21.46,19.58a22.46,22.46,0,0,0,22.37,22.59c19.8.13,25.23-26.44,15-37-3.46-3.56-8.62-5.31-15.34-5.21v-.38c6.42,0,11.57,1.78,15.11,5.18s5.47,8.44,5.47,15c0,13-7.74,23.62-20.58,23.62a23.43,23.43,0,0,1-23.25-23.62c0-13,10.41-20.14,23.25-20.14v.38" transform="translate(-15.11 -17.16)" style="fill:#777d84"/><path d="M242.59,65.45c-.35.37-1.18,0-1.68.08-10,.44-20.69,7-20.39,20.23a22.34,22.34,0,0,0,23,22c20.16-.71,24.28-28,13.67-37.71-2.38-2.16-6.84-4.71-14.64-4.56v-.33c6.42,0,11.57,1.78,15.11,5.18s5.47,8.44,5.47,15c0,13-7.74,23.62-20.58,23.62a23.43,23.43,0,0,1-23.25-23.62c0-13,10.41-20.14,23.25-20.14v.33" transform="translate(-15.11 -17.16)" style="fill:#737a82"/><path d="M242.59,65.4c-.35.37-1.19.06-1.7.08-10,.42-20.71,7-20.41,20.28.29,12.49,10.86,22.56,23.08,22,20.38-.93,24.7-27.78,13.69-37.77-5.13-4.65-12.3-4.61-14.66-4.6v-.28c6.42,0,11.57,1.78,15.11,5.18s5.47,8.44,5.47,15c0,13-7.74,23.62-20.58,23.62a23.43,23.43,0,0,1-23.25-23.62c0-13,10.41-20.14,23.25-20.14v.28" transform="translate(-15.11 -17.16)" style="fill:#71777f"/><path d="M242.59,65.36c-.27.28-.92,0-1.31,0-10.11.35-20.95,6.66-20.85,19.68a22.64,22.64,0,0,0,22.48,22.74c19.93.18,25.37-26.54,15.07-37.16-2.4-2.47-7-5.4-15.39-5.31v-.24c6.42,0,11.57,1.78,15.11,5.18s5.47,8.44,5.47,15c0,13-7.74,23.62-20.58,23.62a23.43,23.43,0,0,1-23.25-23.62c0-13,10.41-20.14,23.25-20.14v.24" transform="translate(-15.11 -17.16)" style="fill:#6e757b"/><path d="M242.59,65.32c-.38.4-1.28.05-1.83.08-7.2.3-20.72,4.93-20.37,20.36.29,12.51,10.9,22.64,23.18,22.11C264,107,268.35,80,257.27,70c-3.46-3.14-8.4-4.71-14.68-4.65,6.42-.2,11.57,1.58,15.11,5s5.47,8.44,5.47,15c0,13-7.74,23.62-20.58,23.62a23.43,23.43,0,0,1-23.25-23.62c0-13,10.41-20.14,23.25-20.14v.2" transform="translate(-15.11 -17.16)" style="fill:#6b7178"/><path d="M242.59,65.29c-.36.37-1.21,0-1.73.06-7.25.28-20.88,4.9-20.52,20.41a22.61,22.61,0,0,0,23.23,22.17c19.84-.61,24.71-27.33,14.25-37.47-5.37-5.2-12.79-5.18-15.23-5.18,6.42-.16,11.57,1.62,15.11,5s5.47,8.44,5.47,15c0,13-7.74,23.62-20.58,23.62a23.43,23.43,0,0,1-23.25-23.62c0-13,10.41-20.14,23.25-20.14v.17" transform="translate(-15.11 -17.16)" style="fill:#696f75"/><path d="M242.59,65.25c-.35.36-1.17,0-1.67.06-7.83.28-21,4.9-20.64,20.45.29,12.55,11,22.73,23.3,22.22,20.54-.84,24.84-27.91,13.71-38-3.47-3.16-8.42-4.74-14.7-4.7,6.42-.13,11.57,1.65,15.11,5s5.47,8.44,5.47,15c0,13-7.74,23.62-20.58,23.62a23.43,23.43,0,0,1-23.25-23.62c0-13,10.41-20.14,23.25-20.14v.13" transform="translate(-15.11 -17.16)" style="fill:#666b72"/><path d="M242.59,65.22c-.08.08-.26,0-.37,0-13.32.19-22.16,8.17-22,19.84a22.73,22.73,0,0,0,22.94,23c20.4-.25,25.43-27.17,14.67-37.6-3.65-3.55-8.64-5.26-15.24-5.23,6.42-.1,11.57,1.68,15.11,5.08s5.47,8.44,5.47,15c0,13-7.74,23.62-20.58,23.62a23.43,23.43,0,0,1-23.25-23.62c0-13,10.41-20.14,23.25-20.14v.1" transform="translate(-15.11 -17.16)" style="fill:#63696e"/><path d="M242.59,65.2c-.37.38-1.23,0-1.76.06-10.17.34-21,6.78-20.67,20.09.3,13,10.81,23.23,23.42,22.75,20.64-.78,24.92-28,13.72-38.16-3.44-3.14-8.39-4.73-14.71-4.74,6.42-.08,11.57,1.7,15.11,5.1s5.47,8.44,5.47,15c0,13-7.74,23.62-20.58,23.62a23.43,23.43,0,0,1-23.25-23.62c0-13,10.41-20.14,23.25-20.14v.08" transform="translate(-15.11 -17.16)" style="fill:#60666b"/><path d="M242.59,65.17c-.37.38-1.24,0-1.76.06-10.15.33-21,6.68-20.73,19.83s10.22,23.12,23.24,23.11c20.27,0,25-27.57,14.5-37.73-3.66-3.55-8.65-5.28-15.25-5.27,6.42,0,11.57,1.73,15.11,5.13s5.47,8.44,5.47,15c0,13-7.74,23.62-20.58,23.62a23.43,23.43,0,0,1-23.25-23.62c0-13,10.41-20.14,23.25-20.14v0" transform="translate(-15.11 -17.16)" style="fill:#5d6368"/><path d="M242.59,65.16c-.24.24-.8,0-1.14,0-8.1.18-21.72,4.71-21.4,20.59.26,12.62,11,22.9,23.41,22.46C262.32,107.55,265.88,87,261.53,76a24.26,24.26,0,0,1,1.64,9.25c0,13-7.74,23.62-20.58,23.62a23.43,23.43,0,0,1-23.25-23.62c0-13,10.41-20.14,23.25-20.14v0" transform="translate(-15.11 -17.16)" style="fill:#5a6065"/><path d="M242.59,65.14c-.39.4-1.31,0-1.87.06-7.87.24-21.09,4.85-20.73,20.57a23.24,23.24,0,0,0,23.6,22.52c14.93-.47,21.45-14.67,19.14-28.13a28.33,28.33,0,0,1,.44,5.1c0,13-7.74,23.62-20.58,23.62a23.43,23.43,0,0,1-23.25-23.62c0-13,10.41-20.14,23.25-20.14v0" transform="translate(-15.11 -17.16)" style="fill:#575d62"/><path d="M242.59,65.13c-.37.38-1.25,0-1.79.05-7.93.23-21.24,4.82-20.87,20.59.29,12.72,11.13,23.07,23.66,22.58,13.8-.52,19.77-12.33,19.58-23.79v.7c0,13-7.74,23.62-20.58,23.62a23.43,23.43,0,0,1-23.25-23.62c0-13,10.41-20.14,23.25-20.14h0" transform="translate(-15.11 -17.16)" style="fill:#555a5e"/><path d="M242.59,65.12c-.37.39-1.26,0-1.8,0-10.21.28-21.13,6.61-20.95,19.86s10.22,23.34,23.34,23.4c10.4,0,18.14-7.43,19.73-19.06-1.46,11.09-8.86,19.51-20.32,19.51a23.43,23.43,0,0,1-23.25-23.62c0-13,10.41-20.14,23.25-20.14h0" transform="translate(-15.11 -17.16)" style="fill:#53575b"/><path d="M237.54,65.51c-22.94,3.75-22.06,29.08-7.76,38.85,11.41,7.79,27.61,4.89,32.21-10.65-2.62,8.87-9.49,15.17-19.4,15.17a23.43,23.43,0,0,1-23.25-23.62c0-11.66,8.32-18.57,19.26-19.9h0l-1.06.15" transform="translate(-15.11 -17.16)" style="fill:#4f5458"/><path d="M232.87,66.65c-20.4,7.73-14.64,32.67.45,39.85,7,3.33,20.55,4,27-8.55a19.24,19.24,0,0,1-17.73,10.93,23.43,23.43,0,0,1-23.25-23.62c0-9.77,5.83-16.2,14.16-18.81l-.63.2" transform="translate(-15.11 -17.16)" style="fill:#4c5155"/><path d="M261.87,87.13C262,70.27,253,67.6,243.76,66.3c19.73.18,18.85,17,18.11,22.14,0-.39,0-.92,0-1.31" transform="translate(-15.11 -17.16)" style="fill:#b6bcc2"/><path d="M262,86.27c-.4-14.11-6.69-18-16.73-19.84,9,.2,18.14,5.7,16.74,20.56,0-.22,0-.51,0-.72" transform="translate(-15.11 -17.16)" style="fill:#b8bec3"/><path d="M262,84.51c-.91-10.88-5.08-15.74-15.39-17.91,9.87.47,16.22,8.15,15.45,18.66,0-.22-.05-.53-.06-.75" transform="translate(-15.11 -17.16)" style="fill:#bac0c6"/><path d="M261.93,83.29c-1.1-9.45-5.15-14.22-14-16.46,6.13.17,14.56,5.67,14.09,17.39,0-.28-.06-.65-.09-.93" transform="translate(-15.11 -17.16)" style="fill:#bdc2c7"/><path d="M261.84,82.11c-1.3-8.25-5.09-12.73-12.68-15,3-.22,12.89,4.3,12.79,15.86,0-.26-.07-.6-.11-.86" transform="translate(-15.11 -17.16)" style="fill:#c0c4c9"/><path d="M261.69,81c-1.75-9.06-7-12-11.37-13.55,0,0,0-.08.08-.09.94-.29,11.28,3.69,11.43,14.39,0-.22-.09-.53-.14-.75" transform="translate(-15.11 -17.16)" style="fill:#c1c6cb"/><path d="M261.5,79.88c-1.46-6-4.63-9.84-10-12a.46.46,0,0,1-.22-.19C259.58,70,261.6,78,261.65,80.56c0-.2-.11-.48-.15-.68" transform="translate(-15.11 -17.16)" style="fill:#c3c7cc"/><path d="M261.25,78.83a17.52,17.52,0,0,0-3.49-6.66,16.15,16.15,0,0,0-5.28-3.94c-.16-.06-.16-.06-.32-.26a14.27,14.27,0,0,1,9.26,11.42l-.17-.56" transform="translate(-15.11 -17.16)" style="fill:#c4c8cd"/><path d="M261,77.82a17.06,17.06,0,0,0-3.18-5.66,15.4,15.4,0,0,0-4.4-3.5,1.33,1.33,0,0,1-.38-.32,13.66,13.66,0,0,1,8.14,10c-.05-.16-.12-.38-.18-.53" transform="translate(-15.11 -17.16)" style="fill:#c5cacf"/><path d="M260.63,76.85a16.88,16.88,0,0,0-2.84-4.71,15.14,15.14,0,0,0-3.55-3,1.66,1.66,0,0,1-.43-.36,13.46,13.46,0,0,1,7.06,8.4s-.05.07-.07.1l-.17-.41" transform="translate(-15.11 -17.16)" style="fill:#c7cbd0"/><path d="M260.35,76.14a1.47,1.47,0,0,1-.1-.22,17.21,17.21,0,0,0-2.44-3.79c-.92-1.12-2.18-1.87-3.18-2.9a13.33,13.33,0,0,1,5.88,7,.51.51,0,0,1-.16-.09" transform="translate(-15.11 -17.16)" style="fill:#c9cdd1"/><path d="M254.66,68c-1.53-.85-5.09-2.85-12.07-2.84a22.86,22.86,0,0,1,12.4,3l-.33-.21" transform="translate(-15.11 -17.16)" style="fill:#5a6065"/><path d="M259.86,75a5.69,5.69,0,0,1-.49-.78,18,18,0,0,0-1.54-2.12c-.71-.84-1.6-1.5-2.34-2.31a13.19,13.19,0,0,1,4.56,5.44l-.19-.23" transform="translate(-15.11 -17.16)" style="fill:#cbced2"/><path d="M250.81,66.3a26.6,26.6,0,0,0-8.22-1.16,25.82,25.82,0,0,1,9,1.42h0l-.77-.26" transform="translate(-15.11 -17.16)" style="fill:#575d62"/><path d="M258.86,73.37a35,35,0,0,0-2.38-2.8,13.52,13.52,0,0,1,2.9,3.45l-.52-.65" transform="translate(-15.11 -17.16)" style="fill:#cdd0d3"/><path d="M247.51,65.51a28.77,28.77,0,0,0-4.92-.38,28.71,28.71,0,0,1,5.47.48c-.16,0-.38-.08-.55-.1" transform="translate(-15.11 -17.16)" style="fill:#555a5e"/><path d="M242.59,65.12l1.18,0h0c-.35,0-.93.23-1.18,0" transform="translate(-15.11 -17.16)" style="fill:#53575b"/></g></g></g><path d="M92.15,47.27c-6.52-5.67-9.88-18.31.38-25.93,5.57-4.14,14.29-5.48,24.35,3.75,6.71,6.15,8.42,10.77,15.33,22C116.88,25.09,100.22,54.3,92.15,47.27Z" transform="translate(-15.11 -17.16)" style="mix-blend-mode:overlay;fill:url(#Dégradé_sans_nom_10)"/><path d="M222.71,130.51c2.31,2.21,4.5,13.5-8.09,18.29-11.17,4.25-22.68-5.58-26.56-11.28-2.4-3.51-8-11.92-9.85-19.69C191.17,101.25,216,119.21,222.71,130.51Z" transform="translate(-15.11 -17.16)" style="mix-blend-mode:overlay;fill:url(#linear-gradient)"/><path d="M88.53,129.22c-2,5-4.41,15.31,9.46,20,12.91,4.37,19.53-3,23.12-9.49,2-3.73,8.63-16.5,9.78-24.4C116.57,99.9,94.31,117.39,88.53,129.22Z" transform="translate(-15.11 -17.16)" style="mix-blend-mode:overlay;fill:url(#Dégradé_sans_nom_4)"/><path d="M242.56,66.77c-12.69-.19-20.3,6.75-21.41,15.36,5.73-4.27,14.89-10.89,25.31-7.79C257.07,77.49,260.31,85,260,91.12,265.07,77.24,256.68,67,242.56,66.77Z" transform="translate(-15.11 -17.16)" style="mix-blend-mode:overlay;fill:url(#linear-gradient-2)"/><path d="M230.21,103.36a18.35,18.35,0,0,0,13.39,4c8.33-.59,12.26-4.68,15.18-9.91C263.72,83.53,221.7,85.62,230.21,103.36Z" transform="translate(-15.11 -17.16)" style="mix-blend-mode:overlay;fill:url(#radial-gradient)"/><path d="M320.29,171.64a2.93,2.93,0,1,1-2.92-2.85A2.87,2.87,0,0,1,320.29,171.64Zm-5.13,0a2.2,2.2,0,1,0,2.21-2.28A2.21,2.21,0,0,0,315.16,171.64Zm1.75,1.5h-.66v-2.85a5.19,5.19,0,0,1,1.1-.09,1.79,1.79,0,0,1,1,.21.78.78,0,0,1,.28.62.73.73,0,0,1-.59.66v0a.85.85,0,0,1,.52.69,2.05,2.05,0,0,0,.21.72H318a2.61,2.61,0,0,1-.22-.7c-.05-.31-.23-.45-.59-.45h-.32Zm0-1.62h.31c.37,0,.66-.12.66-.42s-.19-.43-.6-.43a2.32,2.32,0,0,0-.37,0Z" transform="translate(-15.11 -17.16)" style="fill:#737b82"/><path d="M19.56,184.08l3.16,12.15c.69,2.67,1.33,5.14,1.77,7.61h.15c.54-2.42,1.33-5,2.12-7.56l3.91-12.2h3.65L38,196c.89,2.86,1.58,5.38,2.13,7.8h.14a72.81,72.81,0,0,1,1.83-7.75l3.41-12h4.29L42.12,208H38.17l-3.65-11.41c-.84-2.67-1.53-5-2.13-7.85h-.1a70.41,70.41,0,0,1-2.17,7.9L26.27,208H22.32l-7.21-23.91Z" transform="translate(-15.11 -17.16)" style="fill:#f4951b"/><path d="M59,177.37a2.69,2.69,0,0,1-5.38,0,2.65,2.65,0,0,1,2.72-2.72A2.57,2.57,0,0,1,59,177.37ZM54.17,208V184.08h4.35V208Z" transform="translate(-15.11 -17.16)" style="fill:#f4951b"/><path d="M86.37,172.92v28.9c0,2.12,0,4.54.2,6.17h-3.9l-.2-4.15h-.1a8.83,8.83,0,0,1-8.15,4.69c-5.78,0-10.22-4.89-10.22-12.15,0-7.95,4.89-12.84,10.72-12.84,3.65,0,6.12,1.73,7.2,3.66H82V172.92ZM82,193.81a8,8,0,0,0-.19-1.82,6.4,6.4,0,0,0-6.28-5c-4.49,0-7.15,4-7.15,9.24,0,4.84,2.37,8.84,7.06,8.84a6.54,6.54,0,0,0,6.37-5.19A8,8,0,0,0,82,198Z" transform="translate(-15.11 -17.16)" style="fill:#f4951b"/><path d="M114.17,184.08c-.1,1.73-.2,3.66-.2,6.57v13.88c0,5.49-1.08,8.84-3.4,10.92s-5.68,2.86-8.69,2.86a15.43,15.43,0,0,1-7.95-2L95,213a13.45,13.45,0,0,0,7,1.88c4.45,0,7.71-2.33,7.71-8.35v-2.67h-.1a8.53,8.53,0,0,1-7.61,4c-5.92,0-10.17-5-10.17-11.66,0-8.1,5.29-12.69,10.77-12.69a7.92,7.92,0,0,1,7.45,4.15h.1l.2-3.61Zm-4.49,9.44a6.14,6.14,0,0,0-.25-2,6.25,6.25,0,0,0-6.07-4.59c-4.15,0-7.11,3.51-7.11,9,0,4.69,2.37,8.59,7.06,8.59a6.36,6.36,0,0,0,6-4.44,7.47,7.47,0,0,0,.35-2.32Z" transform="translate(-15.11 -17.16)" style="fill:#f4951b"/><path d="M123.61,196.83c.09,5.88,3.85,8.3,8.19,8.3a15.74,15.74,0,0,0,6.62-1.24l.74,3.11a19.39,19.39,0,0,1-7.95,1.48c-7.36,0-11.75-4.84-11.75-12s4.24-12.89,11.21-12.89c7.8,0,9.87,6.87,9.87,11.26a16.37,16.37,0,0,1-.15,2Zm12.73-3.11c0-2.77-1.13-7.07-6-7.07-4.39,0-6.32,4-6.67,7.07Z" transform="translate(-15.11 -17.16)" style="fill:#f4951b"/><path d="M151.16,177.22v6.86h6.22v3.31h-6.22v12.9c0,3,.84,4.64,3.26,4.64a9.52,9.52,0,0,0,2.52-.3l.2,3.26a10.6,10.6,0,0,1-3.86.59,6,6,0,0,1-4.69-1.82c-1.23-1.29-1.68-3.41-1.68-6.23v-13h-3.7v-3.31h3.7v-5.73Z" transform="translate(-15.11 -17.16)" style="fill:#f4951b"/><path d="M161.68,203.54a11.39,11.39,0,0,0,5.73,1.73c3.16,0,4.64-1.58,4.64-3.55s-1.24-3.21-4.44-4.4c-4.3-1.53-6.32-3.9-6.32-6.77,0-3.85,3.11-7,8.24-7a12,12,0,0,1,5.88,1.48l-1.09,3.16a9.35,9.35,0,0,0-4.89-1.38c-2.57,0-4,1.48-4,3.26,0,2,1.43,2.87,4.55,4.05,4.14,1.58,6.27,3.66,6.27,7.21,0,4.2-3.26,7.16-8.94,7.16a13.62,13.62,0,0,1-6.72-1.63Z" transform="translate(-15.11 -17.16)" style="fill:#f4951b"/><path d="M188.3,178.35H178.17V174.7h24.64v3.65H192.64V208H188.3Z" transform="translate(-15.11 -17.16)" style="fill:#737b82"/><path d="M224.49,195.84c0,8.84-6.12,12.69-11.9,12.69-6.47,0-11.45-4.74-11.45-12.3,0-8,5.23-12.69,11.85-12.69C219.85,183.54,224.49,188.53,224.49,195.84Zm-19,.25c0,5.23,3,9.18,7.26,9.18s7.26-3.9,7.26-9.28c0-4.05-2-9.19-7.16-9.19S205.53,191.54,205.53,196.09Z" transform="translate(-15.11 -17.16)" style="fill:#737b82"/><path d="M251.6,195.84c0,8.84-6.12,12.69-11.9,12.69-6.46,0-11.45-4.74-11.45-12.3,0-8,5.23-12.69,11.85-12.69C247,183.54,251.6,188.53,251.6,195.84Zm-19,.25c0,5.23,3,9.18,7.26,9.18s7.26-3.9,7.26-9.28c0-4.05-2-9.19-7.16-9.19S232.64,191.54,232.64,196.09Z" transform="translate(-15.11 -17.16)" style="fill:#737b82"/><path d="M257.09,172.92h4.34V208h-4.34Z" transform="translate(-15.11 -17.16)" style="fill:#737b82"/><path d="M273,195.05h.1c.59-.84,1.43-1.88,2.12-2.72l7-8.25h5.24l-9.24,9.83L288.79,208h-5.28l-8.25-11.46L273,199v9h-4.3V172.92H273Z" transform="translate(-15.11 -17.16)" style="fill:#737b82"/><path d="M297.58,177.37a2.69,2.69,0,0,1-5.38,0,2.64,2.64,0,0,1,2.71-2.72A2.58,2.58,0,0,1,297.58,177.37ZM292.74,208V184.08h4.35V208Z" transform="translate(-15.11 -17.16)" style="fill:#737b82"/><path d="M309.53,177.22v6.86h6.22v3.31h-6.22v12.9c0,3,.84,4.64,3.26,4.64a9.52,9.52,0,0,0,2.52-.3l.2,3.26a10.58,10.58,0,0,1-3.85.59,6.05,6.05,0,0,1-4.7-1.82c-1.23-1.29-1.67-3.41-1.67-6.23v-13h-3.71v-3.31h3.71v-5.73Z" transform="translate(-15.11 -17.16)" style="fill:#737b82"/><path d="M224.73,37.79c-3.1,4.65-11.23,6.58-18.18-.29-7.47-7.39-7.18-14-2.15-17.13s13-2.75,17.91,1.55A12.09,12.09,0,0,1,224.73,37.79Z" transform="translate(-15.11 -17.16)" style="mix-blend-mode:overlay;fill:url(#Dégradé_sans_nom_10-2)"/><path d="M191.59,95.66c-.39,11.12-63.06,10.27-68.4,3.67-5.52-6.84,3.36-23.62,34.12-22.56C169.46,77.18,192.11,81.18,191.59,95.66Z" transform="translate(-15.11 -17.16)" style="mix-blend-mode:overlay;fill:url(#Dégradé_sans_nom_34)"/></g></g></svg>