<?xml version="1.0" encoding="UTF-8"?>
<svg width="100px" height="73px" viewBox="0 0 100 73" version="1.1" xmlns="http://www.w3.org/2000/svg" xmlns:xlink="http://www.w3.org/1999/xlink">
    <title>Untitled</title>
    <g id="Page-1" stroke="none" stroke-width="1" fill="none" fill-rule="evenodd">
        <g id="x-orange" transform="translate(0.060907, 0.500000)" fill="#FF9600" fill-rule="nonzero">
            <path d="M99.4390928,33.5 C99.4390928,40.6 95.3390928,46.3 88.7390928,46.3 C81.9390928,46.3 76.5390928,40.5 76.5390928,33.5 C76.5390928,26.4 81.9390928,22.5 88.7390928,22.5 C95.3390928,22.5 99.4390928,26.4 99.4390928,33.5 Z" id="Path"></path>
            <path d="M8.53909276,71.9 C4.83909276,71.9 0.539092556,67.7 0.539092556,64.1 C0.539092556,56.6 5.73909276,52.5 10.9390928,49 C13.9390928,46.9 18.4390928,41.7 18.4390928,35.3 C18.4390928,28 11.1390928,22.7 9.63909276,21.8 C5.43909276,19 -1.36090744,13.5 0.239092556,7.7 C1.13909256,4.6 4.23909276,0 9.03909276,0 L9.23909276,0 C15.3390928,0.1 19.6390928,5.7 25.4390928,16 C25.6390928,16.4 25.8390928,16.8 26.1390928,17.2 C28.4390928,21.3 30.7390928,25.5 36.6390928,25.5 C36.8390928,25.5 37.0390928,25.5 37.2390928,25.5 C42.8390928,25.2 44.8390928,22.1 47.9390928,17.5 L47.9390928,17.4 C48.2390928,17 48.5390928,16.5 48.8390928,16.1 C56.1390928,5.2 61.6390928,0.1 66.0390928,0.1 C66.6390928,0.1 67.1390928,0.2 67.8390928,0.4 C72.3390928,2 74.4390928,4.4 74.0390928,7.9 C73.3390928,15.2 69.0390928,18.1 64.4390928,21.1 L63.5390928,21.7 C60.4390928,23.8 55.9390928,29.1 56.0390928,35.4 C56.1390928,40.2 60.9390928,46.7 63.4390928,48.9 C64.3390928,49.7 65.3390928,50.5 66.3390928,51.3 C70.6390928,54.8 75.5390928,58.7 74.6390928,64 C74.1390928,67.3 71.2390928,70.2 67.5390928,71.3 C67.1390928,71.4 66.7390928,71.5 66.2390928,71.5 C61.9390928,71.5 56.0390928,65.7 49.0390928,54.7 C48.6390928,54.1 48.2390928,53.5 47.9390928,52.7 L47.8390928,52.6 C45.5390928,48.9 43.3390928,45.1 37.9390928,45.1 C37.7390928,45.1 37.5390928,45.1 37.3390928,45.1 C32.5390928,45.4 29.2390928,49.5 25.7390928,54.6 C21.3390928,60.6 13.5390928,71.9 8.53909276,71.9 Z" id="Path"></path>
        </g>
    </g>
</svg>