<svg width="197px" height="98px" viewBox="0 0 197 98" version="1.1" xmlns="http://www.w3.org/2000/svg" xmlns:xlink="http://www.w3.org/1999/xlink">
    <g id="Page-1" stroke="none" stroke-width="1" fill="none" fill-rule="evenodd">
        <g id="logo-efx" transform="translate(0.248775, 0.735685)" fill="#FF9600" fill-rule="nonzero">
            <path d="M196.251225,51.2643153 C196.251225,58.3643153 192.151225,64.0643153 185.551225,64.0643153 C178.751225,64.0643153 173.351225,58.2643153 173.351225,51.2643153 C173.351225,44.1643153 178.751225,40.2643153 185.551225,40.2643153 C192.151225,40.2643153 196.251225,44.1643153 196.251225,51.2643153 Z" id="Path"></path>
            <path d="M15.9512248,74.4643153 C13.1512248,66.3643153 20.0512248,60.2643153 20.0512248,60.2643153 C24.1512248,57.0643153 26.8512248,59.8643153 32.9512248,57.8643153 C37.4512248,56.0643153 38.3512248,51.4643153 38.3512248,48.8643153 C38.3512248,45.1643153 35.4512248,43.5643153 32.9512248,42.5643153 C27.9512248,40.6643153 25.4512248,41.7643153 21.5512248,39.4643153 C17.8512248,37.3643153 17.2512248,35.1643153 16.2512248,29.8643153 C14.6512248,20.1643153 22.7512248,11.6643153 34.7512248,16.8643153 C38.8512248,18.5643153 42.8512248,16.6643153 44.8512248,13.1643153 C47.5512248,8.26431535 41.8512248,1.06431535 30.3512248,0.16431535 C8.55122482,-1.73568465 -0.0487751806,13.1643153 0.0512248194,28.1643153 C0.151224819,36.7643153 5.35122482,40.6643153 5.45122482,49.7643153 C5.55122482,57.7643153 0.951224819,64.9643153 0.0512248194,73.6643153 C-0.948775181,88.5643153 12.8512248,97.1643153 27.5512248,96.6643153 C37.2512248,96.3643153 39.5512248,94.5643153 42.2512248,92.4643153 C47.0512248,88.5643153 42.4512248,77.8643153 34.4512248,79.9643153 C25.1512248,82.5643153 18.6512248,81.8643153 15.9512248,74.4643153 Z" id="Path"></path>
            <path d="M105.351225,89.6643153 C101.651225,89.6643153 97.3512248,85.4643153 97.3512248,81.8643153 C97.3512248,74.3643153 102.551225,70.2643153 107.751225,66.7643153 C110.751225,64.6643153 115.251225,59.4643153 115.251225,53.0643153 C115.251225,45.7643153 107.951225,40.4643153 106.451225,39.5643153 C102.251225,36.7643153 95.4512248,31.2643153 97.0512248,25.4643153 C97.9512248,22.3643153 101.051225,17.7643153 105.851225,17.7643153 L106.051225,17.7643153 C112.151225,17.8643153 116.451225,23.4643153 122.251225,33.7643153 C122.451225,34.1643153 122.651225,34.5643153 122.951225,34.9643153 C125.251225,39.0643153 127.551225,43.2643153 133.451225,43.2643153 C133.651225,43.2643153 133.851225,43.2643153 134.051225,43.2643153 C139.651225,42.9643153 141.651225,39.8643153 144.751225,35.2643153 L144.751225,35.1643153 C145.051225,34.7643153 145.351225,34.2643153 145.651225,33.8643153 C152.951225,22.9643153 158.451225,17.8643153 162.851225,17.8643153 C163.451225,17.8643153 163.951225,17.9643153 164.651225,18.1643153 C169.151225,19.7643153 171.251225,22.1643153 170.851225,25.6643153 C170.151225,32.9643153 165.851225,35.8643153 161.251225,38.8643153 L160.351225,39.4643153 C157.251225,41.5643153 152.751225,46.8643153 152.851225,53.1643153 C152.951225,57.9643153 157.751225,64.4643153 160.251225,66.6643153 C161.151225,67.4643153 162.151225,68.2643153 163.151225,69.0643153 C167.451225,72.5643153 172.351225,76.4643153 171.451225,81.7643153 C170.951225,85.0643153 168.051225,87.9643153 164.351225,89.0643153 C163.951225,89.1643153 163.551225,89.2643153 163.051225,89.2643153 C158.751225,89.2643153 152.851225,83.4643153 145.851225,72.4643153 C145.451225,71.8643153 145.051225,71.2643153 144.751225,70.4643153 L144.651225,70.3643153 C142.351225,66.6643153 140.151225,62.8643153 134.751225,62.8643153 C134.551225,62.8643153 134.351225,62.8643153 134.151225,62.8643153 C129.351225,63.1643153 126.051225,67.2643153 122.551225,72.3643153 C118.151225,78.3643153 110.351225,89.6643153 105.351225,89.6643153 Z" id="Path"></path>
            <path d="M91.7512248,17.1643153 C96.2512248,13.8643153 96.1512248,7.16431535 91.1512248,3.86431535 C91.1512248,3.86431535 86.5512248,0.26431535 78.9512248,0.26431535 C60.8512248,0.26431535 49.3512248,12.2643153 49.3512248,27.9643153 C49.3512248,36.9643153 53.9512248,43.4643153 53.9512248,52.9643153 C53.9512248,61.3643153 50.2512248,64.3643153 49.2512248,73.4643153 C48.6512248,78.2643153 49.6512248,87.4643153 51.8512248,91.2643153 C55.6512248,97.6643153 61.6512248,98.4643153 67.2512248,94.9643153 C71.0512248,92.0643153 70.8512248,87.6643153 69.6512248,84.9643153 C68.4512248,82.2643153 65.9512248,79.5643153 64.6512248,74.7643153 C63.1512248,68.9643153 65.9512248,63.0643153 68.9512248,60.3643153 C72.6512248,56.9643153 76.8512248,59.2643153 83.2512248,57.0643153 C85.6512248,56.2643153 87.8512248,52.6643153 87.8512248,49.6643153 C87.8512248,45.6643153 84.9512248,42.8643153 82.3512248,41.7643153 C77.0512248,39.6643153 72.3512248,40.5643153 69.1512248,38.7643153 C67.8512248,37.9643153 64.4512248,35.6643153 64.4512248,30.0643153 C64.3512248,19.0643153 71.6512248,12.2643153 80.8512248,16.1643153 C84.5512248,17.7643153 87.9512248,19.8643153 91.7512248,17.1643153 Z" id="Path"></path>
        </g>
    </g>
</svg>