<svg xmlns="http://www.w3.org/2000/svg" width="400" height="250" viewBox="0 0 684.3 540.5">
  <path fill="#FF9600" d="M675.7 323.5l4.6-2.4v-.3h-.2v-.3l-.4-.2-1.7-.5h-54c-6 .2-12 .2-18 0-.5-.6-.4-1 .2-1.6-.6-.3-1-.7-1.4-1.3h-.4l-.2.5-.2.6-.2 1 .5 3.4v48c0 3 .6 5 1.5 6.5 25 1 49.7.3 74.4-1.6-.4-12.8-1.4-25.4-3-37.7-.7-3.3-1.3-6.7-1.8-10.2-.6-.7-1-1.4-1-2 .7-.5 1-1 1.3-1.5zm-65 50c-1-.3-1.7-.8-2.4-1.6-1-16.3-.8-32.4.4-48.3 3.8 16 6.5 32.3 8 48.8-1.8.5-3.8.8-6 1zm65.5-2.5c-16 1.6-32 2.5-48.4 2.6-1-.3-1.7-.8-2.4-1.6-1.4-16.2-3.7-32-7-47.8 12-.7 24-1 36.4-.7 4.8-1.2 9.3-1.3 13.5-.5 2 4 4 11.6 5.5 23 1.5 11.3 2.3 19.6 2.4 25z"/>
  <path fill="#FF9600" d="M679.5 439.8l-1-.3h-2.8c-2.2 0-4.4.3-6.5.6-2 .5-4.3.6-6.5.6h-4c-.3-.7-.8-1.2-1.5-1.5v-.2l.5-.4.8-.4 1.2-.4h3l6-1c3.4 0 6.6 0 9.6.3 0-.5-.2-1-.3-1.2l-.6-3-2-3.4-1.2.8-2.6-2.3c-1.2.2-2.2.7-3 1.7-2.6-1-5-.7-7 .8-.8-1-2-1.4-3.8-1.6l-2 2v.5c-1.4-.7-3-1.3-5-1.6-.8.3-1.5 1.2-2 2.7l-.2-.2-2.8-1.5c-1 .6-1.8 1.5-2.2 2.8-4.7 1-8.8 1-12.4-.4-1.7-7-2-14-1-21-.5-3-1-6-2-9-.4-5.8-.5-11.2-.4-16.3 16.8-1.4 33.6-2 50.2-1.4v.7l1.8-1.4c0-1.4 0-2.7-.3-4-15.5.6-30.8 1.2-46 2l-15-.6c-6.3-.3-11 0-14 .5-.5 1-.7 2-.4 3.4v10c.8 16 .5 31-1 45l-1.8-2c-.5-10-.5-20 0-30 0-3.2 0-7.7.3-13.6s0-10-.4-12.5c-.7-1.4-1.3-2.7-1.7-4 2-9.3 2.7-19 1.8-29 1.8-12 1-23-2.5-33.3-8 3.6-17.4 4.5-28 2.8-24-1.4-48-1.7-71.8-.8-2 2.7-2.5 6-1.6 10.3v33c-.6 4.6 0 8.4 1.7 11.4 6.7-.4 13.3-.3 20 0 8.8 1 17.8 1.2 27 1 6 .8 12.2 1 19 1 10.6 0 21.2.3 31.8 1.3.6.7.8 1.5.6 2.3.3 1 0 1.7-.5 2.4-9 .2-18 0-27-1-24.2-1.5-48.4-2-72.3-1.2.8 19.2.4 37.5-1 55-.8-.7-1.5-1.4-2-2.2-.4-8.3-.4-16.7 0-25v-61c.8-10.4.3-20.2-1.7-29.3-5.6 2-15 2.8-28 2.5l-31-.7h-17.8l-2-2.8c-3.6 10.6-4.5 22-2.6 34.2-.8 8.2 0 16 2 23.2l-2 5.8v22c.5 9.7.5 19.3 0 29-.4.6-1 1-1.4 1.3-.5-.3-1-.8-1.3-1.3-.6-7-1-16-1-26.8s.5-19.5 1.8-26c-10-.5-19.7-.4-29.3.3-6.8-.7-13.5-.7-20 0-3.8 1-7.8 1.3-12 1-1-1-1.6-2-1.4-3.3.4-.6 1-1 1.5-1.5 5.4.2 10.7 0 16-.3 14.6-1.3 29.6-2.3 45-3-1-6.8-1.4-15.3-1.3-25.5 0-10.2.4-18.7 1.2-25.5-9.4-1-20.4-1.2-33-.3-12.5 1-22.7.2-30.6-2.2-.6.6-1.3 1.3-1.8 2.2-1.2 18-1.2 36.3 0 54.8.5.8 1 1.5 1.8 2.2l-2 5.8v22c1.7 11.6 1 22.3-2.4 32.3-2.3-13.7-2.8-27.8-1.5-42.3 2.2-7.2 1.2-13-2.8-17l1.2-2.6c.8-.6 1.6-1 2.5-1.5l-1-9.8v-32c2-6 1-11-3-15 7.3-2.8 15.5-3.6 24.5-2.5h53l191 1h51c9 1 17.3.3 24.6-2.5-.7-.4-2-1-3.4-1.5l-4.5-.5c-1-1.6-1.4-3.5-1-6-1.8-6.2-3.5-12.6-5-19-4-15-8.3-30-13-45-4.4-10.8-8.4-21.8-12-33-3.7-8-7.6-16.2-11.8-24.2-5-10.5-10.4-20.7-16.7-30.4-18-30-40.6-57-67.5-80.5-14-11-28.5-21.5-43.8-31 9 3.4 19 8 29.6 14 10.7 6.2 19.7 12.6 27 19 5.8 4.3 11.5 8.7 17 13 13 13.3 25.4 26.4 37.6 39.6 2.3 2.8 4.3 5.8 6 9 6 7.6 11.4 15.8 16.6 24.4l10.8 17.2c10 20 18.8 40.5 26.2 61.3 1-.2 2-.4 3-.4l.2-1.4c-1.3-3.4-2.7-7.3-4-11.6-5.8-16.7-13-33-21.3-48.8L639 159c-8.4-15.8-19-30.3-31.6-43.4l-7-9C583 87.4 563.4 71.2 542 58c-13-8.6-26.6-16-40.8-22.3-8.8-2.7-17.5-5.7-26-9-10.3-3-21-5.7-31.8-8.2-6-2-11.6-3.7-17.2-4.8-4.5 0-8.8-.5-13-1-9.4-2-19-3-29-3-3 .2-6 .2-9 0-7-.4-14-.8-21-1-1.2-.7-2.5-1-4-1-5 .2-10 .5-15 1-5.4 1-11 1.8-16.8 2-3.7.7-7.5 1.7-11.2 2.8-12.5 2.4-24.7 6-36.8 10.2-2.4 1.2-5 2.4-7.2 3.8-12.5 5.3-24.7 11.5-36.4 18.6l-9 7c-20 13-38.3 30-55.3 51.3-17 21.2-30.6 42.5-41 63.7-6 11.2-11.3 22.7-15.7 34.3-9.3 25.6-16.6 51.6-22 78l-4 21c-.3 2.6-.7 5-1.2 6.8-12.7 1.2-25.8 1.4-39.2 1-1.4.7-2.6 2-3.5 3.4-1.7 2.3-1.2 4 1.3 5.3l4.2 1.8.8.2c1.2 0 2.2.2 3 1 .8 5.7 1 11.6.5 17.5.3 5 .2 10-.2 15-1.7.6-3.8 1.2-6.2 1.7-1.8 1.4-3 3-3.6 5.2-.4 2.5 1 4 4.2 5l2.6.6 2.2 1 .5.2h.2l.2.3v.2c1 12 1 23.6-.4 35.2l-32.8 2c-4.2-.8-7.6.2-10 3-1.3 8-1.7 17.2-1.4 28 .5 10.6.8 20 1 28.6.3 4.7.3 9.4 0 14-.8 1.3-1 2.6-1 4 3.6 3.3 8 4.7 13 4-.3 4.4-.4 8.5-.4 12.4 2.3 2 5.3 3 9 3l28.8 3.2c6 1 12 1.8 18.2 2.7 29 3 58 6.5 87 10.2 6 1 12 2 18 2.7 7.2 0 14.2.8 21 2 3.7 1 7.4 1.6 11 2l24 3c4.5 0 8.8.3 13 1 6.4 1.5 12.7 2.5 19 3l24 3c4.5 0 8.8.3 13 1 3.7 1 7.4 1.6 11 2L329 540c0-.4.3-.6.5-1v-1.4c-.4-.8-1-1.6-1.3-2.4-1.2 0-2.4-.3-3.6-.4-10.2-.2-20.2-1.2-30-3-6.4-1.5-12.7-2.5-19-3l-40-5c-10-.2-19.5-1.2-29-3l-24-3c-3.4-1-6.8-1.5-10-1.8-11.3-1.5-22.3-3-33-4.2-4.5 0-8.8-.3-13-1-3.7-1-7.4-1.6-11-2l-25-3c-4.5 0-8.8-.3-13-1-6.6-1.5-13.3-2.5-20-3-10.3-1.4-20.3-2.7-30.2-3.8-3.3.4-6.2 0-8.8-1.2-1.2-9-1.4-18-.6-27.4l-.8-25.8s0-18 1.3-24.8c1-1 2.4-1.3 4-1l14-1h14.8c6.3 0 11-.4 14.2-1 10-2.3 19.8-2.3 29 0 2.8-3.8 7-5.3 12.3-4.6-2.7-14.3-3.4-28.7-2.2-43.2 6.8.3 13.6.8 20.2 1.5.5 10.5 1.3 20.8 2.2 30.8v9c1.4 2.8 2 5.7 2 9h-.3l-1.5 1-3.6 1.8c-3 1.5-5 3-5.5 4.4-.4 5-.6 12-.7 20.5 0 8.4.3 15 1.2 19.8l.2.2.2.2 1.2.6 4.3 1 12.2 1h.8l40 4c6 0 11.5.3 17 1 8 1.6 16 2.6 24 3 2.7-.3 5.4-.3 8 0l20 2c4.7 1 9.4 1.7 14 2 6.2 0 12.2.3 18 1 8 1.7 16 2.7 24 3 2.4-.2 4.7-.2 7 0 7.6 2 15 2.7 22.5 2.5 1-3 1.4-6.6 1-11-.4-12-.2-23.8.6-35.3l16 .8c3.8-1 8.2-2 13-3l36-3c7 1 13.8 1.4 20 1 6-1.8 11.6-2.8 17-3 16.7-2.4 33.5-2.2 50.3.7-3.5 3.2-6.4 4.6-8.8 4-2.4-.4-5.7-.3-9.7.3-16 2.4-32 3.8-48.8 4.2-1 .7-1.5 1.4-1.5 2.2 16.8-.2 33.6-1.3 50.3-3.4 7.4 0 14.7-.3 22-1 3-.4 5.6-.7 8.2-.8 2 .2 4 0 6-.2 1.4-.6 2.6-1 3.4-1.5-.3-.7-.5-1.6-.4-2.5-1.7-1-3.5-2.4-5.4-4.6-.7-16.5 0-32.6 2.5-48.3 7.8-1 15.5-1 23-.3 4 1 7.6 1.5 11 2 2.2-.5 4.5-1 7-1l9 .2h2l.6.3.8.3h.3l.2.3c.6 4.7.5 9.2-.4 13.2-.6 7-1.2 13.6-2 20 .3 2.4.3 4.7 0 7-1 4-1.5 7.8-1.4 11.5v.3l.7.8.2.2 1 .7 1.4.8.8.3 3.3.8 2.8.3 21.4.3 2.2.2 1 .2c.8.3 1.6.8 2.4 1.7-.2 1.3 0 2.4.8 3.2 4 .7 8 1 11.7 1 3-.5 6-1 9-1l3.2-3c8.7.5 17.4 1.2 26 2 6.3 0 12.3-.5 18-1 6.6.2 13-.3 19.5-1.4.4-.5.7-1 .8-1.4 0-.7 0-1.4-.3-2zm-634-78.3h-3l-2-1.4c3.4-3 5-2.5 5 1.5zm287-54l-.8-1-1-1.6v-1.3c3.8.8 5.8 3 6 7-1.4-1-2.8-2-4-3.2zm-13 6c3.3 3 6 6.3 8 10 1.2 2 2.2 4 3 6 1 1 1.4 2.3 1.6 3.5l-.3 2.7c-4 .6-8 1-12 .8-1-1-2.2-2.5-3.5-4.6l-2-6c-1.6-3.8-3.4-7.3-5.2-11-3-5.3-6.7-10.3-10.8-15 8.4 2.2 15.6 6.6 21.4 13.5zm-32-21.5c13.7-3.6 26.3-.6 37.5 9 .3 1.3 0 2.4-.4 3.5-5.8-3.8-11.8-7-18-10-6.3-1-12.7-1.8-19.2-2.5zm122.2 17.5c-19.4 1-39 1.2-59 1-7.6-3-14.5-7.8-20.5-14.6-4.8-3.7-10-6.5-15.6-8.5-11-3.4-22-3.5-33 0-4.4-.3-8.8-1.3-13-3-3.6-.2-7.2-.2-11 0-17.2 2.7-31.4 11.2-42.4 25.4l-15-1.2c3.5-17.8 8.2-35.5 14.3-53s15.5-33.5 28-47.5l3-6c13.2-15.7 28.2-28.6 45.3-39 14.4-7 27.5-11.7 39-13.6 11.8-2 25.7-2.3 41.8-1.3 7 1.6 14 3.8 21.2 6.8 7.8 2.2 15 5.4 21.4 9.6l11.5 12.5c.3 2.8 1 5.2 2.6 7.4 9.8 6.8 17.3 16 22.4 27.6 17.7 30.3 29.5 62.4 35.4 96.5-25.2 1.5-50.7 1.7-76.3.7zM199 284c-2 8.2-3.8 16.3-5.6 24.4h-18c-1.2-2.3-1.3-4.8-.4-7.4l1-8c1-4.8 2.2-9.5 4-14 2.3-9.6 5.3-19 9-28 4.8-11.3 10-22.5 15-34 7.3-14 17.8-28.2 31.7-42.8 14-14.5 28-25.4 42-32.7 11-5 22-9.3 33-13 2.7-.8 5.7-1.2 8.7-1.2 2.7-.4 5.5-1 8-2 3.4-.2 6.7-.2 10 0l9-1c2.3.3 5.7 1.4 10.3 3.2s8 3.3 10.3 4.4v.5l.3 1.4 1 2.6 4.2 7.6c2.4-1.4 4.7-3.3 6.8-5.8 7 4.3 13.6 9 19.5 14.2-10.2-3.2-20.7-6-31.5-8.4-9.2-1-18.6-1.6-28.2-1.5 5.4-5.3 6.5-9.3 3.3-12-3.2-2.7-6-.7-8.3 6 .7 1.7 2 4 3.8 7-9.7 2-19.5 4-29.2 6.4 4.5-9.3 3.7-13.6-2.4-12.8-6 .8-5.6 5.4 1 14-31 12.5-56 32.7-75.3 60.6.3-3.7-1.5-7-5.6-9.5-1.8 1.2-3.2 2.7-4.4 4.6-.6 7.2 2.2 9.4 8.2 6.4-5 9.8-10.7 19.6-16.8 29.6-4-8.4-7-9.6-9.5-3.8s0 8.4 7.7 7.7c-3.6 10-7.5 20-11.5 30-1.4-1.4-3-3-5-4.7-2.6 1-4.7 3-6.2 5.5 1.7 6.2 5 8.2 10 6.3zm-31 24c-8.6 1-17.4 1.2-26.4.5-1-.4-1.5-2-1.4-4.4l1-4c.4-2.7 1-5.4 1.8-8l3.6-16.5c2.6-10.5 6-20.7 10.4-30.6l14.2-32c1.6-3 3.4-5.7 5.4-8.5 2-1.4 3.6-2.8 5-4 4.2-11.5 12.4-23.2 24.7-35.2 12.3-12 24-21 35-27 6-3.3 13-7 21.3-11 8.4-4 15.7-6 22-6.8 4.8.6 9.4 1.2 14 2 1.7-1.4 2.8-2.6 3-4 9-1 17.5-.7 26 1-14 3.3-28.7 7.7-44 13-5 2.5-9.8 5.3-14.5 8.4-13 7-26 17.6-39 31.8-13.2 14.3-23 28-29.8 41.2-6.3 11.2-11.6 22.5-16 34l-11 36c-1.5 6.3-3 12.6-4 19 .3 2 0 3.8-1 5zM309 37.3c1.5.5 2.5 1.4 3 2.7.6 7.2.3 14-1 21-2 0-4-.6-6.4-1.6.5-4.2.4-8.4-.5-12.5-6 2.6-13 4.8-20.3 6.5-10.6 3.4-21 7.8-31 13l-20.2 12.2L231 80l-.4.4c0 1.8 0 3.6.3 5.4v.2l-1 .8-2 1.7-10.3 6c-1-.3-1.7-1-2.4-1.6-1.3-4-1.8-7.7-1.6-11.5.4-1 .6-2.7.6-4.6-.2-1-.5-1.8-.8-2.3 0-.6 0-1-.4-1.6 15.6-11 30.8-20 45.5-26.7 14.7-6.6 31.4-11.8 50-15.6-1.3 4-1 6.2.4 6.6zm46.5 28.3c-.5-.5-1.3-.8-2.4-.6-9-1.5-18-2.4-27.4-2.5-4.2 0-8-.8-11-2-1-6.3-1-12.8-.4-19.4.7-2.5 2-4.2 3.6-5 1.7-1 1.2-3.3-1.6-7 40-5.5 77.5 0 112.8 17-2-.7-3.5-.3-4.8 1 0 3.7.5 7 1.8 10l-.2 1-8.5 23.4-3.8 1.2c-1 1-1.7 2-2.2 2.8L398 81.2l15.6 9.2 4.8 1.2c6.3 4.4 13 8.5 19.6 12.4 3.3 2.2 6.3 5 9 8 3.5 2.7 7 5.6 10.5 8.5l1 3 8.2 8.5c-3.2-.2-6.2.3-9 1.6-9.3 10-18 21-26.3 33C422 157 412 148.2 402 140c-10.5-7.5-21.4-14-32.8-19.4l-19-7c-4-1-7.8-1.6-11.8-2.2-3-1.5-5.4-2.7-7.2-3.8-9.5-.7-19-1-28.8-1.2-.5-5-1-11.5-1-20-.3-8.3.4-14.6 2-18.8 3.4-1.2 7.3-1.6 11.8-1.2 6.8-.2 14 0 21 0l10.2 2 5.4.6h4.2l.6-.4.3-.2V68c-.6-.7-1-1.5-1.5-2.4zm78.2-15c3 1 6 2.6 9.2 4.7L462 67c2 1.7 3.5 3.2 4.6 4.4 4 2 10.2 6 18.2 12.5 8 6.3 13.2 11.4 15.2 15-1 2.7-2.6 5.4-5 8l-9 14c-1.6 2-3 4.3-4.5 6.5l-2.5 3.5c-1.5 1.7-2.6 2.5-3.5 2.5-9.3-9-19-17.2-28.8-25-5.2-4-10.4-8-15.8-11.5-4.2-2-8-4.4-11.8-7-.8-3-.2-6 1.8-9 1-4.3 2.6-9.8 4.8-16.6 2-7 4.7-11.4 7.7-13.7zm-2-4c15.3 6 29.6 14 43 23.8.3 1 .3 1.5 0 2-7.6-5-15-9.6-22.2-14-8.2-2.5-15-6.5-20.7-12zm44 26c15 9.5 28.6 21 41 35 .3.8.3 1.4 0 2-7.5-6.5-14.7-13.3-21.5-20.6-7-5.4-13.4-11-19.4-16.4zm1.3 70.2l-2.4.6c-2.3-1.3-2.7-2-1.3-2.4.8 0 1.5 0 2.2-.5h.2l.2.2v.2l1 1.4v.4zm-12.3 1.7c-1.2-.5-1.4-1.4-.5-2.5.7-1 1.5-1.4 2.4-1.4 1.5 2 .8 3.2-2 4zm-7.5 8.5c0 1.3-.4 2.3-1 3l-.5-1.5 1.3-1.4h.2zm-3 4c0 1.3-.4 2.3-1 3l-.5-1.5 1.3-1.4h.2zm-3 4c0 1.3-.4 2.3-1 3l-.5-1.5 1.3-1.4h.2zm-2.5 3.7c-.3 1-1.2 2.3-2.5 4.2-1 0-1-.8 0-2 1-.7 1.7-1.5 2.5-2.3zm-4.5 5.3c0 1.3-.4 2.3-1 3l-.5-1.5 1.3-1.4h.2zm-3 4c0 1.3-.4 2.3-1 3l-.5-1.5 1.3-1.4h.2zM287.5 69.6c.7 9.6 1 19.4.6 29.4.7 3.4.3 6.3-1 9-10 1.8-19.7 4.4-29.2 7.7-32.4 15.8-59.4 38.4-81.2 68l-7.5-9-8.2-11.3-.7-1.3c2-5.2 6-11.4 12-18.4s11.2-12.7 15.6-17c27.5-30 60.8-49 100-57zM239 79c.7.3 1.2.3 2 0-.5.3-1 .8-1.3 1.5L239 79zm5-3c.7.3 1.2.3 2 0-.5.3-1 .8-1.3 1.5L244 76zm13.6-5.5l1-2c1 0 2-.3 3-1l-4 3zm-79 114.5l13-15.6c6.5-7 13.4-14.3 20.4-21.5 14.7-12.5 31-22 49.4-28.7 6.6-2.5 13.3-4.5 20-6 2.2-.7 4.2-1 6-.8.4 1 1 1.7 1.5 2.5-.5.8-1.3 1.6-2.6 2.2-6.8.7-13.4 2-19.8 4.2l-19 8c-4 2.2-8 4.7-11.7 7.4-23.6 14.8-43 34-58.6 57.5-.6-1.3-1-3-1.4-5.4l2.7-4zm101-118.5v-1c4.2-1.8 8.4-3 12.4-3.3-3.6 2.5-7.7 4-12.4 4.3zm-12-1v-1c11-5.3 22-8.7 33.4-10.4l-33.4 11.5zm34 45c12.8-.7 25.2.6 37 4 2.7.2 5.3.7 8 1 5.5 2.3 11.2 4.3 17 6 3.8 1.7 7.5 3.6 11.2 6 22.6 10.6 40.7 26 54.4 46.5-4.8-3.8-9-8-13-13-4.2-4-8.8-8-14-12-6.7-6-15-11.6-25.4-16.5-10.4-5-19.8-9-28.2-12-7.6-2.3-15.5-3.7-23.8-4-4-.5-8.5-.8-13-1h-11l-.6-.2-1-.5-.6-.3-.2-.2v-.2c.5-1.6 1.7-2.7 3.3-3.4zM213.3 93l.8 2.6v1.4c-4.8 4.4-9.8 8.4-15 12-12.4 11.4-23.5 23.6-33.5 36.6-3-3.5-5.5-7.3-7.5-11.5v-.3l.6-1 10.8-13.3c4-4.4 7.7-9 11.4-13.6l1.6-6.4c7.5-7.3 15.2-14.2 23-21l5.7 10 2.2 4.4zM162.8 149l-1.2 2.5-3-1c-2-.4-4-.8-6-1-1 .6-1.7 1.5-2.4 2.6-2 2-4.4 6-7.5 11.8l-6.8 13c-3.3 5.5-6.2 11-9 16.4-5.8 15.7-11.8 31.4-18 47-2.8 10-5.5 20.4-8 31-2.6 9-4 18.4-4 27.8.5 1.5 1.5 2.4 3 2.7 1.6.3 2.6 2 3 5.4-2 2-4.3 2.4-7.4 1.7-4.2-8.4-4-17.2.3-26.7 1.2-6 2.5-12 4-18 2-10 4.3-19.5 7-28.8 3.3-7.5 6-15.2 8-23 2.5-5.8 5-11.5 8-17.2 3-8.3 7.3-17.5 12.8-27.5s11-18.5 16.3-25.4c1.3-.6 2.4-.5 3.6.3 3.5 0 6 2.3 7.2 6.7zM150 162v-.7l.2-1 .7-1.4 2.5-4.2c2 3.5.7 6-3.4 7.2zm-49 135c.7-12 3-23.6 7-35 1.2-6 2.6-12 4-18 9-27.4 21-54 35.6-79.3l1.5 3.2c-.8 3.2-2.4 6.6-4.8 10-5.7 9.8-10.7 19.8-15 30l-15 42c-4.3 16.2-7.8 32.7-10.7 49.4-1-.5-1.7-1.4-2.4-2.5zm7 2l1.8-10c1-6.8 2.5-13.5 4-20 2-8.4 4-16.7 6.2-25 7.7-23.7 18-46.5 30.5-68.3 4.7 5.4 9 11 12.6 17.2 1.7 1.7 3 3.5 4 5-8.5 15.2-16 31-23 47-3.8 14-7.8 27.5-12 41-1.3 7-2.5 14.3-3.5 21.5-1.4 1-3 1.4-5 1-5 .2-10 .2-15 0-1.7-2.7-1.8-5.8-.5-9.5zm25-1c.5-4 1.2-8 2-12 1.5-7.2 3.5-14.2 6-21 4.3-13.4 9.3-26.7 15-40 3.5-7 7-13.8 10.6-20.5.6-2 1.7-3.8 3-5l2.7 1 1.5.5c-5.8 9.4-11 19-15.6 29-5.3 14-10.3 28-15 42-3 11.8-5.5 23.8-7.2 36-1 .5-2 .7-3.4.5h-.2v-.2l-.3-.5V304l1-6zm351.3-16c-2.5-8-5-16-7.3-24-2.4-6.6-5-13.3-8-20-6.2-13.4-13.3-26.2-21.4-38.5-4-5.6-7.5-11.2-10.8-17 7 6.4 12.6 14 16.8 23 6 9.7 11.6 19.5 16.4 29.6 6 16.2 11.6 32.3 16.6 48.5-.8-.3-1.6-1-2.3-1.6zm6 26c-1.6-7.3-2.8-14.4-3.5-21.3 2.6 6.8 4.5 14.3 5.5 22.4-.7 0-1.4-.4-2-1zm10.4 2.5c-1.2-.4-2.2-1-3-2L493 287l-9-30c-7-18.8-15.7-37-26.3-54.5-5-7.2-9.7-14.4-14.5-21.5 1.5-2.4 3.5-5 6-8l17.2-23 1.4-1.6.4-.3.7-.4c4.8 0 9.7.2 14.7 1l.5.2 2.5 2.2 4.6 5.7 15.6 23.7c24.3 40.4 39.7 83.5 46 129-17.2 2-34.6 2.2-52.3 1zm104.5-6.5l-2 2.2c0 1.7-.3 3-1 3.8-5.5 1-12.4 1.5-20.8 1.2l-21.7-.7c-1.3-.3-2.4-1-3.4-1.6-1-6.8-2-13.4-3.2-20-3.7-13-7.3-26.5-11-40-8.6-27-20.7-52.4-36.3-76.6-4-7-8.8-13.8-14-20-2.6-2.7-4.7-5.3-6.5-7.6 1-4 .2-7.6-2-11l.5-2.2 2.5-4.8 5.7-8.7 8-11c1 .2 2.2.4 3.4.4l3.2-3.6c2.4 2.2 4.7 4.4 7 6.8 1.8 3 4 6.8 7 11C537 139 551.4 160 564 184.8c12.4 24.8 22 48.5 28.2 71.2 3.7 13.8 7.7 27.6 11.8 41.2 1 2.3 1.4 4.6 1.2 6.8zm-521-3c.4-3 1-6 1.8-9 1-5.8 2.2-11.5 3.8-17 2.7-13.5 5.8-26.7 9.2-40 5-13.3 10-26.7 14.8-40 11.3-30.8 29.2-60.7 53.6-90s51-51.4 80.2-66.5c14.5-6.8 29.2-12.8 44-18 5.2-1.7 10.4-2.8 16-3.2 6.3-1 12.6-2.3 19-4h7l17-2c7.2.4 14.5.8 22 1l26 4 21 3c2-1 4-1.6 6-1.8 17 4.5 34 9.8 51 16 12 5.7 23.6 12 34.6 19.4 19.2 10.7 38.5 26.8 58 48.3s34.2 42 44.2 61.5c9.8 16.6 18 34 25 52 3.2 9.4 6.8 19 10.8 28.2 3.2 9.8 6.2 19.8 9 30 .6 3.6 1.4 7.2 2.2 10.8 3.4 8.3 5.4 17 5.8 26-15.6 1-31.4 1.2-47.4.7-6.3-10-10-21.5-10.7-34.4-1.4-5-3.3-10.4-5.7-16-2-5.5-3.3-11-4.2-17-2-6-4.7-12.4-7.7-19-1-4-2-7.5-3.2-11-5.4-10-10-20.3-14-31-.7-1-1.6-2-2.6-3l-12-21c-6-9.6-12-19-18.6-28.5l-5-4c-9.8-13.7-21-26.5-33.5-38.5l-12-9c-8-7.6-18.6-15-31.3-22.6-12.8-7.4-24.5-12.8-35-16-5-1.8-9.7-3.7-14.3-5.8-7.8-2.2-15.8-4.2-24-6-7-1.2-14.3-2.2-22-3l-36-1c-2.4-.4-6.3 0-11.7 1-5.5 1.2-9.6 2-12.3 2.8-11.3 2.8-22.5 6-33.8 9.2-9.7 3.8-19.2 8.4-28.4 13.8-5.8 2.8-12.2 6.5-19.4 11-7 4.8-12.5 9.6-16 14.6l-7 6c-3.7 3-6.4 5-8 6l-5.5 6.5c-9.4 10-18.4 20-27 30-6.4 7.8-12 16.3-16.6 25.4-7.5 12-14.4 24.4-20.7 37.2l-18 48c-3.7 11.6-6.8 23.6-9 36-1.4 6.2-2.8 12.6-4 19l-2 9-1 5-1.2 4-.2.4v-.2l-.2-.2v-.2l-.5-2v-5zM44.4 412.6c-1.5.3-3.2.3-5 0-3 0-6 0-9 .2-1.4 0-4 .3-8 .8l-3.7.6-2.4 1-.5.2-.3.2-.2.2c-1.6 4.8-2.3 12.5-2 23 0 10.3.3 18.5.5 24.5s.2 12-.2 18c-1 .6-2 .8-3.3.6-1.7-.4-3.2-1-4.4-1.6-.2-5.3-.2-10.6 0-16v-38c-.7-6-.3-11.6 1-17 3-.6 6.5-1 10.5-1.4 7.6-.7 15-1 21.8-.8l2.2 3.8 5.2.8c-.7 0-1.5.5-2.2 1zM56 394v-9-17.8c4-.5 8.2-.7 12.5-.7 1.3-.2 2.5 0 3.5.5.7 9.6.3 20-1.2 31-4.7 0-9 1.3-13.3 3.5-1-1.8-1.5-4.3-1.5-7.5zm2.5 17.5v-1c6-2.7 12.8-3.6 19.8-2.8 1 .7 1.5 1.4 1.5 2.2-7 .8-14 1.3-21.3 1.5zm20-43.8c.6 9.7.2 19.5-1.4 29.3-.6 0-1.2-.4-1.8-1-.7-10.4.4-19.8 3.2-28.3zM102 406c-.5 1.2-1.3 1.7-2.5 1.5-5.6-.2-11-1-16-2-.6-1-.7-2.2-.5-3.5-1-8.6-1-17.3 0-26-.6-3.3 0-6 1.6-8.3 12.3-3.8 17.4 0 15.2 11.2l-4.5.2H94l-.8-.2H93l-5.5-2.3c-1.8 1-3 3-3.6 5.3-.2 2.2.4 4.2 2 6h-.2l-.2.2-.5.8v1l-.2 3.2.5 4.8v.5c3 2.6 5 2.3 6.2-.8 8-2 11.4.7 10.5 8.3zm-1-13c-2.4.3-4.8.5-7.4.6-1-.3-1.7-.8-2.4-1.6 0-6.5 1.5-9.6 4.4-9.3s4.5 3.7 5.3 10.3zm7.5-28.5c-19-1.6-38.2-2-57.4-1.3 1.8 13.7 2 27.6 1 41.8-.7 0-1.3-.4-2-1v-21c.8-7.8.2-15.2-2-22 .4-1.7 1-3.4 2-5 .5-4.7.5-9.7 0-15v-20c.5-2.6-.2-4.6-2-6-2.3.4-4.4.5-6.4.4-.2-.7-.6-1.2-1.3-1.4.3-.5.8-1 1.3-1.3 14-.7 28-.7 42-.2h110c5.2-.2 10.5-.2 15.8.2 1.3.7 2.2 1.4 2.6 2.3l-.2.2-2 1-2.3.4c-2.3.2-4.7.2-7 0-4.2 0-8.4.2-12.5.5.4 9.3.2 18.8-.6 28.5v-.2l-.2-.2-.5-1.2-.7-2.7v-18c.6-3 0-5.2-2-7-28.6 0-57.4.2-86.5.6-15.8-1.2-31.2-1.2-46 0 .7 5.6 1 12.4 1 20.5s-.3 15-1 20.6c16 1.7 32.4 2.7 49 3 9.5-.3 19 0 28 1 8.6.5 17.6.5 27 .2 1 .7 1.4 1.5 1.5 2.3-.7.4-1.2 1-1.5 1.6h-11c-4.4 0-8.8-.3-13-1-7.6-.5-15.3-.5-23 0zm161-28.8c-.8-.2-1.7-.2-2.8-.2-3.3-2.4-7.4-4.3-12.2-5.8-2.5.3-5 1-8 1.8-3.8-.6-7-1.6-10-3 6.3-5 13.6-7 22-5.8 4.2.7 8.3 3.7 12.3 8.8 4 5 6.8 9.6 8.2 13.5-.5 1-1.3 1.5-2.4 1.6-3-3-5.5-6.7-7-11zm.4 9.3l-1.3 1.5c-3.6-3-7.6-5.4-12-7l-5-5c7.5-1 13.6 2.6 18.2 10.5zm-21-7c5 3.2 8 7.5 9.8 13-.3 1-1.2 2-2.8 3 .5 1 1.3 1.7 2.6 2.4 10.8 2.2 21.3 2.7 31.4 1.6 1.8 1 2.8 2.8 3 5 .2 2 0 4-1 6l1 12c1 10.7.8 21.2-.6 31.4-1 .7-2.4 1-4 1-4.3.7-8.8 1-13.4.6-1 0-2-.5-3-1-1-6.4-4.7-8.8-11.4-7.3-2.7 2.2-4.7 4.8-6 7.8l-1.8.2-20.3-1.2c-23.7-1.6-47.3-3-71-4-.7-11.7-1-23.5-.5-35.5l1-4c-1.2-5-.8-9.3 1-13 7-2 14-3.6 21.4-4.3.7 2.5 1.2 5 1.5 7.2-2 6-2 12-.2 18-.3 1.5 0 4.2.4 8 1 1.5 2.6 2.7 4.4 3.5l7.5 8.5c2.3 1.5 4.8 2.4 7.5 2.7 8 .8 10-3 6-11.2-1.5-2.4-3.2-4.4-5-6 2-1.4 4.2-2.6 6.3-3.5-.3-2.3-.2-5 .4-7.8.7-.7 1.3-1.5 1.6-2.2-2-4-3-8.4-3-12.8-2.3-.8-4.7-1.7-7-2.8 9.3-4.4 10.5-10.6 3.5-18.4 14.3-3.5 28-2.5 40.8 3zm65.5 107.8c5.5 3 6.3 6.8 2.6 11.3-5 1.7-10.6 2.2-16.4 1.6-5.6-1-11.3-1.7-17-2-2.4.5-4.4.2-6-1-.3-1.7-.4-3.5-.4-5.3 3.3-.4 6.3-1 9.2-1.8 1.3-1.6 2.7-3 4.2-3.8 7.8-.2 15.7.2 24 1zm-20-7.2c1 0 2-.4 3-.8.6.2 1 1 1 2.8h-3l-.8-1.5v-.4zM312 441l-4.4.6-2-.2-1.6-.3h-.3l-.4-.2v-.2h-.2V440l2-5.8c-.7-.2-1.2-.7-1.5-1.4-.7-.2-1.7 0-3 .8-2.6 0-5.3 0-8 .2-1.3 2.8-3 6-5.5 9.3-4.6 2.2-9 3-13.5 2.6l-.4 9.7-.6 3.2-.2.3-.3.3-1.4 1-2 .4-7.5.3h-.6c-16.6-1.4-33-3-49-5l-23-2-23-2-24-2c-3 .6-5.8.2-8-1-1.3-11.4-1.4-23.2-.4-35.4 8.8-.7 17.6-.3 26.4 1.3l16 1c4.3.4 8.6.4 13 0l32 2c19 2.8 37.5 3.4 56 2l17-1c6-.4 12-.7 18-.8.7 7.5 1 15.3.6 23.2zm-155.6-37.5c-2.3.2-4.5.2-7 0-3-3.6-6.7-5.4-11.3-5.5-1-2-1.4-4.3-1-7-.6-7-.8-14.2-.5-21.4 6.7-.4 13.5-.2 20.4.7 1 3.3 1.4 7.3 1 11.8v16c.3 2.2-.2 4-1.6 5.5zm-.8-45c-6.2-1-12.5-1.3-19-1-.5-9.3-.3-18.5.5-27.5.2-3.6.7-6.8 1.7-9.3 9.2-.8 18.3-.7 27.4.3 0 9-.4 18.3-1 28l-9.4 9.5zM170 334l1.2-10.8c.4-1 1-1.8 1.5-2.5 3.3-.2 6.3 0 9.2.5V339c.4 2 0 3.7-1 5-2.2.4-4.4.3-6.5-.2-1 .4-2 1-3 1.8-.7-1.2-1.2-3-1.5-5.5v-6zm28-9l1-3 .3-.3v-.2h.3l3 3 3-1c1 6-1.3 9.6-7.5 11.4-.6-1.5-.6-3.5 0-6 .2-1.2.2-2.6 0-4zm1 19c-.2.7-.2 1.3 0 2-.6.8-1.4 1.6-2.4 2.5-1.3-.6-1.3-1.6 0-3 1-.3 1.7-.8 2.5-1.5zm1.4 11.7c7.8 8.6 7.8 17 0 25.8-1.5.3-3 .4-5 0-7-5-9.2-11.7-6.3-20.2 2.8-4.8 6.6-6.7 11.4-5.6zm-.5 34.5l-1.5 1.3c-4-4.5-3.5-5 1.4-1.3zM132 350c-.3 1.2-1 2.2-1.8 3.2 0 1.2.4 2.4 1 3.8-1.8-.5-3-1.6-4-3-.4-11 .3-22 2-33 1.5-.8 3-.8 4.8 0-1.5 9.6-2 19.2-2 29zm-7-6c.6 2.8.2 5-1 7-5 .7-10.2 1-15.5.5L104 350c-.5-9.7 0-19.5 1.6-29.3 1-.8 2.4-1 3.8-1l17.5 1.5c-1.5 7.4-2 15-2 22.8zm-15.5 11.5c4.5 0 9 .2 13.2.5-4.3.3-8.7.5-13.2.5.2-.2.2-.5 0-1zm-9.3-10.3c.6 4.7-1.2 8.5-5.7 11.3-3-.6-5.8-1-9-1 0-4.8 0-9.6.5-14.5l1-11c.2-3.6 1.2-7 3-10 3.6-1 7-.7 10.5.5.7 3.6.5 7-.5 10.5-.5 4.8-.5 9.5.2 14.2zm-16.8-24.5c-.4 11.6-1.7 23.2-3.8 34.8-1.2-2.2-1.6-5-1.4-8.3l1-8.2c.4-5.4 1-11 2-16.8.7-1 1.4-1.5 2.2-1.5zM77 327c-.8 8.5-1.8 17.2-3 26-5.4.5-10.8.7-16.4.6-1-1.8-1.5-4.3-1.5-7.5v-9c0-5.5 0-11 .2-16.7 6.6-1 13.2-1 20-.2 1 2 1.3 4.2.7 7zm51 61c-1-7.5-1.2-13.4-1-17.8.6-.7 1-1.2 1.7-1.5 1.3-.2 2.4.3 3.2 1.5 0 4 .2 8 0 11.8l2 20c-.7 1.2-1.5 2-2.5 2.5-1.6-3.5-2.8-9-3.6-16.5zm193.5 93.5c-3 .2-6 .2-9 0-13.7-2.4-27.7-3.7-42-4-4.2-.2-8.5-1-13-2-6.6-.5-13.6-1.2-21-2-5.7-.7-11.7-1-18-1-4.2-.2-8.5-1-13-2-2.5-.2-5.2-.2-8 0-8-.4-16.5-1.4-25-3-11.5-1.5-23.2-2.5-35-3-4.3-.3-8-1-11-2-.5-3.7-.6-9.7 0-18 .4-8.2 1-14.4 1.7-18.4 1 7.7 1.2 16 1 25 10.3 1.7 20.8 2.6 31.5 2.6l34 3c8.8.3 17.4 1.3 26 3 3 .3 6 .3 9 0 8.8.3 17.5 1.3 26 3 8 1.2 15.6.5 23-2 3.4-.5 6.8-.2 10 1 3 .3 6 .3 9 0 8.4.6 16.7 1 25 1l.5 14.5c-.4 1.8-1 3.3-1.7 4.5zm7-41v1l-.4 1.6-1.4-1.6-.2-.3c1 0 1.6-.5 2-1.2v.7zm7.7-14l-.3 4.2-.7 1.8-.2.2v.3c-5.4 3-11.2 5-17.4 5.6-1-2.2-1.6-5-1.5-8.5v-10c1.5-2 2-4.4 2-6.7-1.3-2-3-3.2-5.2-3.8-.8-1.3-1.5-2.6-2-4-4.5-2.8-9-2.5-13 1-.5-7-.7-14-.6-21.3v-11c.2-1.8.5-3.5 1-5-.3-1-.6-1.5-1-2 .6-1 1-1.5 1.5-1.5.2.7.7 1 1.4 1.4 0 .5 0 1.2-.7 2 .7 1.4 1.8 2.3 3.2 3 4 1 8 1 12 .7.5-.7.8-1.4.8-2.2 1.3-.4 2.5-1 3.8-1.2l-1-.6-1.3-.5h-.4l.4-.5 1.5-.8.2-.2c.8-1 1.6-1.7 2.5-2.5.5-1.8.2-3.4-1-5l-3.8-1h-.2l-1 6.3h-.2v.2h-.3l-.5.2-3.5.8h-7c1.2-6-1-8-7-6-.7-1.2-1.7-2.5-3-4-2-1-4.3-2-6.4-2.6-1-2.2-1.6-4.8-2-7.8-1.8-5.8-4.6-11-8.5-15.7-6-6.7-13.5-11-22-12.8-2.5.4-5.8 0-10-1L243 319c-3 2-6.4 4-10.5 6.5-1 1.5-2.2 2.8-3.2 4-6.4 1.2-12.8 1.3-19.2.4 8.2-20.6 20.5-33.8 37-39.3 16.6-5.5 33.5-.2 50.5 16 6.4 7.2 11.2 15.5 14.4 24.7 1 3.7 2.4 6.8 3.7 9.2 6.4-.7 12.8-.8 19.2-.2 1.2 2.5 1.6 5.5 1 8.8 0 7.4-.4 14.3-1 21-1.8 1.8-2.8 4.2-3 7l4 7.2c.4 11.6.4 23.2 0 34.8.2 1.2.2 3.7.2 7.3zm48.5-103c1-.2 2-.5 3-1 6-.8 11.8-.6 17.5.5 1.3 2.5 1.6 5.4 1 9 0 11.5-.4 23.2-1 35-1.8 1.3-4 2-6.5 1.5-7 .3-14 .3-21 0-.7-1.2-1.2-3-1.5-5.5v-7l-1-11.8c-2.5-7.2-6-14.2-11-21 7-1 13.7-.8 20.5.3zm-26.2-.8c2.5 2.7 4.7 6 6.8 10.2 5.6 10.8 8.2 22.5 7.8 35l-9.3 1.5c-.5-.7-1-2.2-1.5-4.5v-5c0-3-.5-6-1-8.8-3-9.4-6.3-18.8-9.7-28.2 2-.3 4.5-.4 7-.3zm-12.3 20.5c1-1 2.2-2.5 4-4.2 0-2.5-1-4.5-3-6-1.3-3-1-5.7.4-8.3 1.4 3.2 3 7.8 5.3 13.8 2 6 3 10.4 3 13.5 0 3-1 5.2-3 7 0 2 0 3.8.2 6 .7.3 1.2.7 1.6 1-.4.6-.6 1.2-.6 2 .6.4.6 1 .2 1.4-2 0-4 .2-6 0-2.5-7.6-3.3-16.4-2.2-26.2zm21.8 63.2c0 10.5-.4 18.7-1 24.6-2.8 1.6-6.6 2.5-11.4 2.6-1.7-.2-3.4-.6-5-1-1.5-.6-2.7-1-3.5-1.5l3.6-1.4c1.7-.4 3.4-.7 5-.8 3.7-.2 6.7.2 9.3 1.2v-10c-.6 0-1.2 0-2 .2-.2 1-.8 1.6-1.7 2.2-3.3.2-6.5.2-10 0-1 .8-2 1-3 1-.4-.6-1-1-1.4-1.3-1-1-1-2.4 0-3.7 6.3-1.7 12.2-1.8 17.8-.2v-9.8c-.5 0-1 0-1.8.2-.3 1-1 1.6-1.8 2.2-3.2.2-6.5.2-9.8.2-1 .7-2 1-3 .8-.5-.7-1-1.2-1.7-1.3-.8-1.7-.5-3.2.8-4.5 6.4-1 12-1 17.2.2v-10c-2.2 1.7-5 2.5-8.4 2.6-1.8.5-3.4.8-5 1l-2.3-.5-2.3-.7c-.8-1.4-.7-2.7.2-4l13.3-1.4h1l3 1.4.5-9.2c-5.3 2-11 2.8-17.4 2.4-.6-.7-1-1.5-1.5-2.5 0-.7.5-1.5 1.4-2 4.7-.7 9.3-1 14-1.3 2-.4 3.6 0 5 1 1.2 5.2 1.7 13.2 1.6 23.7zm34.2 23.7c-4.8 1.8-9.6 1.7-14.4-.2-1.7.7-3.5 1.6-5.2 2.8-3 0-6 .2-9 0-.8-.2-1.6-.7-2.3-1.5-1-16.5-1.3-32.8-1-48.7 10.8-1.2 22-1.7 33.2-1.5.8 12.3 1 24.7.6 37.3 1.2 4.8.6 8.8-1.8 12zm13.6-58.3c18.4-.7 36.7-.4 55 .8h14c1.6-.3 3 0 4.4.5 0 1 .4 2 1 3-.8.4-2 1-3.5 1.5-1.6.2-3.3.2-5 0h-11c-9.5-1-19-1.5-28.8-1-4.2-.5-8.6-.8-13.3-1h-11l-1-.3-1-.4-.2-.2-.2-.3v-.2c-.3-.8 0-1.6.5-2.3zm-.5-48.5c24.2-1.5 48.6-1.7 73.3-.5 1.3 15.5 1.8 31 1.5 46.2-5.2.4-10.7.6-16.3.5-12.2-1.5-24.5-1.8-37-1l-21-1c-1-14.6-1-29.4-.4-44.3zm75 88.8c-.5 5.8-1.2 11.8-2.2 18-.6.5-1.4.7-2.3.6-9-1.4-18-2-27-2-5.4-.8-11-1.4-17-2-1.7.4-3.4 1-5 2-4.7 0-8.7-.4-12-1-2.5 1.2-5 1.8-7.8 2-1.8-2.8-2.4-6.3-1.8-10.6 0-5.5.3-10.8 1-16l-1-14c.3-3.5 1-6.5 2-9 9.6-1.5 19-1.4 28.5.5 5.6.6 11.3.6 17 0 2.5 0 4.8.7 7 1.8l20-.6c1.3 10.4 1.5 20.5.5 30.3zm41.3-42.5c-4.6.2-9.3.3-14 0-5-.7-10.2-1.2-15.3-1.5 1-.3 1.7-.8 2.4-1.4 1.2-.2 2.6-.2 4 0h9c4.6-.2 9.3 0 14 .2l1.3 1.3c-.3.5-.8 1-1.4 1.5zm10 1c-.7-.6-1.7-1.3-3-2 7-2.2 8-1.5 3 2zm11-1c0-1-.6-1.7-1.4-2.5 3-.2 5.2 0 6.5.5-1.4.7-3 1.4-5 2zm-20-6c-9.4-1.2-19-1.6-28.8-1-1.6-13-2.4-26-2.5-39.3 6-.6 15-1 27.8-1.2 12.8-.2 21.5.5 26 2.2.7 3 1 6 1.2 9.8.8 9.2 1.4 18.5 2 28-8.2 1-16.7 1.4-25.5 1.5zm64.5 73.5c-5 .4-10 .6-15.3.6-7.3-.5-14.4-1.4-21.5-2.5-.4-2-1-4.4-2-7-.4-2.7 0-5.4 1-8 .3-2.5.3-5.2 0-8l2-26.7c11.8-.5 23.5-.4 35.3.5.5 5.2.6 10.6.5 16.2-10.6 2.2-20 1.5-28.2-2.2-1.7 2-3 4.5-3.5 7.2 2.3 1.5 3.6 3.5 4 6-5 3.6-5.2 7.6-1 12 6.5-1.3 13.7-1.5 21.4-.4 2.7-.6 5-.2 7 1 .6 3.7.7 7.5.4 11.4zm-6.4-30.3l-.2 8.6-.6 3.4-.6 1.2h-.2l-.2.3-.2.2c-2.3.2-4.6.2-7 0-2.5-.4-5-1-7.3-1.5v-.2h-.2v-.4l-.3-1.2-.3-6.3.4-2.8.2-.7.2-.2v-.2l.4-.2h.2c5.3-.5 10.6-.5 15.8 0zM597 419c-.6 1-1.4 1.5-2.3 1.6h-.2v-.2l-.2-.2-.2-.6V418c0-1.3.2-2.5.3-3.8l1.5-6.5.2.2.5 1.2.7 2.7c.2 2.3.2 4.6 0 7zm0-47c-6 .5-12 .7-18.3.6-4.2-.6-8.5-1-13-1-.4-.6-.8-1.2-1-2-3.8-8.2-5.3-17.3-4.5-27.5-.4-4.6-.8-9.6-1-15-.4-1.5 0-2.8 1-4 3.2-.3 6.3 0 9.5.6 2.6 0 5.2-.5 8-1 6.3.2 12.6.6 19 1.2 1 15.8 1.2 32 .4 48.2zm21.8 63.6c-.4 1-.7 2.2-.7 3.4-.7.5-1.4.7-2.2.6-2.3-.5-4.6-1-7-1-.4-4-.5-8-.4-12.3 1-2.5 1.8-4.6 2.8-6.3.2-3.3.2-6.5 0-9.8l-2.8-7.2c-.2-3.6-.2-7.3 0-11-.7-2.7-.2-4.8 1.5-6.2 2.8.2 5.5.7 8 1.5 1.2 3 1.6 6.7 1.3 10.8 1.5 11.3 2.4 22.6 2.8 34-.7 1.4-1.8 2.6-3.2 3.6z"/>
  <path fill="#FF9600" d="M406.2 71c.7-.7 1.4-1 2-1 2-4.2 3.7-8.6 5-13.2-.4-1-.8-1.4-1.4-1.5-12.6-4-26.2-7.3-40.8-10-14.6-3-28.6-3-42-.4-.8 1.7-1.2 3.7-1 5.8l-3 2-.3.2h.2v.2l-.2 1.2-.6 1.3c20.6-2 40.8-.2 60.5 5.5 8.8.8 16 4 21.5 9.8zm1.7-12c-2.6 1-5.7 1.4-9.3 1.4 0-.8-.5-1.6-1.4-2.4 4-.7 7.4-.4 10.6 1zm-22.6-5c2.3-2.5 3-1.5 1.8 3l-.8-1-.8-1.3v-.3l-.2-.3zm-52.8-2.6c0-.8-.5-1.6-1.4-2.4 3-.3 5.7-.3 8.6 0l-7.2 2.4zm49 4h-4c-6.3-2-12.7-3-19.3-3.5 4.8-1.8 10-2.6 15.3-2.6 5.7-.6 8.3 1.3 8 6zm.3-20.7h.5l1-.2 1.6-.6-1.5-1.2-.5-.3h-.3c0 .7-.3 1.3-1 1.8v.3h.2zM187 98l.2.4v.5l6.7-7c-2.3 1.7-4.5 3.7-7 6zm396.3 153c-9.8-30-22.6-58.3-38.6-85.5-3.2-4.8-6.5-9.4-10-14-7-11.7-15.5-22.4-25.2-32h-2.7l-.2 4c-1.5 0-2.6.5-3.2 1.7l1 3.6v1.4l-.2.5v.3l-.4.3-.4.6-.4 1-.3 1.8-.2 2.2v.2l.8 1.5 3.8 5c3 3.2 4.8 5.5 6 7 8.2 11.2 15.6 23 22.3 35.6 7 12.8 13 25.8 18 39 3 10.8 6.5 21.4 10.2 31.8 1.8 5 3.8 11.5 6 19.7 2 8.2 2.7 14.6 2 19.4 6 .4 12 0 17.6-.8l-1.6 3.3-.2 1v.5c1.6.3 3-.2 4.6-1.4 2.6-6 2.4-13.8-.6-23.5s-5.6-17.6-8-24zm-65.6-100.5c-2.7-4-5.6-7.7-8.6-11.4-1-1-2-2-2.7-3l1.5-3.3.4.2 3 2 3 3 5.5 7.6c4 4.6 7.4 9.4 10.5 14.5 7.3 10.2 13.6 21 19 32-11.6-12.3-22-26-31.5-41.5zm27 44.3c12 12.8 20.4 27.5 25.5 44.2-4-5.6-7.4-11.8-10.5-18.5-5.5-8-10.5-16.6-15-25.7zm34 97.7c-1-.3-1.7-.8-2.4-1.6-2.2-11.7-5-23-8.2-34-3.3-8.8-6.2-17.8-8.7-27 11.2 18.6 19.5 39 24.8 61l-5.3 1.5z"/>
  <path fill="#FF9600" d="M547 228c-6-16-13.3-31.6-22-47-6-11.5-13-22.3-21.3-32.5-3.3-3.7-6-7.2-8.4-10.6 0-4.8 1.4-9 4.4-12.5.7-1.3 1.5-2.4 2.5-3.5 1-.4 2-1 2.5-1.5-.3-.7-.3-1.4 0-2-.7-.7-1.7-1-3-1-7 5.6-10.5 12.7-10.4 21.3 2 3.2 4.4 6.4 7.5 9.6 7.3 9.5 14 19 20 29 6.7 12 12.6 24 17.6 36.4 2 4 4 8 5.8 12.2 3.3 10.8 7 21.5 11 32 2 6.2 3.7 14 5.4 23.5 1.7 9.4 4.5 16.4 8.3 20.8 1 0 1.7-.5 2.3-1.4-5-14-9-28.2-12-43-4-9.8-7.2-19.8-10.2-30zm-267-65c2.3-7 1-10.4-3.7-10-4.8.4-5.2 4.4-1.2 12 1.5 0 3.2-.8 5-2zm111.2-83c2.7 1 4 1 4 0-5.3-4-11.3-6-18-6 4 2.4 8.8 4.3 14 6zM142.8 447l1-.2.4-.2.5-.3v-.3c-5.2-9.2-5.4-18.6-.7-28-.2-1-.7-1.6-1.5-1.5-.8 0-1.6.2-2.4.7-5 10.2-4.8 20.2 1 30l1.8-.2zm108.8 6.6c3.6-9.2 3.6-18.5 0-28-1.5-.3-3 0-4.4.6 4 9.3 4 18.6 0 27.8l4.4-.4zm-32-65c1 .4 2 .7 2.8.8 4-2.4 6.3-5.5 6.4-9.5 0-4 .7-7.8 1.8-11.5-1-2.6-1.8-5.5-2.5-8.5.3-2 .6-3.6 1-5-5-9-9.3-10-13.3-3.2-4 7-.4 10.2 10.8 9.8 1.4 4 1.6 8.2.8 12.5l-2.6.4h-4c-2.5-.2-4 .8-5 3-2.2 4.7-.8 8.4 4 11zM254 183c0-6.8-2.4-9.3-7-7.4-4.4 2-3.5 6 2.6 12 2.2-1 3.7-2.4 4.5-4.6z"/>
  <path fill="#FF9600" d="M341 306c-1-2-2.3-3.3-3.5-4.4l-4 1c.3 2.2 2 4.3 5 6l9 4c1.8.3 3.6.5 5.5.3-3.3-3-7.2-5.4-12-7m-134 12.2c-.7-1-1.5-1.5-2.3-1.5-2.7 6-3.7 12.7-3 19.8 1-.7 2.2-1.2 3.4-1.4l2-16.8m49-31.2c-.7.7-.6 1.2.6 1.5h4v-2c-1.4 0-3 .2-4.5.5m-6.4-3.5c1 .4 2 .4 3 0l3.5-1.5c-1.7-4-4.2-4.2-7.4-.5.6.7 1 1.3 1 2m41-56c1 6.2 3.4 12 7.2 17.5-9.7 11.6-18.2 24-25.2 37.2-2.2-3.4-5-3.7-8.4-1l12 9.8h1.8c3-13 9-24.8 17.6-35.5l4.6-6.4c.6-.8 1.2-1.5 2-2 .6.3 1.3.3 2 0 3.5 13.6 6 27.6 7 42 .7 1.2 1.5 2 2.4 2.5.6-.3 1-1 1.5-2.5v-3c0-2-.4-4-1-6-.8-4-1.4-8-2-12-.2-8-1.7-16-4.4-23.5-2.3-2.3-5-4-8.4-4.6l-.2-.4-4.8-11.4-.2-.2-3.4-.5m27-1c-.7 4.4 1 5.8 5 4 .4-.7.6-1.4.4-2.4-2.5-2-4.3-2.4-5.4-1.5m-2.4-7.6c1.4 0 2.8.3 4.4.5l1.5-.2.7-.2h.5l.6-.5v-.2h.2v-.3c-.7-.7-1.2-1.5-1.5-2.5-1.5-.2-3.2-.2-5 0 0 1.2-.6 2.3-1.3 3.4m-11.7-30.6c-3.7 1.2-7.4 2.5-11 4-7.2 2.7-14 6.2-20.4 10.6-30 21.8-50.4 50.4-61 86-3.5 7.6-5.3 15.4-5.3 23.5 1-.7 2.2-1.2 3.4-1.4 4.6-19.6 11.6-38.6 21.2-56.8 3-4.7 6-9.3 9.4-13.6l3-5c9.2-9.5 18.7-18.7 28.5-27.5 6-4.8 13.3-8.7 21.8-11.5s15.8-6 22.3-9.4c-.4-1.2-2.2-1.4-5.5-.5-2 .5-4 1.2-6 2M422 431c-1.5-2-3.8-3.7-7-5l-2.4-1.2c-.3.8-.7 1.3-1.3 1.5-.2 1.3 1.3 2.8 4.3 4.4 2 .5 4.2.6 6.4.3m-16.2-5.5c.7-.5 1.5-.7 2.3-.5-.4-.8-.5-1.6-.3-2.4-1.5-1.6-3.5-3-6-4-7-4.7-14.4-8.7-22-12-1.5 0-2.4.6-2.5 1.5 2.2 2.2 4.8 4.2 7.8 6-1.7.2-3 .7-4.2 1.6-1 6.4 0 12.6 2.5 18.6 1 0 2-.2 2.5-.5-.3-4-.8-8.2-1.4-12.4 1.4-2.2 3.5-3.5 6.4-3.7 4 1.4 7.8 3.4 12 6.2l3 1.7m6-40.8c-.5 1-.7 2-.5 3.2 9 8.6 18.7 17.3 28.6 26-2 2.2-3 4-3.3 5.5 3.2-.7 4.7.5 4.4 3.4-.6 2.6-1 5-.8 7 4-7 6.6-15.2 7.5-24.6 1-5 1.8-9.8 2.4-14.6.2-2.6.2-5.3.2-8 .2-1.3.2-2.7 0-4-.6-.6-1-1.4-1.3-2.2-2 11.2-3.6 22.4-5.3 33.8-10.4-9.4-21-18-32-25.7m-6.5-6.7c-.5-.6-1-1-1.6-1.3-.7.5-1.4.7-2.2.5.6 1.8 2 3.8 3.8 5.8 1 .3 2 .4 2.4.4 1-2.5.2-4.4-2.4-5.4m3-19.8c-1.7 0-3.8.4-6.4 1.5-3 1.4-3.8 2.8-2.6 4.3 4.5.6 7.5-1.4 9-5.8m3-1.2c.7 0 1.2.6 1.4 1.3l2.5-1.2c2-.5 3.8-1.4 5.5-2.5 8-4.5 16-9 24-13.7 3 9.6 4.4 19.8 4.3 30.7.7-1 1.5-1.3 2.3-1.4-.6-13-1.7-26-3-38.7-.4-2.4-1-4.8-2-7.2 0-1.8-.3-3.4-1-4.7-.7.3-1.3.2-2-.2.4 4.2 1 8.5 2 13l-2.7 1.4-.5.4-.2.2-.2.2v.2l-.2.2v.9l-.2.6v.3l-.4.5-2.5 3c-8 5-16.8 9.8-26.4 14.5-.3 1-.4 2-.3 2.7m-37 21l-.2-.3-.3-.2c-.6.8-1.4 1.3-2.4 1.7-.2 1-.3 2.3-.2 3.8l-3.8 11c0 2 .2 3.6 1 5 2-2.6 3.7-6 5-10l2-6v-2.8l-.3-1.2-.3-.6-.3-.4m-15-59.3c-.8 0-1.6 0-2.3.3-.3.2-.4.7-.4 1.5 5.6 7.2 10 15 13.4 23.7 2.3 9 3.5 18.5 3.8 28.2l3.4-2.4c0-8.6-1-17.8-3.7-27.7-2.7-9.8-7.3-17.7-14-23.6m41.2 2.8c-2-.7-4-1.6-6-2.8l.3 4.2c-4.5 1.8-9 3.5-13.6 5l1.3 1 .6.6.2.2v.5h1.2l4-.8c4.2-1.5 8.5-2.8 13-4 2 .2 3.6-.2 4.8-1 .3-1 .8-2 1.6-2.5-.6-.4-1-1-1.4-1.6-1.7 0-3.7.5-6 1M421 319c-3.2-.5-6-.6-8.2-.3-.3 1-.8 1.7-1.5 2.2 1 .3 1.8.8 2.3 1.5 2.6-1 5-2.2 7.3-3.5m-42.7-84c-.2-3.8.3-7 1.4-9.2 10.8 5.5 20 13 27.5 22.2-5 7-8 14.7-9 23-4.8 13.7-8.7 27.7-12 42 1.8 1 3.4 1 5 0 2.8-15.6 6.8-31 12-46 .6-4.2 1.8-8 3.5-11.5.4-1.3 1-2.3 2.2-3 1 .3 2 .4 3.2.5 1.6 2.2 3.3 4.8 5.2 8 5.3 8 10 16.8 14 26l3.2 6.8 2.4 5.7.2.6c-1 4.7-1.8 9-2.2 13.4l4.3-1.4c.3-1 .5-1.6.5-2.2.4 2.5 1.5 3.6 3.4 3.2 0-1.4-.3-3-1-5-.6-3-1.6-6-2.7-9-3.7-10-8-19.7-12.7-29.4-16.5-30.3-41-51.3-73.2-63-4.7-1-9.4-1.7-14-2-23-4-45.2 2-66.5 18-21.2 15.8-36 34.3-44 55.4-2.4 5.7-4.7 11.4-6.8 17l-3 9c-.5 1.7-1 3.4-1 5v2.6l.2.2h.3c4.3-6 7-12.8 8.6-20.5 2.2-6.2 5-12.2 8-18 16.3-34 42.4-55.6 78.3-64.8 11-3.4 21.4-2.8 31.4 1.6l-2.8 3 1 3c-3 .5-6 .7-9.3.8-1 .5-1.6 1-2.2 2 3.7 3.8 4.7 7.5 3 11s-3.4 7.3-4.5 11.4c.8 4 2 8 4 12l10 31c5 7.4 6 14.4 3 21 0 .8.4 1.3 1.5 1.5 5.5-3.4 9-8.6 10.6-15.4 9.2-16 16.8-32 22.8-48.2-1-3.3-2.2-6-4-8m-18.6-17.5c2.8.5 5.5 1.5 8 3 3.2.4 5.7 1.6 7.4 3.7-1 3.4-1.5 7-1.8 10.8l.4.4.8 1.2.8 1.7 1.8 7v.7c-1.2 4.2-3 8.3-5.8 12.2-6.4 12-12.3 24-17.7 36.4-6.5-13-11.8-26.6-15.6-41.4l-4-12.2v-1c1.7-2.8 3.7-5.5 6-8 0-2.8-.3-6-.8-9.8l.3-.4.5-.5 1.2-.8 1-.4 6.2-1.3c5.4-1 9.2-1.2 11.2-1.2M402 247c-1-2.2-2.2-3.7-3.3-4.3l-1.5 4.2c.2 1 1 1.6 2.5 1.4 1.4.4 2.2 0 2.4-1.3z">
    <animate attributeName="display" values="inline;none;none;none;none;none;none;none;none;none;none;none;none;none;none;none;none;none" keyTimes="0;0.06;0.12;0.18;0.24;0.30;0.36;0.42;0.48;0.54;0.60;0.66;0.72;0.78;0.84;0.90;0.96;1" dur="1s" begin="0s" repeatCount="indefinite"/>
  </path>
  <path fill="#FF9600" d="M337.5 304.7c-.8 0-1.4.4-2 .8 3.2 3 7.2 5.4 12 7 1.8.4 3.6.6 5.5.4-4.3-4-9.5-6.6-15.5-8.3M207 318.2c-.7-1-1.5-1.5-2.3-1.5-2.7 6-3.7 12.7-3 19.8 1-.7 2.2-1.2 3.4-1.4l2-16.8m59-41.2v-.3l-.4-.2-3.8-.8c-1 1-1 2-.6 3.4 1 .6 2.2.8 3.4.5.2-1 .8-2 1.5-2.5m-8.4-4.5c1.8 0 3.3-.4 4.5-1.5-2.4-4.5-5-4.5-8 0 1 .4 2 1 3.6 1.5m69.6-48.4l1 4c1.5.5 3 .6 4.3.4.4-2.6-.6-4-3-4.8-.7.5-1.4.6-2.3.5m-16.8 16.7l.6.2c2.5 4.5 4 12.5 4.8 24 .8 11.7 1.2 20.7 1.4 27 .5.7 1.2 1.4 2 2l1.8-1c0-17.4-1.3-34.6-4-52-2.4-3-5.3-5-8.8-6l-3-10-1.2-3c-1 0-1.7 0-2.4-.5-1 .2-1.4 1-1.5 2.5l1 2c.2 2 .6 4 1.2 6 1.5 2.2 2 4.5 1.8 7-3.3 3.6-6.7 7-10.4 10.5-5.5 6.7-10.5 13.7-15 21-3.4-3.6-6.2-3.4-8.4.4 4.3 2.5 7.5 5.6 9.8 9-2.4 4.2-1.8 7.6 1.8 10.3 1.3.2 2.4 0 3.2-.5-3-13.7 1.3-26 12.6-37.4l8-9 2.4-2 .8-.6 1.2-.2h.4M334 216c-.4-1-.5-1.7-.4-2.5-2.4-.5-4.7-.8-7-1-.2 1-.7 1.4-1.4 1.6.8 1 1.5 2 2 3 2.8 1 5 .6 6.8-1m-20-29c-.6-.2-1-.7-1.4-1.5-2.8.4-5.8 1.4-9 3-9.5 3-18.5 7-27 12-17 9.5-30.5 22.2-40.8 38-10.3 16-18.6 32.7-25 50.4-3.3 7.6-5 15.4-5 23.5 1-.7 2-1.2 3.3-1.4 4.6-19.7 11.7-38.7 21.2-56.8 3-4.7 6-9.3 9.4-13.6l3-5c9.2-9.5 18.7-18.7 28.5-27.5 12.7-8.3 26.5-14.5 41.5-18.5.8-1 1.4-1.7 1.6-2.5m82.6 242.8c2 1.7 4 3 6 3.6.7-.5 1.3-.8 2-1-.3-.5-.3-1 0-1.8-.5-.6-1.4-1-2.4-1.5l-4.5-3.5c-8-7-16.5-12-25.5-15.5 0 .7-.3 1.3-1 2 1.6 1.5 3.5 3 6 4 0 1.3-.2 2.6-1 4 0 4.4.2 8.8 1 13 .5 1.7 1.3 2 2.4 1.4.4-2.3.6-4.8.6-7.4.3-2.8.7-4.6 1.4-5.6.7 0 1.4-.3 2-.8 1.3.4 2.5 1.2 3.6 2.3l9.4 6.8m15-35.7h-.3v3c1.5 2.2 3.4 4.6 5.8 7 6.8 7 13.4 14.2 20 21.3l-3.8 4.8c3 1 6 .6 8.8-.8 2.5-8.3 4.5-16.6 6-25 .8-5 1.5-9.6 2-14v-12c-.7-.3-1-.7-1.3-1.4-1.8 15.3-4.6 30.6-8.3 45.8-5-4.5-10-9.4-15-15l-7-8-3.4-3.4-1.8-1.2-1.4-.7h-.3v-.2m-12-10c1.4 2.6 3.4 5 5.7 7l.4.3 1.3.8.4.3h.2c1.6-5.8-.7-9-6.8-9.7-.6.4-1 .8-1.4 1.4m-.7-16.5c.4 1 .6 1.7.5 2.5 2.6 0 5.4-.5 8.4-1.6.5-.8.8-1.6.6-2.4 0-.7-.4-1.2-1.5-1.5l-8 3M374.4 378l-.3-.3-.3-.2c-.6.8-1.4 1.3-2.4 1.7-.2 1-.3 2.3-.2 3.8l-3.8 11c0 2 .2 3.6 1 5 2-2.6 3.7-6 5-10l2-6v-2.8l-.3-1.2-.3-.6-.3-.4m-15-59.3c-.8 0-1.6 0-2.3.3-.3.2-.4.7-.4 1.5 12 14.8 17.4 31.6 16.5 50.5.5 1.4 1.3 2 2.5 1.4 1.8-5.3 2-10.8.6-16.4-.8-14.5-6.4-27-16.5-37.3m53.3 9c-1 .8-1.4 1.5-1.5 2.2.3.5.8 1 1.5 1.4 9.2-.7 18.8-1.7 28.7-3l.2-.5 1.8-2.4c1.7 6.2 2.5 12.6 2.5 19.2-.7.5-1.4.8-2.2.8-1.6 4.8-5.3 7.5-11 8-7.3 2.6-14.3 5.6-21 9-.5.8-.6 1.5-.5 2.2.3.6.7 1 1.3 1.3 5-1.6 10.6-4 17-7 6.6-3.2 12-5 16.5-5.2 1 1 1.8 2.4 2 4 .2 4.6.4 9 .8 13.4.7-1 1.5-1.3 2.3-1.4.2-7-.3-15.8-1.2-26.5s-2.7-19-5.3-24.8c-1-.2-1.8-.3-3-.2-2 1.2-4 3.2-6 6-7.6 1-15.2 2-22.7 3.4m-19-7c.6.5 1.3 1 2 2 2 1.6 3.4 3.7 4.3 6.3-4 1.3-8.4 2.4-12.8 3 .2 1 .2 2 0 3 6.8 0 13.6-.8 20.4-2.5.6-.8.8-1.6.6-2.4l-2.5-1.4-2.5-.5c-1.6-1.2-3.4-3.7-5.4-7.3-2-3.7-5-3.6-9.3.4.3.7.7 1.2 1.2 1.6.4.5 1 .8 2 1l2-2.8m-2.7-73c-.8-3-2-6-3.8-9 .2-2.2.7-4.3 1.5-6 8.4 4 15.4 10.2 21 18.3-6 .7-6.4 2.5-1 5.6 1.5-1.2 2-2.8 2-4.8 1.5 1.4 2.6 3 3.3 5-.5 1-1.3 2-2.4 2.7-1.7 2.8-3.2 5.7-4.3 8.6-6.3 15.2-11 30.3-14.5 45.4 1-.7 2.2-1.2 3.4-1.4l8.8-26.7c3.3-9.8 7.2-18 11.7-24.6 8 10.4 14 22 18.4 34.4 2 5.7 3.6 11.3 5.3 17 .8.7 1.5 1.2 2.2 1.4C439 289 427 265 406.3 241.7c-20.7-23.4-44-36-69.7-38.2-46 .6-80 21.4-101.7 62.4-4.4 7-8 14.4-11 22-1 4-2.4 8-4 12l-1.5 6.5-.7 3.4.2 1 .2.2h.2c4.3-5.8 7.2-12.6 8.6-20.3 2.2-6.3 5-12.3 8-18 16.3-34.2 42.4-55.7 78.3-65 11-3.3 21.4-2.7 31.4 1.7l-2.6 2c-.3 3.6.6 6 3 7v6c-1.3 4-3.3 8.2-6 12v1l2 11 7.2 27 5 19c1.2 2.3 1.8 4.6 1.8 7l-3 2c-.4 1.2-.5 2-.4 2.5 1 0 2 .4 3 1l.5-.2h.4l.3-.2.3-.2 1-1 1-1.2 6.6-11.2c10.2-14.6 19-29.8 26.4-45.3m-8.7-9c.6 1.4 1.5 2.8 2.8 4 1 2.2 1.2 4.5 1 7-1.8 5-4.6 9.8-8.3 14.5-6 10.2-12.3 20.4-18.5 30.5-.6 0-1.3-.4-2-1-2.6-13.7-6-27-10-40-.7-1.5-1.5-4.2-2.6-8.2l-1.2-5-.2-2.2v-.6c1.5-3 3.5-5.7 6-8 .5-3.3.7-7 .7-11.3 1-.8 2.3-1 3.8-1 8.5 0 16.7 2.4 24.5 7.4 3 1 5.2 2.4 7 4.2l-3 9.7z">
    <animate attributeName="display" values="none;inline;none;none;none;none;none;none;none;none;none;none;none;none;none;none;none;none" keyTimes="0;0.06;0.12;0.18;0.24;0.30;0.36;0.42;0.48;0.54;0.60;0.66;0.72;0.78;0.84;0.90;0.96;1" dur="1s" begin="0s" repeatCount="indefinite"/>
  </path>
  <path fill="#FF9600" d="M335.6 305.5c3 3 7 5.4 12 7 1.7.4 3.5.6 5.4.4-5-5-10.6-7.4-17.4-7.5M207 318.2c-.7-1-1.5-1.5-2.3-1.5-2.7 6-3.7 12.7-3 19.8 1-.7 2.2-1.2 3.4-1.4l2-16.8m42-32.2c-2.4-.6-3.8-.3-4 1 1 .7 2 1.6 2.6 2.5 1.5 0 3.3 0 5.4-.6-1-1-2.2-2-4-3m18.2-19c-.2 1.2 0 2 1 3 1 .6 2 .6 3 0 2.3-4.8 1-5.7-4-3m-6-6c2 1.5 4.3 1.7 7.4.5.3-1.6-.4-3-2-4-2-.4-3.7 0-5 1 .2 1 0 1.7-.4 2.4m77-34c2.4.7 4 .2 4.4-1.5-1.8-1.8-3-2.8-4-3-.2.7-.7 1.2-1.5 1.5 0 1.2.4 2.2 1 3m-26.4-10.5l-1.4 3.4 1 4c.7 2.5 1 5 .8 8-1.6 1.7-4 4-7.4 6.5-7 7-13.3 14.3-19 22-1.3-1.3-2.6-2.2-4-3-1.4.3-2.5.8-3.3 1.6l6.5 9 1 2 .2.2-2 7c3 7 8 10.8 15 10.8-3.7-3.3-7.2-7-10.8-11 .3-1.8 1-3.8 2-6-.5-2-.8-4-1-5.8 3.2-5 6.7-10 10.4-14.6 4-5.6 8.7-10.5 14-15 2.3-.5 4.5 0 6.5 1.5 2.2 4.4 3 9.4 2 15-.2 14.4-.2 28.7.2 43 .5.8 1.2 1.5 2 2h1.8c.3-8 .3-16 0-24 .4-11.2.4-22.5 0-33.8-2.8-4-6-7.8-9.8-11.2-.4-3.7-1.2-7.3-2.2-10.8-.8-.6-1.5-.8-2.4-.7m7-33c-.8-.2-1.6 0-2.5.5l-7.4 2.5c-10.8 3.6-21.3 8-31.5 13.5-13.4 7.5-26 18.6-37.7 33.5-11.6 14.8-19.8 29.6-24.4 44.4-5 11-8.2 22.5-9.3 34.5 1-.7 2.2-1.2 3.4-1.4 5.6-30.2 18.4-57 38.6-80.4 5-6 10.5-11.5 16.5-16.5 3.3-2.8 6.6-5.4 10-8 8-4.8 16-9 24.7-12.3l15-5c2-.4 4-1 5.4-1.6.2-.7.5-1.4 1-2-.6-.2-1-.7-1.4-1.5m53.2 230.3h-.3l-4.2 1.2c4.4 5 6 11.6 4.8 20 1 .6 1.7.5 2.6-.4.5-3.7 1-7.3 1-11 5.3 5.3 11 8.4 17.3 9.4l-11-10.5-10-8.5h-.2v-.2m41-10l-1.4 4.2 17.8 23c1.8.5 2.8.2 3-1-5.6-9.2-12-18-19.5-26.2M450 391c.2-2.6.2-5.3.2-8 .2-1.3.2-2.7 0-4-.6-.6-1-1.4-1.3-2.2-1.6 7.5-2.5 15.3-3 23.2-.6 5-1.7 10.3-3.3 15.6-1.4 5-2.3 10-2.5 14.6 4-7 6.6-15.2 7.5-24.6 1-5 1.8-10 2.4-14.6m-42-1c.2-1.6 0-3-.4-4.2-1 1.6-2.4 3.5-4 5.6-2.2-4.8-4-5-5.2-.3 1.8 3 4 6 6.8 9.2l.4.3 1.3.8.4.2h.2c.5-2.5 0-5-1.4-7.3.2-1.6.8-3 2-4.2m-33.8-12l-.3-.3-.3-.2c-.6.8-1.4 1.3-2.4 1.7-.2 1-.3 2.3-.2 3.8l-3.8 11c0 2 .2 3.6 1 5 2-2.6 3.7-6 5-10l2-6v-2.8l-.3-1.2-.3-.6-.3-.4m-15-59.3c-.8 0-1.6 0-2.3.3-.3.2-.4.7-.4 1.5 12 14.8 17.4 31.6 16.5 50.5.5 1.4 1.3 2 2.5 1.4 1.8-5.3 2-10.8.6-16.4-.8-14.5-6.4-27-16.5-37.3m53.3 18c-1 .7-1.5 1.4-1.5 2.2 4.3 1.7 9 2.2 14.3 1.5 2.5-1 5.2-1.3 8-1l10 2 2-2.8c.7 6.5 1.5 13 2.5 19.2-.5 0-1 .2-1.5.6-1-.2-1.8-.2-2.7 0l-2.3 3.8-26 7c0 .7 0 1.2-.4 1.6 10.3-.4 20-2.2 29.5-5.3 2 1.6 3.2 3.4 3.8 5.2.7-.4 1.4-.4 2 0 1-7.3 1-16.2-.2-27-1-10.6-3.2-19-6-25.3-.7.3-1.2.8-1.6 1.5 2 4.8 1.7 9.6-.6 14.3-.8.8-1.7 1.2-2.8 1.2-2.5 1-6.6 1.5-12.3 1.2-6-.4-10.6-.4-14-.3m-17.2-9.2l1.3-2.8c2.7 3.2 5 7 7 11.3-5 .3-10.2 1-15 2.5.3 1 .5 1.7.4 2.5 6.6.5 13-.2 19-2-3.8-7.3-7.6-14-11.5-20.5-3.2 1.5-4.7 4.3-4.4 8.4 1 .7 2 1 3.2.5m2.7-87.5c.5-.2 1-.2 2 0 6 5.4 11.4 11.5 16 18-.3 1.4-1 2.5-2.5 3.5-.6 2-1 3.8-1 5l5.4 1.6c-8 15-14.4 30-19 45.4 1-.7 2-1.2 3.2-1.4 5.6-15 12.5-28.7 20.7-41.4 7.5 13.2 13.4 27.2 17.7 42 .7.5 1.3.8 2 .8C439 289 427 265 406.3 241.7c-20.7-23.4-44-36-69.7-38.2-11.4-.7-22.4.3-33 3l-15 6S278 218 275.3 220c-7 5.4-13.4 10.7-19 16-11.2 12.5-20.3 26.5-27.2 42-2.4 5.6-4.7 11.3-6.8 17l-3 9c-.5 1.7-.8 3.4-1 5v2.4l.2.2h.3c4-5 6.4-11 7.6-17.5 3.2-9 7.2-18 12-27 3-4.6 6-9.2 9.4-13.5 15-22.3 35.2-37 61-44 13-4.7 25-4.3 36 1-2 .4-4.4.8-7 1-.8.8-1.3 1.5-1.4 2.3l1.5 1.5c7.3-1.4 13.4 0 18.2 3.8 1 2 0 5-2.8 8.8l-4.7 6.8v.2l-.2.2c.3 5.6 1 11.3 2 17l9.8 50.8c-1.4 1.7-2.8 3-4.3 3.6.3.7.3 1.4 0 2 1 .6 2.8.5 5.5-.5 3.3-3.3 6-7 8.5-11.6 6.5-9 13.2-18 20-27l9.2-12.2v-.2c0-4-.3-7-1.2-8.4-1-1.6-.8-4.4.4-8.6m-4.2-5c-1 4.2-1.6 7.8-2 11 2 3 3 5.8 3 9-9.2 14.6-19.5 28.7-31 42-.6-.4-1.2-1-1.8-2-2.5-14-5-28-7.2-42-1.5-5.6-2.4-11-3-16 3-4 5.3-6.8 7-8 .4-3.5.8-6.8 1-10 .6 0 1.2-.3 1.8-.6 1.3 0 2.6.4 4 1l7 3c4.7 2 9 4.3 13 7 3.2 1.8 6 3.7 8.2 5.7z">
    <animate attributeName="display" values="none;none;inline;none;none;none;none;none;none;none;none;none;none;none;none;none;none;none" keyTimes="0;0.06;0.12;0.18;0.24;0.30;0.36;0.42;0.48;0.54;0.60;0.66;0.72;0.78;0.84;0.90;0.96;1" dur="1s" begin="0s" repeatCount="indefinite"/>
  </path>
  <path fill="#FF9600" d="M335.6 305.5c3 3 7 5.4 12 7 1.7.4 3.5.6 5.4.4-5-5-10.6-7.4-17.4-7.5M205 335c.8-5.7 1.4-11.3 2-16.8-.6-1-1.4-1.5-2.2-1.5-2.7 6-3.7 12.7-3 19.8 1-.7 2-1.2 3.3-1.5m67-51.5l-.4-.2h-.5l-8.2-1c-.5-.6-1-1.6-1-2.8-2-1.4-3.7-2.6-5.5-3.6-.2-1-.8-2-1.7-2.3l-4 1c-.2.4-.2 1 0 2 3 2 6 4.3 8.6 6.4.6 1.6 1.5 2.7 2.6 3.5 4.3-.7 8 .3 11 3 2.3.6 4 .6 5 0l-3.2-4-1.8-1.5-.3-.2-.4-.3m1.2-24.6c.5.7 1.2 1.4 2 2 1 .6 2 .6 3 0 .5-5.3-1.2-6-5-2m.4-6.5c.8-.6 1.6-1 2.5-1.5 0-1.3-1-2.4-3.3-3.4-1.3.4-2.7 1-4 2 .3.8.5 1.6.4 2.4 1.6.6 3 .8 4.6.5M325 218c.3-1.3.2-2.5-.4-3.5-1 0-2-.4-3-1-.7 0-1.2.5-1.5 1.5 1.2 3.7 1.8 7 2 10-4.3 2.8-8.6 5.8-13 9l-16 16c-1.8-1-4-1.4-7-1-.5.6-.8 1.3-.8 2 6.6 5 8.2 11.4 5 19l.5 1 4.5 5.2 13.8 14c1.4.7 3 1.2 4.4 1.3.4-.3.4-1 0-2-7-6-13.3-13-18.4-20.4 0-2.6.6-5.3 2-8-.3-1.5-1-3-2-4.8 2-3.3 4.7-6.7 8-10 5.5-7 12-12.2 19.5-15.6 2.3 1 4.8 2.7 7.4 4.6 1 1.3 1.2 3.8.8 7.7l-.8 8c.3 8.7 0 17-1 25-1.8 7.8-2 15.4-1 23 .5 1.7 1.3 2 2.4 1.4 1.2-7.5 1.8-15.3 1.8-23.2l2-22.5.6-6.5v-10.6l-.8-3v-.3l-7-6.2-2-10m22.2 5.2v1.4l.5 1.3.5 1c1.2.4 2.3.5 3.4.3 1-4-.5-5.3-4.2-4.2l-.2.2m-33.2-36c-.4-1-1.2-1.4-2.4-1.7-12.2 3.5-24 8.5-35 15-13.4 7.4-25.8 18.6-37.5 33.4-11.5 14.7-19.5 29.4-24 44-5 11-8.2 22.5-9.3 34.5 1-.7 2.2-1.2 3.4-1.4 3-13.6 7.8-28 14.2-43 6.5-15 14.6-28 24.4-38.4 7.7-7.5 15.6-14.7 23.5-21.5 12.7-8.3 26.5-14.5 41.5-18.5.8-1 1.3-1.7 1.5-2.4m55.3 246l1-2.8 1.4-3.4 7.5 7.2c2 1 3.4 1 4 0-4-6.5-9.2-12-15.4-16.4-.3 3-.5 6-.6 9.4-.3 1.8-.3 3.4 0 5 .6.8 1 1.6 1.5 2.5l.2-.2.3-1.2m43.4-17.2c-.2.7-.6 1.2-1.3 1.4-.2 1-.2 2.4 0 3.8 2 3.2 4 6.5 6.8 10 1.4.2 2.4.2 3 0-2-5.5-5-10.6-8.5-15.2m0-38c-1 .6-1.4 1.3-1.4 2 .3.6.8 1 1.5 1.6 7.4-.3 14.8-1.2 22-2.8 3.2-.7 6-1 8.8-1 4.2 8.3 4.7 17 1.6 26.3-.8 4.3-1.8 8.6-3 13-1 4.4-1.8 8.8-2 13 4.3-6.8 7-15.2 8-25 .8-10 1.7-19.2 2.5-27.6-12.6-1.8-25.2-1.8-38 .3m-6.6 17.3c1.4-3 2-6.2 1.6-9.2-1.8 3.3-3.7 6.8-6 10.6-6.4-4.4-7.6-3.3-3.4 3.4l9 13.4.3-4.6v-1l-.4-1v-.3l-.6-.7-1.2-2-1.8-4.3c.6-1.4 1.5-2.8 2.7-4.3m2.2-15c-.8-1.2-3-1.7-6.5-1.5-2.2.5-4.5 1-7 1.2-.4.7-.6 1.5-.5 2.3.8.4 2 1 3.5 1.5 1.4 0 2.7-.3 4-1 1.8.2 3.5.2 5 0 .3-1 .8-1.7 1.5-2.5m-33.8-2l-.3-.3-.3-.2c-.6.8-1.4 1.3-2.4 1.7-.2 1-.3 2.3-.2 3.8l-3.8 11c0 2 .2 3.6 1 5 2-2.6 3.7-6 5-10l2-6v-2.8l-.3-1.2-.3-.6-.3-.4m-15-59.3c-.8 0-1.6 0-2.3.3-.3.2-.4.7-.4 1.5 12 14.8 17.4 31.6 16.5 50.5.5 1.4 1.3 2 2.5 1.4 1.8-5.3 2-10.8.6-16.4-.8-14.5-6.4-27-16.5-37.3m53.3 26c-1 .7-1.5 1.4-1.5 2.2 9.6 2.5 19.6 4 30.2 4.7l2.3 2.8h3.8c.2 5.7.7 11.2 1.5 16.6 1-.2 1.5-.6 2-1 .4-7.6 0-16.5-1.2-26.7-1.2-10-3.2-18.3-6-24.6-.7.3-1.2.8-1.6 1.5l4 19.8c-.7 3-1.6 5.5-2.7 7.4-10.3-.6-20.5-1.5-30.7-2.7m-8-24.7c-.2-.6-.7-1-1.3-1.3-.8.5-1.8.8-3 .8-2 2.5-3.7 5.4-5.3 8.7-.6 1-1 2-1 2.8 1.2 1 2.5 1.3 4 1 .8-.2 1.6-1 2.3-2.2 2.4 4.3 4.2 8.7 5.5 13.2l-5.4.6-2.7.6-1.2.4-.5.3-.2.2c.2 1 .8 1.7 1.8 2.4 3.3.2 6.5.2 9.8 0 .8-3.8.6-7.5-.6-11.2-2-3.4-3.5-6.5-4.8-9.2.5-2.7 1.4-5 2.7-7.2m-39-100c-.2 2.7-1 5.2-2.4 7.5-2.3 1.7-4 3.6-5.4 5.6-1 6-1 12 0 18 2.6 13.7 4.3 27.7 5 42l1 9c.4 1 .7 2 .8 3-1.6 2.2-2.8 4-3.4 5.6.7 0 1.3.3 2 1 2.6-1.4 5-3.6 7.4-6.6 8-9.7 16.3-19 24.6-28.5l10.6-11.4.8-1c0-4-.3-6.8-1-8-.7-1.5-.2-4 1.6-7.5l.7.7 10.3 12.8 3 4.7.3 1v1.2c-.7 2.6-1.6 5-2.4 7.4l4.5 2.5c-7.2 10.3-13.5 21.3-19 33 .3 1 .8 1.5 1.6 1.4.8 0 1.6-.2 2.4-.6 5.7-11 12-21.3 18.7-31.3 6 9.4 10.4 19.8 13.4 31.4l2-.2c-1.6-8.3-4.2-16.3-7.8-24-9-24-23.5-44.3-43.2-61-15.4-14-33.2-21.7-53.4-23.6-6.2-1-12.6-1.4-19-1-7.7 1.2-15 3-22 5.2-2.3 1.4-4.8 2.6-7.2 3.8-10.3 3.8-19 9.7-26.4 17.6-3 2-5.7 4.3-8.5 6.5-10.5 11.8-19 25-25.7 39.4-2.4 5.8-5 11.6-7.8 17.2-1 3-2 6.3-3 10-.5 1.5-1 3.2-1 4.8-.2 1-.3 1.7-.6 2.5.2.7.5 1 1 1 4-5 6.4-10.8 7.6-17.4 3.2-9.3 7.2-18.3 12-27 5.3-10.4 13.6-21 25-32.2 11.4-11 22.6-18.6 33.6-22.4 5.8-2.2 11.5-4 17-5h6c8.6-2.2 17-1.5 24.8 2l-1.6 1.7-.7 1.2v1.2c7.3 2.5 15.2 4.6 24 6.7m2.6 9.5l2.2-8c12.7 5.3 23.8 12.8 33.3 22.6l-3.7 9 2.7 9c-1.8 3-4.2 5.7-7.4 8.5-9.2 9.5-18 19.5-26 30-3.3-9-4.8-19-4.5-29.5-1.4-10.7-2.7-21.7-3.8-33 2-4 4.6-6.8 7.4-8.5z">
    <animate attributeName="display" values="none;none;none;inline;none;none;none;none;none;none;none;none;none;none;none;none;none;none" keyTimes="0;0.06;0.12;0.18;0.24;0.30;0.36;0.42;0.48;0.54;0.60;0.66;0.72;0.78;0.84;0.90;0.96;1" dur="1s" begin="0s" repeatCount="indefinite"/>
  </path>
  <path fill="#FF9600" d="M337.5 304.7c-.8 0-1.4.4-2 .8 3.2 3 7.2 5.4 12 7 1.8.4 3.6.6 5.5.4-4.3-4-9.5-6.6-15.5-8.3M205 335c.8-5.7 1.4-11.3 2-16.8-.6-1-1.4-1.5-2.2-1.5-2.7 6-3.7 12.7-3 19.8 1-.7 2-1.2 3.3-1.5m74.6-50.2c1.7 2.3 3.3 4.2 5 5.8 1 0 1.4-1 1.5-2.5-.5-1.7-2-4.5-4-8.4-2-4-4-6.2-5.5-6.8l-7.8-.2-2.8-5.2c-1.2-1-2.4-1.6-4-2.2 0-1-.7-1.8-1.7-2.2-1 .4-2.2.6-3.2.5.2 3.7 2.3 6.2 6.3 7.5.8 1.3 1.5 2.5 2 4 3 1.7 6 2.5 9.5 2.5l-2.4 6.4-1 3c-.2 2 0 3 1 3 3.5 1 6-.7 7.2-5.2m5.2-32.4l2.2-2.3-4.2-1.4c-1.5.6-1.7 2-.6 4.4l1.6-.4h1m0 0h-.2.2M277 243c1.6.6 3 .8 4.6.5.8-.6 1.6-1 2.5-1.5 0-1.8-1-2.8-3-3l-4.4 1.5c.5 1 .6 1.7.5 2.5m63-13.4l-1.5-1.4-.5-.3v-.2l-.4-.2c-.7-5.5-1.8-10.8-3-16-1.8-.4-3.2 0-4.3 1.6.7 1.8 1.3 3.7 1.8 5.8-1.8 2-4.4 3.8-7.8 5-8.2 5.2-15.8 11-22.6 17.5-1.7 0-3.3-.6-5-2-1.4.4-2.5 1.3-3.3 2.7 3.2 3.2 5.4 7.2 6.8 11.8-.6 2.4-1.5 5-2.7 8 1.5 3.5 3.8 7 6.8 10.2 8.3 11.5 17.6 21.8 28.2 31 1 .3 1.8 0 3-1.2 1.7-7.4 2.7-15 3-23l4-27c1-6 1.8-11.5 2-16.8l-4.3-5.6m-6 .4c2.7 1.4 4.6 3.4 6 6-.6 7.3-1.5 14.3-2.8 21-1.7 14-3.5 27.7-5.6 41.5-8.4-8.2-16-17.2-23-27-3.2-3.5-5.7-7-7.4-10.6 1.2-2 2-4 2.8-6l-1.8-8c8-10.2 17.8-17.3 29.2-21.4 1 1.2 2 2.7 2.7 4.4m-20-43c-.4-.7-1.2-1.2-2.4-1.5-12.2 3.5-24 8.5-35 15-13.4 7.5-26 18.6-37.5 33.3-11.4 14.7-19.5 29.4-24 44-5 11.2-8.2 22.7-9.3 34.7 1-.7 2.2-1.2 3.4-1.4 3-13 7.6-27.3 14-42.4 6.3-15.2 14.2-27.8 23.6-38 8-8 16.2-15.4 24.5-22.5 12.7-8.3 26.5-14.5 41.5-18.5.8-1 1.3-1.7 1.5-2.4m57.7 247.6l2 .5h.5c-.5-4-2.6-7-6.4-9.3-1 4 .2 7 4 9m41-49c-1 .7-1.5 1.4-1.5 2.2 7.3 1.7 15 2.2 23.3 1.5 3-.5 5.6 0 8 1.2 1.6 3 2.8 5.4 3.5 7.3-2.6 11-4.6 21.6-6 32 1-.3 2-1.4 3-3 3.5-12 5.8-24 7-36v-9c1-1.7 1.4-3 1-3.8-.8-.3-1.3-.8-1.5-1.5l-.5.6-.5 1-1 3-1 6c-.6-1-1.3-1.7-2-2.7-1 0-2 .3-3 .8-6.5-.3-13 0-19 1-2.4-.3-5.6-.5-9.7-.7m-5-31.2c.4-.7.5-1.5.3-2.3-2.6-1.8-5.7-2.6-9-2.5-1 .6-1.6 1.4-1.6 2.2 3 1.2 6.5 2 10.3 2.5m4.4-1.5l-.4.2h-.2l-.2.4v.4c.7.6 1.2 1.4 1.6 2.4l23.8 5.3 2.4.8.5.2 3.5 1.5c0 1.2 0 2.3.8 3.2l3.8-.7 1.5 4.2c1-.4 1.5-.8 2-1.2.4-7.6 0-16.5-1.2-26.7-1.2-10-3.2-18.2-6-24.5-.8.4-1.3 1-1.6 2.2 1.4 5 3 11.5 4.3 20 1.4 8.3.7 14.5-2 18.5-3 .4-6-.2-9-1.8-4.4-1.3-8.7-2.3-13-3.2l-6.5-1.5-1.8-.2H413l-1 .5M391 385.7c-1 .7-1.4 1.4-1.5 2.2 4.7 1.3 9.6 2 14.8 2-.6 4.3-2.4 8-5.3 11.2l-2-2.6c-2.4-.2-3.3.7-3 2.8l12.7 24.5h.2v.2l.3.2c1.4-4 .7-8-2.2-12-3-3.7-4.4-6.6-4.4-8.6 3.7-6 6-12.6 7.3-19.4-1.3-1-3-1.4-5-1-4 0-8 0-12 .3m-16.3-7.7l-.3-.3-.3-.2c-.6.8-1.4 1.3-2.4 1.7-.2 1-.3 2.3-.2 3.8l-3.8 11c0 2 .2 3.6 1 5 2-2.6 3.7-6 5-10l2-6v-2.8l-.3-1.2-.3-.6-.3-.4m-15-59.3c-.8 0-1.6 0-2.3.3-.3.2-.4.7-.4 1.5 12 14.8 17.4 31.6 16.5 50.5.5 1.4 1.3 2 2.5 1.4 1.8-5.3 2-10.8.6-16.4-.8-14.5-6.4-27-16.5-37.3m40.2 19.8l3-3.8 5 8.7c0-4.3-1-8.5-2.5-12.4.7-1.5 1.7-3 3-4l-.6-5.3c-4.6 4.2-8 9.3-10.2 15.2.5.8 1.3 1.3 2.3 1.5M376 224c-3.6 4.8-6.5 8.4-8.8 11-.5 4.6-.8 11-1 19.2-.2 8.2 0 14.5 1 18.8l1 25c.8 3.3 1.4 6.6 1.8 10l-4.8 5c2 0 4 0 6.4-.4 15.4-13.4 29.8-27.3 43.4-41.6.4-2.7-.2-5.4-1.8-8 .2-1.7.7-3.5 1.4-5 6 7 10.7 15 14 23.7l-4.5 3.5c1.2 1.3 2.8 2.7 5 4-3.5 5.7-7.2 11.3-11 17-1.7 1.6-3 3.3-3.7 5 .5.8.6 1.5.5 2.3 6.6-6.4 13-13.3 18.8-20.8 2.4 6.3 4.7 12.8 6.7 19.3.8.8 1.5 1.3 2.2 1.5-2-13-6.4-25.6-13.2-37.6-14-30.3-36.3-52.2-66.6-65.6-8-3.6-16-6-24-7-10.8-.7-21 0-31 2.2l-19 7c-3.7 2-7.2 4-10.6 6.4-1 .2-2 .5-3 1-6 5.8-12.3 11-19 16-4 3.4-9 9.6-14.6 18.6-5.6 9-9.5 16-11.5 21.3-2.5 5.7-5 11.5-8 17l-3 10c-.4 1.7-.8 3.4-1 5 0 1-.2 1.7-.5 2.5.2.7.5 1 1 1 4-5 6.4-10.8 7.6-17.4 3-8.5 6.7-16.8 11-25 7.8-15.2 19.2-29 34.2-41s31-19 48.3-20.5c5.2-1 10.5-1.3 16-1 4.8 1.5 9.5 3 14 5l1.5 3.5c8.2 2.6 16.5 5.6 25 9m-4.7 12c2.2-1.4 5-4.5 9-9 12.3 5.7 23 14.4 31.8 26 0 2-1 3.7-2.7 5 0 4 .5 7.5 1.7 11-2 3-5 5.8-8.4 8.5l-28 26c-2.8-7.8-3.6-16.3-2.5-25.5-1.5-14-1.8-28-.7-42m-11.7-7.5c1.8 1 2.8.8 3.2-.5-1-3-2.3-4.4-4-4.4-.4 1-1 1.8-1.7 2.4 1 .8 2 1.6 2.6 2.5z">
    <animate attributeName="display" values="none;none;none;none;inline;none;none;none;none;none;none;none;none;none;none;none;none;none" keyTimes="0;0.06;0.12;0.18;0.24;0.30;0.36;0.42;0.48;0.54;0.60;0.66;0.72;0.78;0.84;0.90;0.96;1" dur="1s" begin="0s" repeatCount="indefinite"/>
  </path>
  <path fill="#FF9600" d="M205 335c.6-5.7 1.2-11.3 2-16.8-.6-1-1.4-1.5-2.2-1.5-2.8 6-3.8 12.7-3 19.8 1-.7 2-1.2 3.3-1.5m66-73c1 4.5 4 6.5 9 6l-5 11-2.8 5-.5 2.7v1.9l.2.4.2.4h.3c1 .6 2 1 3 1 3.3-5 6.4-10 9-15.6 2 5.4 4.6 10.3 8 14.5.2-1 .7-1.6 1.5-2.2-.3-1.5-1-3.2-2-5-2-6-4.7-11.8-7.7-17.2-2.5-1.4-5.5-1.8-8.8-1.2-1.3-1.6-2.3-3.6-3-6l-3-2c-.5-1.2-1.2-2.2-2.2-2.8-1 .4-2.2.6-3.2.5v2.8c3 2.2 5 4.3 7 6m20.6-15.5c1 0 2-.6 2.5-1.5 1-.7 1.2-1.5.6-2.5-5.8-1.7-6.8-.3-3 4m-7.4-12.6c.4 1 1 1.7 1.5 2.4 3 .3 5.5-.2 7.4-1.4.2-1 0-1.7-.4-2.5-2.4-1-5-1-7.5-.5-.5.7-.8 1.3-.8 2m55-20l.3.4 1 .8 1.4 1c-8.3 3.4-16.3 7.3-24.2 11.5l-7.2 5.8c-3-1-5.7-.7-8.2.8 1 1.4 2 3 3 4.8.8 2.2 1.2 3.8 1 5 .5 4-.2 7.6-2 11l.2 1 1.5 3 2.5 4 5.3 7.8c2.2 3.3 5.7 8 10.4 14.4l7 10.5 1.4 2.6.2.5c0 3.6 1.6 6.8 4.5 9.5 3 1.8 6.6 3.3 10.5 4.5 1.7.4 3.5.6 5.4.4-4.3-3.2-9-6-13.8-8-.4-1.4 0-2.8.8-4 .5-3.8 1.2-7.4 2-11 2-11.5 4.5-22.8 7.2-34 2-5.6 3.2-11.3 4-17 .2-4.4-1-8-4-11-.8-.3-1.5-.6-2-1-1-5.2-1.5-10.3-1.8-15.3-3.4-1.2-5.4-.4-6.4 2M312 247c-.3-3.4-1-6-1.8-8 9-8.4 19.3-14.6 31.2-18.4.3 3 1 6 2 9 2.4 1 4.3 3.2 5.6 6.4-.8 10-2.8 19.7-6 29-2.3 10.2-4.3 20.5-6 31-8-8.6-15.3-18.4-21.5-29.5-2.8-3.4-5-7-6.4-10.6.4-3.3 1.3-6.3 3-9m2-60c-.4-.7-1.2-1.2-2.4-1.5-12.2 3.5-24 8.5-35 15-13.4 7.4-26 18.6-37.5 33.4-11.5 14.6-19.5 29.3-24 44-5 11-8.2 22.5-9.3 34.5 1-.7 2.2-1.2 3.4-1.4 4.6-19.6 11.6-38.6 21.2-56.8 3-4.7 6-9.3 9.4-13.6 2-3.6 4.3-7 7-10 8-8 16.2-15.4 24.5-22.5 12.7-8.3 26.5-14.5 41.5-18.5.8-1 1.3-1.7 1.5-2.4m128.3 133.2c2.3 8.6 4 17.2 5 25.8 0 8.6.7 17 1.6 25.4.6-1 1.4-1.3 2.2-1.4.8-18.5-1.6-35.6-7.3-51.3-.8.3-1.3.8-1.7 1.5m-29.5 74.5c-1 .6-1.5 1.4-1.5 2.2 7.4 2 15 3.4 22.5 4.4 2.2-.2 4 .2 5.8 1.2 2.7 4.2 3.6 8.7 2.7 13.5-1.2 5-2 9.6-2 14 4-6.3 6.7-14.8 8.2-25.4 1.5-10.6 1.8-20 1-28h-1l-3 .4-1 .4-.3.2-.6.6-.2.4v.3l1.5 1.4c1-.6 2-.6 2.7 0 0 7.5-1 14.7-3 22-.7-1.6-1.4-3-2-4.7-10-.8-20-1.8-30-3m-5.3-34.8v-.5h.4v-.2l-.2-.2-3-2c-1.7-1.2-3.2-1.5-4.8-1-.3.8-.8 1.6-1.5 2 2.8 2 6 3 9.3 3.7v-.2l-.3-1.2v-.4m5.4-.2c-.6.4-1 .8-1.3 1.4-.2.7 0 1.4.5 2.2 6.2 3 12.6 5.5 19.3 7.6 2.4.2 4.7 0 7 0-7.8-5-16.3-8.6-25.6-11.2m-23 31.7c-1 .4-1.8 1-2.2 1.5 4 2.4 8.6 3.8 13.7 4.2-1 3.6-3 6.3-5.4 8l-3-2.5c-.5.3-1 .8-1.4 1.5 1.7 9.2 5 18 10 27 0 1 .4 1.4 1.4 1.4 1 .2 1.8 0 2.4-.6-2.3-7-5-14-8-21 .8-3 2.3-5.8 4.6-8.5 1.6-3.3 3.8-5.4 6.5-6.5-.8-.6-1.3-1.3-1.6-2.3-1.2-.3-2.5-.3-4-.2-4.3-1-8.6-1.6-13-2M374.4 378l-.3-.3-.3-.2c-.6.8-1.4 1.3-2.4 1.7-.2 1-.3 2.3-.2 3.8-1 3.7-2.4 7.4-3.8 11-.2 2 .2 3.6 1 5 2-2.6 3.7-6 5-10l2-6v-2.8l-.3-1.2-.3-.6-.3-.4m-15-59.3c-.8 0-1.6 0-2.3.3-.3.2-.4.7-.4 1.5 12 14.8 17.4 31.6 16.5 50.5.5 1.4 1.3 2 2.5 1.4 1.8-5.3 2-10.8.6-16.4-.8-14.5-6.4-27-16.5-37.3m52.2 7.8l.2 2.4v1l.2.2.2.3h.2l3.6-3.6c3-2.6 5-5.3 5.4-8.4-2.7.2-5 1.7-7.2 4.5-1 1.3-2 2.4-2.7 3.5m-10.2 17c2.5-3.3 4.5-3.3 6 0 .4-3.6.4-7.2 0-10.8-4.5 2.5-7.3 6-8.4 10.3.8.4 1.6.6 2.5.5M368 231c1.3.5 2.4.6 3.5.4 1-5-.6-6-4.3-3.2-.2 1 0 2 1 2.8m16.8-1c-3.8 2-6.8 4.8-8.8 8-1.3 16.5-2 33-2 50-1.4 6-1.7 12-1 18 1 2.6 1.5 5 1.5 7.4 1.8-.4 3.6-.8 5.4-1.4 10.2-8 20.6-15.6 31-23 4-2.3 7.2-4.7 10-7 .8-4.2 1-8.2.8-12.3 5.5 7 9.6 15.2 12.2 24.2-3 0-4 1.2-3.8 4 .5.8 1.3 1.4 2.3 1.7v2c-1.4 2-3 4-5 6-1.5 2.4-2.5 4.4-2.7 5.8h2.8c3.5-3 6.5-6.2 9.2-9.8 1.3 2.6 2.5 5.6 3.8 9 .7.5 1.3.8 2 .8-2.3-17-8.5-33-18.8-48.4-10.2-15.2-21.8-28.6-34.7-40-8-6-16.7-11-26.3-14.6-8-3.6-16-6-24-7-10.8-.7-21 0-31 2.2l-19 7c-3.7 2-7.2 4-10.6 6.4-1 .2-2 .5-3 1-6 5.8-12.3 11-19 16-4 3.4-9 9.6-14.6 18.6-5.6 9-9.4 16-11.5 21.3-2.5 5.7-5 11.5-8 17l-3 10c-.4 1.7-.8 3.4-1 5 0 1-.2 1.7-.5 2.5.2.7.5 1 1 1 5-7.4 8.6-16 10.6-25.4 4.3-10.6 9.8-21 16.5-30.5 8-12.4 18.6-23.2 32-32.4 13.5-9 27.5-14.3 42-15.5 5.2-1 10.5-1.4 16-1 4.5 1.4 9 2.8 14 4 .5 1.5.7 3 .7 4.3 1.2.4 2.3 1 3.5 1.5l9.8 2.2c8.2 2.6 15.4 6.3 21.5 11.4m-4.7 9c2.6-2.8 5.7-5 9.4-6.5 9.2 6.3 17.2 14 24 23 2.5 2.3 4.3 5 5.4 7.6-.4 2.2-1.4 4.2-2.7 6-.2 3 .4 6 1.7 9-2 2.4-4.7 4.8-8 7-9.3 7.8-19.2 14.6-29.4 20.5-1.3-.3-2.5-1-3.4-1.6-.5-6-.2-11.5 1-17 .3-4 .3-8 0-12-.6-12.3 0-24.3 2-36z">
    <animate attributeName="display" values="none;none;none;none;none;inline;none;none;none;none;none;none;none;none;none;none;none;none" keyTimes="0;0.06;0.12;0.18;0.24;0.30;0.36;0.42;0.48;0.54;0.60;0.66;0.72;0.78;0.84;0.90;0.96;1" dur="1s" begin="0s" repeatCount="indefinite"/>
  </path>
  <path fill="#FF9600" d="M205 335c.6-5.7 1.2-11.3 2-16.8-.6-1-1.4-1.5-2.2-1.5-2.8 6-3.8 12.7-3 19.8 1-.7 2-1.2 3.3-1.5m93.2-99l1 4c7.5-2 7.2-3.4-1-4m3.8-8.3l-2.3-3c-.6 0-1.2.4-2 1l-2.5-.6c-.2 1.2-.5 2.5-1 4l4.5.6 1.5-.2.6-.2.5-.2.6-.4V227.7m-25.5 16c-2-.7-3.7-.2-5 1.3l6 7.5c1 4.6 3.6 7 8.3 7.5-3 4.6-6 9.3-8.6 14l-3.6 7.5-1.6 4.4-.2 1.7v1.6l.2.2h.5c1 .6 2 1 3 1 5.2-8 10-16.5 14-25.6 3.4 7 6 14.7 8 22.7 1 1.3 2.3 1.8 3.5 1.5.4-.4.7-1 1-2l-10-29-.5-.5c-3.4-1-6.4-2-9-3-2-4-4-7.7-6-11M314 187c-.4-.7-1.2-1.2-2.4-1.5-12.2 3.5-24 8.5-35 15-13.4 7.4-26 18.6-37.5 33.4-11.5 14.6-19.5 29.3-24 44-5.3 11-8.4 22.6-9.3 34.5 1-.7 2.2-1.2 3.4-1.4 4-18.5 11.3-37.6 21.8-57 10.4-19.6 24-35 40.4-46 7-5 14.6-9.2 22.6-12.4 6.3-2 12.6-4 18.8-6.2.7-.8 1.2-1.6 1.4-2.3m90.7 218.5l1.5-.2h.6l1-.5.2-.2.2-.2v-.4c-.8-.6-1.3-1.4-1.6-2.3-1.7-.5-3.7-1-6-1.2-5-2-10.3-3.4-15.8-3.8-1 .6-1.4 1.4-1.5 2.2 4.2 1.3 8.7 3 13.3 4.7-.8 4-3.4 5.4-7.8 4 0 8.7 2.2 17 6.4 25.4 1 .8 2 .7 3 0-1.2-6-2.8-12-5-18l.4-.6 7.2-9.8c1.3 0 2.6.2 4 1m37.5-85.4c2.3 8.6 4 17.2 5 25.8 0 8.6.7 17 1.6 25.4.6-1 1.4-1.3 2.2-1.4.8-18.5-1.6-35.6-7.3-51.3-.8.3-1.3.8-1.7 1.5m-19 56c.6.5 1 1 .8 1.8l4.8 2.4 8 4 5 3 .5.6.4.6v.3h.3c0 1.2-.3 2.3-.4 3.4 1.4.6 2.5 1 3.4 1.7 0 8-1.4 15.3-4.4 22.2 0-2-.4-3.8-1.5-5.2-8.6-3-17.5-5.5-26.5-7.3-.8.2-1.4.4-2 .8-.3.7 0 1.5.6 2.5 8.5 2 16.7 4.5 24.6 7.5.7 1.6 1 3.4.7 5.4.6 1.5 1.5 3 2.7 4 .2 1.7.3 3.7 0 6 6-11 9-23.7 9.3-38l.8-11c.5-1.2.8-2 1-3-.8-.2-1.3-.7-1.5-1.4-1 2.6-2.4 5.2-4 7.8-7-5-14.3-7.6-22.2-8.2M403 367l4.7 1.6c.4-.7.5-1.4.4-2.3-2.3-2.3-4.5-3.7-6.7-4l1.4 4.4.4.2m13.8 2.8l-.7-.7-.4-.3c-1-.7-2.3-1-3.8-1 .4 1.2.6 2.3.4 3.3 1.2.5 2.3.6 3.4.4.2-.6.7-1 1.4-1.4l-.2-.2m-42.4 8.2l-.3-.3-.3-.2c-.6.8-1.4 1.3-2.4 1.7-.2 1-.3 2.3-.2 3.8-1 3.7-2.4 7.4-3.8 11-.2 2 .2 3.6 1 5 2-2.6 3.7-6 5-10l2-6v-2.8l-.3-1.2-.3-.6-.3-.4m-15-59.3c-.8 0-1.6 0-2.3.3-.3.2-.4.7-.4 1.5 12 14.8 17.4 31.6 16.5 50.5.5 1.4 1.3 2 2.5 1.4 1.8-5.3 2-10.8.6-16.4-.8-14.5-6.4-27-16.5-37.3m19 0h-2.8l.4 2.3 2.3-.5V319l.2-.3m33.3 21.8l4.4-2.4c6.8-6 13-12.2 19-18.7-1.4-.7-2.8-.8-4.3-.5-7.2 5.7-13.7 12-19.6 18.5-.3 1.2-.2 2.3.4 3.2m-4.4 4l.2-2.8c-3.6 1.2-6 3.6-7.2 7.2.8-.2 1.6 0 2.3.5 1 0 2-.6 2.5-1.5l2-2.6.3-.3V344.3m-26-109c.6-.7.8-1.5.6-2.4-.4-1-1-1.7-1.5-2.4-5.5 2.5-5.2 4 1 4.8M356.2 222c1-2 1.8-3.6 2.4-4.5 12.7 3.3 24 9 34.3 17.5-2.5 1-4.6 2.4-6.3 4.5-3.2 7.8-5 16.7-5 26.7-.4 10-1.2 19.3-2.5 27.8-2 6-2 12-.4 17.5 1.2.2 2.5.2 4 0 4.7 3 9.2 2.4 13.4-1.4 8-4.4 16-9 24-14 3-1.5 5.7-3.2 8-5v-9c3.6 5 6.5 11 8.5 17.6 1 2.3 1.5 4.4 1.4 6.5l-3.8 1.2c-.4.3-.6.8-.5 1.5 2.4 3.7 5.5 5.2 9.4 4.4-4.2-20.4-12.7-39.8-25.4-58s-28.6-32-47.8-41.5c-8-4.2-16-7-24.2-8.8-16.5-2.4-32.4-1-47.8 4-8.3 3.4-15.8 7.2-22.6 11.4-7.7 5.7-14.5 11.6-20.5 17.6-5.2 6-9.8 12-14 18-9.6 17.6-17.4 35.8-23.4 54.7.2.8.5 1.4 1 1.8 5-7.2 8.8-16 11-25.8 2.2-5.8 5-11.5 8-17 7.7-15.3 19-29 34-41.2s31.2-19 48.4-20.4c4.8-1 9.8-1.3 15-1 4.8 1.4 9.6 3 14.2 4.5-2.7.5-5.2 1-7.7 1.2.4.7.6 1.4.5 2.2l1 1 .2.4c-6 2.6-12 5.2-18 8-2 1.6-4 2.8-6.2 3.5l-4-1.7h-.2v.3l-3 2.2c3 4 4.6 8.3 4.7 12.8-3 3.3-3.8 7-2.8 11 9 16.3 17.5 32.6 25.8 49l-5.8 1.2c3 5.5 7.7 9 14.4 10.4 1.6.4 3.4.6 5.3.4-3.5-2.8-7.4-5.5-11.6-8 3.8-5.7 6.7-13 8.6-21.5 2-8.6 4-16.4 6.2-23.2 2.8-6.8 4.8-13.5 6-20l-.3-3.7-.3-2-.5-1.2v-.2l-.3-.2v-.2h-.3c-1-.7-2-2-3-4-1.3-2.4-1.8-4.5-1.8-6.7m39.6 16.6c4.5 1.3 8 4.2 11 9 8.4 8.2 15 17.6 19.3 28.3l-2.8 5c0 2 .3 4.5.5 7.5-2.3 2.4-5.3 4.5-8.8 6-9 5-17.6 10-26.3 15-2.5-1-4.6-2.2-6.4-3.6-.3-7.2.3-14.2 2-21l3-28c.5-4.3.8-8 1-11 0-3 2.6-5.6 7.5-7.4m-44.2-20.8c.6.4 1 .8 1.4 1.4-1 6.2-.6 10 1.4 11.6s3.2 4.6 3.8 9.2c-.6 4.4-2 8.8-4 13-4 13.7-8.2 27.5-12.5 41.5-7-10.2-13.2-21-18.6-32.4-2.6-3.4-4.5-7-5.7-11v-5c1.5-1.8 2.7-3.8 3.6-6-1-2.8-1.4-5.7-1.3-8.5l.4-.4h.3l17.2-8.7c4.6-1.8 9.3-3.4 14-4.5z">
    <animate attributeName="display" values="none;none;none;none;none;none;inline;none;none;none;none;none;none;none;none;none;none;none" keyTimes="0;0.06;0.12;0.18;0.24;0.30;0.36;0.42;0.48;0.54;0.60;0.66;0.72;0.78;0.84;0.90;0.96;1" dur="1s" begin="0s" repeatCount="indefinite"/>
  </path>
  <path fill="#FF9600" d="M205 335c.8-5.7 1.4-11.3 2-16.8-.6-1-1.4-1.5-2.2-1.5-2.7 6-3.7 12.7-3 19.8 1-.7 2-1.2 3.3-1.5m102.2-104l1 4c7.5-2 7.2-3.4-1-4m-17.6 13.5L285 237c-.7-1-1.6-2-2.5-2.4-.5.6-1.2 1-2 1l.7 4.3c1.8 2.3 3.3 4 4.8 5 0 4 1.5 6.2 5 7l-11 18-5.4 9.5-2.4 4.6-.5 2.7v1.9l.2.4.2.4h.3c1.2 1 2.4 1 3.5.6 6-11 12.6-22.5 19.5-34.2 3.3 7.7 5.8 15.8 7.4 24.4l1 7.8c1 .3 2 .8 2.5 1.6l.3-.4.3-1 1-3c-.3-1.6-.6-3.2-1.2-5l-2.4-9.5c-1.5-6.4-3-12.7-5-19-2.5-2.5-5.7-4-9.4-4.6 0-.8 0-1.6-.4-2.5m21.2-24v-.8l-.2-.2h-.2l-.5-.2h-1.6l-3.7.2c-.6.7-.8 1.5-.6 2.4 0 .8 0 1.6.7 2.3 3 .3 5.5 0 7.4-1.4v-.3l-1-1.4-.2-.7M313 187c.2-.7-.3-1.2-1.4-1.5-6.5 2-12.8 4.3-19 7-17.3 6.5-33.2 18-47.7 34.5-14.6 16.4-24.6 33.4-30 51-5.4 11-8.4 22.5-9.3 34.5 1-.7 2.2-1.2 3.4-1.4 4-18.5 11.3-37.6 21.8-57 10.4-19.6 24-35 40.4-46 7-5 14.6-9.2 22.6-12.4 6.3-2 12.6-4 18.8-6.2.4-.8.6-1.6.5-2.4m85.2 224.8h.3c1.7.7 4.4 1.6 8.2 2.8 1-.2 1.5-.7 1.5-1.5-7.5-5.3-16-9.4-25.6-12.2-.8 0-1.5.4-2 .8-.5 1-.5 2 0 3 4 1.6 7.7 3.4 11.3 5.5-1 .6-2 1-3.3 1.6-1-.5-1.8-.6-2.5-.5-2.2 7.2-1.2 14.6 3 22.2 1 .7 2 .6 3 0-1.2-5.3-2.2-10.6-3-16 .6-.4 1.2-.8 2-1l3.6-3.2 1.3-.8 1.3-.4h1m35.5 18.7c1-.7 2.2-1.2 3.4-1.4 0-1.8-.2-3.6-.5-5.5l-.4-.4-6-3-15.7-6.3c-2.4 0-3.5.3-3.4 1.3.7.6 1.3 1.4 1.7 2.4.6 0 1.4.3 2.2.6 3.3 1.5 6.6 3 10 4 5 1 8 4 8.6 8.5m-20.3-54.8c-.5.6-1.2 1-2 .8.4.6.4 1.3 0 2 2 2.2 4.4 4 7.6 5.5 8 5 15.7 10.3 23 16.2l-1.8 5.8 3 .2h.7c0 4.4-.7 8.7-2 12.8-1.4 4-2 7.6-2 11 5.7-11.3 9-24 9.5-38.5l.5-9.5c1-1.7 1.3-3 1-3.8-1-.3-1.4-.8-1.6-1.5l-.5.6-.6 1-1 3-.5 5.6c-.5 4-1 7.4-2 10-8-5.5-16-10.8-24-16-2-1.5-4-2.8-6-4-.3-.6-1-1-1.5-1.3M402.2 356c1-.2 2.3-.7 3.5-1.5l2.5-3.5c0-.8-.4-1.3-1.5-1.5-1.3.6-2.6 1.4-3.8 2.2-1.6 1.3-2 2.8-.8 4.3m-27.8 22l-.3-.3-.3-.2c-.6.8-1.4 1.3-2.4 1.7-.2 1-.3 2.3-.2 3.8l-3.8 11c-.2 2 .2 3.6 1 5 2-2.6 3.7-6 5-10l2-6v-2.8l-.3-1.2-.3-.6-.3-.4m7-52.5c1.5-.5 3-1 4.2-2 2.5-1 4.8-2.4 7-4-5.4-1.6-10.2 0-14.5 4.6.8.4 2 1 3.5 1.5m-22-6.8c-1 0-1.7 0-2.4.3-.3.2-.4.7-.4 1.5 12 14.8 17.4 31.6 16.5 50.5.5 1.4 1.3 2 2.5 1.4 1.8-5.3 2-10.8.6-16.4-.8-14.5-6.4-27-16.5-37.3m58 22.8L412 345c0 1.2-.2 2-.7 3 .3.6.7 1 1.3 1.3 10.4-6.6 20.5-13.8 30.2-21.6 4.2 13.5 6.2 28 6 43.8.7-1 1.5-1.3 2.3-1.4.4-17.6-2-34.7-6.5-51.2l-6.4.3c0 .8 0 1.5-.7 2 .8.7 1.4 1.7 1.8 3-6.3 6.6-13.5 12.5-21.5 17.5m-31-102.5c.3.8 1 1.4 1.7 2 1 .6 2 .6 3 0 .7-6.2-1-7-4.8-2m47 56h1.7c1.6 4 3 8 4.2 12 .2 1.8.6 3.4 1 5 1 .2 1.8.7 2.3 1.4-2-13-6.4-25.6-13.2-37.6-17-37-45-60.5-83.6-70.5-3-1-6-1.6-9-2-13.7-.7-26.7 1-39 5.2-8.3 3.4-15.8 7.2-22.6 11.4-20 14.6-35 33.3-45 55.8l-6 12.2c-2 7.4-4.5 14.7-7 22 .3 1 .6 1.5 1 2 6-9.6 10.7-20.5 14-33 5.5-14.2 14.8-27.8 28-41s27-22 41.4-26.7c10.4-3.8 21-5.5 32-5 3 .2 5.8.8 8 2l2.3 1.6c-3 1.4-3.4 3.5-1.4 6.3-4.4 1.4-8.7 3-13 5-2.4-.8-4.7-1-6.8-.8-.3.7-.8 1.2-1.5 1.5 1 1.7 2 3.7 3 6 .5 1.8.5 3.8 0 6-1.5 3.5-2.5 7.8-3 12.8 1 4 2.6 7.6 4.8 11.2 7 14 13 28.3 18 42.8L333 302c3 5.5 7.7 9 14.4 10.4 1.7.4 3.5.6 5.4.4-2.4-2.3-5.3-4.3-8.8-6 6.2-8 10.6-17 13-27.8 1-2.7 2-5.2 3.4-7.6 1-.5 1.7-1 2.2-1.5 1.6-10.3 4.7-20.6 9.3-31-1.2-3.4-2.8-6.4-5-9.2 0-3.2.2-6.2 1-9 12 4 22.6 10.6 31.7 20-6 4.6-9 11-9 19-3.8 17.5-7 35-9.3 52.6 3 .8 6.2 1 9.4.4l-4.8-5c1.8-11.8 3.8-23.7 6-35.8l2.8-11.2c0-2 .7-5.2 2-10 1-4.7 3-7 5.7-6.4 5.2 3 11 9.4 17 19.3 6.2 10 10.3 18 12.3 24.2-.7 1-1.6 2-2.6 3 0 2.8-.3 5.6-.7 8.4l-.5.4-26.6 13.2c2.3.3 4.7.4 7.2.4l2.7-1 19.2-9 .6-.5c1-.3 1.5-.7 2-1.2.7-2 .8-4.4.3-6.7m-79.7-77.5c4-.4 7.3.3 10 2l-1.4 10.4.4.4.8 1.2 2.2 5 1.5 5.4c-1 4.5-2.5 9-4.8 13-4.2 13.4-9.2 26.3-15 39-5.4-8.6-9.8-18-13.2-28l-9-20c1.2-4.8 3-8.5 5-11-.8-3-1.4-5.6-1.8-8 7.7-5.2 16-8.4 25.4-9.5z">
    <animate attributeName="display" values="none;none;none;none;none;none;none;inline;none;none;none;none;none;none;none;none;none;none" keyTimes="0;0.06;0.12;0.18;0.24;0.30;0.36;0.42;0.48;0.54;0.60;0.66;0.72;0.78;0.84;0.90;0.96;1" dur="1s" begin="0s" repeatCount="indefinite"/>
  </path>
  <path fill="#FF9600" d="M205 335c.8-5.7 1.4-11.3 2-16.8-.6-1-1.4-1.5-2.2-1.5-2.8 6-3.8 12.7-3 19.8 1-.7 2-1.2 3.3-1.5m48-46c2 0 3.4-.4 3.8-1l-1.7-3c.6-1 1-2 1-3l-2-1c-.3-.4-.8-.8-1.4-1.2-2 .6-3.4 1.7-4.5 3.2l5 6m39.5-61.4c-1 .6-2 1-3 1 1.8 4.4 3.3 9 4.7 13.3 1.5 1 2.4 2.5 2.8 4-9.2 11.6-17.3 24-24.4 37.3-2.5-3-5.3-3.2-8.4-1 3.4 4 7.8 6.7 13.2 8 1.5-6.7 5-14.3 10-22.8 5.2-8.6 10.2-15.2 15-20 1.6 2.5 2.7 5.7 3.6 9.5l2 11c0 8 1.4 15.6 4 23 1 .7 2 .6 3 0l-3-18-2-16-2.5-10.6-.4-1v-.3c-3.7-1.8-6.5-3.4-8.5-4.5-1-3.4-2.5-6.6-4.4-9.6.2-1.6-.4-2.7-1.5-3.4m28.2-1h-.4l-1 .3-3 1c-.3 1.2 0 2.2.8 3 1.2.5 2.3.7 3.5.4.3-.8.8-1.3 1.5-1.5-1-1.5-1.3-2.5-1-3v-.3h-.3m-6.5-10.6l1 4c1.6.2 3.4.4 5.3.4 1.2-1 1.7-2 1.5-3.2-2-1.5-4.7-2-7.8-1M314 188c-.5-1-1-1.8-1.5-2.4-14.4 3-27.8 8.8-40.4 17.4-30 21.8-50.4 50.4-61 86-3.5 7.6-5.3 15.4-5.3 23.5 1-.7 2.2-1.2 3.4-1.4 4.6-19.6 11.6-38.6 21.2-56.8 3-4.7 6-9.3 9.4-13.6l3-5c9.2-9.5 18.7-18.7 28.5-27.5 13.5-8.4 27.7-15 43-20M418 431c2.6.2 4.5 0 5.8-1-3.3-2-6.8-4.3-10.4-6.3-.8 0-1.5.3-2 .8-.4 1 .3 2.3 2.2 4l4.4 2.6m-10.5-9.5c-1.5-1.6-3.5-3-6-4-7-4.4-14.5-8.3-22-11.8-1 0-1.6.4-2 .8.3.6.3 1.3 0 2 .5.6 1 1 2 1.2 2 1.7 4 3.2 6.3 4.3-1.5.2-3 .4-4 .7-1.7 6.3-1.2 12.8 1.3 19.4.7.6 1.5.7 2.4.5.2-4.7 0-9.4-.2-14.3.6-1 1.3-1.5 2.2-1.8 4.6-2 9-.8 13.6 3.6 1.7 1 3.2 1.8 4.6 2.4.6-.5 1.4-.7 2.2-.5-.6-.8-.7-1.6-.5-2.5m4-37.8c-.4 1-.6 2-.4 3.2 3.8 3.4 7.8 6.8 11.8 10 5.5 5.4 11 10.5 17 15.2l-2.4 3.3c0 1-.2 1.7-.5 2.5l1.6 1.2 3-.6c-.8 3.8-1.2 7.6-1.5 11.4 5.8-11.4 9-24.2 9.6-38.6 0-3 .3-6.3.5-9.5.8-1.5 1-2.7 1-4-1-.2-1.8-.7-2.2-1.4-1.2 11-3 22-5.2 32.8-10.3-9.4-21-18-31.8-25.7m-5.6-5.7c-3-1.6-4.7-1.6-5 0 1.6 1.7 3.6 3.4 6 5 1.3-1.5 1-3-1-5m2-20c-.2-.8-1.2-1.2-3-1l-2.6 1.4-3 1.4-.8.6v.2c.5.3.6 1 .4 2.3 2.2.6 4.2.3 6-1 1.6-1.7 2.6-3 3-4m3-2.8c.6.7.8 1.4.6 2.2l33.8-17.8c1.5 10.5 2.6 21 3.2 31.8.7-1 1.5-1.3 2.3-1.4-.6-13.2-1.7-26-3-38.8-.4-2.4-1-4.8-2-7.2 0-2-.3-3.5-1-4.8-.7.3-1.3.2-2-.2 2.4 6 1.5 10.6-2.7 14 .6 1 .8 1.8.7 3-6.8 5.5-14.5 10.2-23 14-2.8 1.5-5 3.3-6.7 5.2m-37 22.8l-.2-.3-.3-.2c-.6.8-1.4 1.3-2.4 1.7-.2 1-.3 2.3-.2 3.8l-3.8 11c-.2 2 .2 3.6 1 5 2-2.6 3.7-6 5-10l2-6v-2.8l-.3-1.2-.3-.6-.3-.4m-17.8-57.5c5 6.3 9 13.2 12.4 20.7 3 10 4.5 20.4 4.8 31.2l3.4-2.4c0-8.6-1-17.8-3.7-27.7-2.6-10-7.3-17.8-14-23.6-1 0-1.7 0-2.4.3-.2.3-.4.8-.4 1.5m51.6.5c0-1-1.2-1.5-3.5-1.5l-4 1.2c-2 .4-4-.3-6-2 .6 1.4.7 2.4.3 3.2-4.4 2-9 3.8-13.8 5 0 .7.3 1.3 1 2 2.4.3 5 .2 7.4-.6l12-4c1.8-.2 3.4-.5 5-1 .3-1 .8-1.7 1.6-2.4m8.4-1h.5c-1.8-2-3.7-2-5.6 0l2.2 1.6 3-1.5m-16.8-79.6c3 1.8 5 4 6.3 6.6-5 10.7-9 21.8-11.8 33-2.4 8.5-4.6 17-6.6 25.5-1 2.7-1.4 5-1.4 7.4 1.4 0 2.8.2 4.2.4.8-8.8 3-17.6 6.5-26.6 1.8-7.2 3.5-14.4 5-21.8 1.2-3.7 2.5-7.4 4-11 1-1.5 2-2.4 3.4-2.6 4.8 3.6 10 11 15.5 21.8s9 19.5 11 25.7c-.6 5-2.2 9.7-5 14h6.8l1-5c1.2 2.7 2.4 4.5 3.5 5.3-2-13-6.4-25.6-13.2-37.6-17-37-44.8-60.5-83.5-70.5-3-1-6-1.6-9-2-13.7-.7-26.6 1-39 5.2-31.5 13.6-54 36-67.8 67.2-2.4 5.8-5 11.6-7.8 17.2-2 5.4-3.6 11-5 17 0 1 .4 1.5.8 2 6-9.5 10.6-20.5 14-33 5.5-14.2 14.8-27.8 28-41s27-22 41.4-26.7c10.4-3.7 21-5.4 32-4.8 3 0 5.8.7 8 2l2.3 1.5c-3 1.5-3.4 3.6-1.4 6.4-4.3-.2-8.4.7-12 3 3.8 3 5 6.3 3.4 10-1.6 3.8-3 7.7-4.5 11.7v.4l.2 2.4 2.4 7c2 4.8 3.2 8.3 4 10.5 5 13 9.2 26.3 13 39.7-5.3.6-10.6 1-15.8 1.2 3 5.4 7.7 9 14.4 10.3 1.7.4 3.5.6 5.4.4-3.2-2.7-6.3-5-9.2-7.2 8.7 0 14-5.3 15.5-15.6 4.6-9.8 9.3-19.5 14-29 .7-2.2 1.7-4.2 3-6 1-.6 2-1.3 2.5-2.2 0-3 .6-6 2-9-.3-3.7-1.6-7-3.7-10 0-3 .3-5.6 1-8 8.4 3.2 15.6 8 22 14.6m-27.5-5.5c2 2.2 3.7 5 4.8 8-6.8 17-14.8 34.2-23.8 51-.6 0-1.2-.5-2-1-7.4-17.6-13.4-35-18-53 1.8-2.6 3.7-5.4 6-8-.5-3.3-.8-6.6-1-10 2.4-1.3 5-2.2 8.3-2.7 9.7-3 18.8-1.8 27.5 3.8.3 1 0 2-.8 3l-1 9m25 8.4v-.2.2m0 0v.2l-1 2.4c.2 1.3 1 1.8 2.5 1.5 1.5.2 2.3-.3 2.5-1.5-.6-1.3-1-2.4-1.6-3.4l-1.7.7h-.7z">
    <animate attributeName="display" values="none;none;none;none;none;none;none;none;inline;none;none;none;none;none;none;none;none;none" keyTimes="0;0.06;0.12;0.18;0.24;0.30;0.36;0.42;0.48;0.54;0.60;0.66;0.72;0.78;0.84;0.90;0.96;1" dur="1s" begin="0s" repeatCount="indefinite"/>
  </path>
  <path fill="#FF9600" d="M337.5 304.7c-.8 0-1.4.4-2 .8 3.2 3 7.2 5.4 12 7 1.8.4 3.6.6 5.5.4-4.4-3.8-9.6-6.5-15.5-8.3M205 335c.8-5.7 1.4-11.3 2-16.8-.6-1-1.4-1.5-2.2-1.5-2.8 6-3.8 12.7-3 19.8 1-.7 2-1.2 3.3-1.5m57.7-52.6c1 0 1.8-.6 2.4-1.4-.3-1.2-1-2.5-2-4-1-1-2-2-2.7-3l1.6-3c-3.5-3.4-6.4-3-8.7 1 3 3.4 6 7 9.4 10.4m37.7-60.7l-.3.5-.7 3.7L304 236v2.6c-3.3 3.7-6.7 7.2-10.4 10.6-5.8 7-11 14.5-15.5 22.5-2-3-5-3.2-8.7-1 3.5 2.5 6.7 5.6 9.6 9 .2 2.7 0 5.7-1 8.8.7.8 1.5 1.4 2.5 1.6 2 1.4 3 1.4 3 0-1-5-1.2-10-.4-15.4 1.3-4 5-9.8 11-17.6 6-8 10.5-13.4 14-16.5.8-.3 1.4-.3 2 0 4 12 6 24.6 6 38-.5 4.7 0 9.3 1 13.8.8.5 1.6.7 2.4.6.6 0 1-.4 1.5-1.5-1-8.2-1.8-17.2-2-27-.4-9.8-2-18.3-4.6-25.6-2-2-4.5-3.6-7.4-4.6-.2-1-.3-2.4-.2-3.8-1.4-4-3.5-7-6.4-9.6v.3m31 6.7c.7-.7 1-1.5.7-2.4-8.4-1.5-8.7-.7-.5 2.4m.6-11.4c.7-.7 1-1.3 1-2-3-1-5.7-1.7-8.4-1.5l.5 3.5c2.4.4 4.8.4 7 0m-13-32c.2-.7-.3-1.2-1.4-1.5-6.7 2.2-13.4 4.5-20 7-20 6.2-36.4 17.3-49.7 33-13.3 16-24 33-32 51.3-6.3 12-9.7 24.7-10.3 37.6 1-.7 2.2-1.2 3.4-1.4 4.6-19.7 11.6-38.7 21.2-57 3-4.6 6-9.2 9.4-13.5l3-5c9.2-9.5 18.7-18.7 28.5-27.5 6-5 13.6-9 22.8-12.2l24.7-8.4c.5-.8.7-1.6.6-2.4m74 241.2c3.8 3.7 6.7 5.8 8.8 6.3l4.3-.5c-7-6.5-14.7-12.4-23.2-17.5-2.2-2.2-4.7-3.8-7.2-4.8l-4 1.3c2.4 1.8 4.6 3.4 6.4 5-2 6-1.8 12 .2 18 1 .8 2 .7 3 0 0-3-.2-6-1-9-.3-1.3 0-2.4.6-3.3 4.5-.7 8.6.8 12.3 4.5m22.2-31.2l-2.3-1.5-1-.4h-.7v3c1.4 2.4 3.3 4.8 5.8 7 6.8 7 13.5 14.2 20 21.3-.8.6-1.6 1.4-2.4 2.4l-.8 2v1.3h.2v.2c2.4.4 4.7.4 7 0h.3l.2-.3v-.3l.6-1 .7-1.4 1-3.5 1.6-7.5c2.8-9.5 4.4-19.2 4.8-29.2l.2-5.7c.8-1 1-2 .8-3-1-.3-1.8-.8-2.2-1.5-1.8 15-4.5 29.8-8.2 44.6-5-5-9.8-10-14.5-15.2l-7.4-7.5c-1-1.3-2.3-2.5-3.4-3.7m-7.8-3.6h.2c1.3-5.6-1-9-6.8-9.7-.6 3 1 6 4.4 8.3l.4.3 1.3.8.4.4m-7.4-21.6h.2l.5.2h1.2l.6-.3 2.3-1 2.5-2.4.3-.4.2-.5v-.3c-.2-.7-.7-1-1.3-1.5-3 1-5.7 2-8.3 3.4.7.8 1.2 1.6 1.3 2.4l.2.2v.2m-25.6 8.2l-.3-.3-.3-.2c-.6.8-1.4 1.3-2.4 1.7-.2 1-.3 2.3-.2 3.8l-3.8 11c-.2 2 .2 3.6 1 5 2-2.6 3.7-6 5-10l2-6v-2.8l-.3-1.2-.3-.6-.3-.4m-15-59.3c-.8 0-1.6 0-2.3.3-.3.2-.4.7-.4 1.5 12 14.8 17.4 31.6 16.5 50.5.5 1.4 1.3 2 2.5 1.4 1.8-5.3 2-10.8.6-16.4-.8-14.5-6.4-27-16.5-37.3m59.2 10.8l8-1c5-1 9.8-1.6 14.5-1.5l1.5-4.2c2.5 6.8 3.6 13.8 3.4 21.2-.7.5-1.6 1-2.8 1-5.8 6.7-13.4 11-23 13-3.5 1.3-6.3 2.8-8.5 4.6.2.8 0 1.6-.3 2.4.8-.2 1.5 0 2.2.5 2.5-1 5.3-2 8.3-3.8 8-4.5 16-7.4 24.2-8.7 1 1 1.3 2.3 1.2 4 1 4.7 1.5 9.5 1.5 14.4.6-1 1.4-1.3 2.2-1.4 0-7-.4-15.8-1.3-26.5-1-10.8-2.8-19-5.4-24.8-1.2-1.5-3-1.2-5 1l-4 3.8c-6.5.7-12.8 1.7-19 3-1.4 0-2.7 0-3.8.2-.3 1-1 1.8-1.7 2.3 1 .4 2 1 3.6 1.5 1.5 0 2.8-.3 4-1m-16 3l5-1c0-1 0-1.7.5-2.3-.6-.2-1-.7-1.4-1.5-.8-.3-2-.2-3.4.3-.7-.6-1.2-1.5-1.5-2.5-2-2.4-4-4.7-6-6.8h-6c-.8.6-1.3 1.4-1.4 2.2 1 1.4 3.2 1.3 6.2-.3 2 2.6 3.5 5.3 4.5 8.2-4.3.6-8.6 1.7-12.8 3 .6 1 1 2 1 3 5-.6 10.2-1.5 15.5-2.5M386.5 237l.2-1 2-4.5c7.5 5 14.3 11.3 20 18.5-2.2.2-3.8 1.5-4.5 4 1.5 1.7 3.4 2 5.6 1-.3-1.2-.5-2.4-.6-4 1.4.4 2.7 1.4 3.8 3-2 5-4.3 10-6.8 15-5.6 14.3-10.7 28.6-15.2 43 .3 1 .8 1.6 1.5 1.5.8 0 1.6 0 2.4-.6 5.7-18.3 12.6-36 20.7-53.4 11.4 16 20 34 25.4 53.4h2c-2-10-5.4-19.8-9.8-29.2-5.3-14.4-14.5-28.7-27.5-43-13-14.5-26.8-24.5-41.3-30.2-6-2.3-13.4-4.3-22-6.2-8.8-1.8-16.4-2-23-1-9 2-18 4.3-26.8 7.2-13.2 5.2-26 14.4-38 27.7-12.3 13.2-21 26.4-26 39.6-4 10.6-8 21.3-11.7 32.2 0 .8.4 1.4.8 1.8 3.5-4.3 6.5-10.4 9.2-18 2.6-7.8 5.3-14.7 8-21 15.4-32 39.8-53.2 73.2-63.7 12.2-4.3 24-4 35.4.6l-2 3.2-.6 1.4V216.4l.2.2.3.2c1.3 1 2 3.6 2.2 7.8-1.3 4.5-3.3 9-6 13l9.2 37c2 4.7 3.7 10 5.3 16 1.6 6 1 11.2-1.5 15.2v.7h.2l.5.2h1.6l2.8-1c3-2.7 5.2-6.2 6.5-10.4 6.7-11.5 13.6-23 20.7-34.4 3-4.5 5.3-9 6.8-13.3-1-4.2-2-7-3-8.2l-.2-.2-.2-.3V237m-4 3c1.6 2.2 2.8 4.6 3.5 7-2.5 7-6.6 15.3-12.4 24.5-5.8 9.2-11 17-15.5 23.5-4.5-13.2-8.6-26.8-12-41l-2.4-8.2-1.2-5-.2-2.3v-.5l7-10c-.4-2.4-.5-5.4-.3-9.3.7-.8 2-1.2 3.8-1 8.4-.4 16.4 2 24.2 6.8 3 1 5.3 2.3 7.2 3.8-1 3.6-1.7 7.5-2 11.6z">
    <animate attributeName="display" values="none;none;none;none;none;none;none;none;none;inline;none;none;none;none;none;none;none;none" keyTimes="0;0.06;0.12;0.18;0.24;0.30;0.36;0.42;0.48;0.54;0.60;0.66;0.72;0.78;0.84;0.90;0.96;1" dur="1s" begin="0s" repeatCount="indefinite"/>
  </path>
  <path fill="#FF9600" d="M337.5 304.7c-.8 0-1.4.4-2 .8 3.2 3 7.2 5.4 12 7 1.8.4 3.6.6 5.5.4-4.4-3.8-9.6-6.5-15.5-8.3M205 335c.8-5.7 1.4-11.3 2-16.8-.6-1-1.4-1.5-2.2-1.5-2.8 6-3.8 12.7-3 19.8 1-.7 2-1.2 3.3-1.5m42.4-48.4l-2.8 1c0 .4 0 1.2.5 2.4 1.3.5 2.4.7 3.4.4.3-.6.8-1 1.5-1.4 0-1.3-.7-2-2.6-2.4m16.6-28l-.2.2-3.2 1.6 3 6c1.2 2 2.7 4 4.5 5.5 1.3 0 2-.3 2.6-.6-.7-3-1.6-5-2.8-5.6-1-.6-1-2.5 0-5.7l-3.6-1.3h-.2m48-41.7c-.7-.4-1.4-.4-2 0-.7 4.2.3 8.2 3 12-1.4 2.8-3.7 5.5-7 8-7.8 7.4-14.8 15.4-21 24-3-3.2-5.6-3.2-7.8 0l7.4 8.5.4.6c-.7 3-1.3 5.6-1.6 8 3 6.8 8 10 14.5 10-3.4-3-6.6-6-9.7-9-.3-2 0-3.6.8-5 0-2.7-.4-5.3-.7-8l.5-.8 10.5-15c1.8-2.5 5-6 9.8-10.4 4.8-4.5 8.3-5.2 10.6-2.2 2.8 7.2 3.8 16.6 3 28-.6 11.7-.4 21.7.6 30.3 1 .6 2 .5 3-.2.2-7.3.3-14.6 0-22 0-11.5-.4-23-1-34.8-3-4.5-6-7.3-9-8.2 0-5-1.5-9.7-4-13.8m28 6h-4l1 4 4.4-.5c.4-1.3 0-2.5-1.5-3.5m-22.5-39.4c-.7 0-1.3.2-2 .8-2.8.8-5.6 1.6-8.4 2.6-10.5 3.4-20.7 8-30.5 13.4-13.4 7.6-26 18.7-37.4 33.4s-19.5 29.4-24 44c-5 11.2-8.2 22.7-9.3 34.7 1-.7 2.2-1.2 3.4-1.4 4.6-19.6 11.6-38.6 21.2-56.8 3-4.7 6-9.3 9.4-13.6l3-5c9.2-9.5 18.7-18.7 28.5-27.5 6-4.8 13.6-9 22.8-12 9.2-3.3 17.4-6 24.7-8.5.6-.8.7-1.6.5-2.2-.7-.4-1.2-1-1.5-1.7m50.7 230.6c.6.7 1 1.5 1.2 2.5.6.4 1.3.8 2 1 1.4 1.2 1.6 2.6.6 4.3 0 4.5.3 9 1 13 .8.6 1.6.5 2.5-.4.5-3.7 1-7.3 1-11 4.7 3 9 6.2 13 10 1.7.2 3 0 4.3-.6-5.2-5.7-11-11.2-17.4-16.5-2-1.7-4-3-6-3.8-.5.8-1.3 1.3-2.2 1.5m63.8 16h1.3c-1.7-4-5-8.8-9.6-14.5-4.7-5.7-8.6-10-11.7-13l-.6 4.3v.2l18 23h2.6m17.7-38.7c0-3 .3-6.3.5-9.5.7-1.4 1-2.6 1-3.8-1-.3-2-.8-2.3-1.5-1.2 11.7-2.8 23-5 34.2-2 6.4-3.3 12.8-3.8 19 5.6-11.3 8.8-24 9.5-38.5M408 390c0-1.6-.3-3-.4-4.2-.8 1-1.8 2.7-3 4.8l-5-3c-.7 0-1.2.5-1.4 1.6 2 3.6 4.2 7 7 10l.4.3 1.3.8.4.2h.2c.7-2.5.3-4.6-1.2-6.4.3-1.4.8-2.8 1.7-4m-33.6-12l-.3-.3-.3-.2c-.6.8-1.4 1.3-2.4 1.7-.2 1-.3 2.3-.2 3.8l-3.8 11c-.2 2 .2 3.6 1 5 2-2.6 3.7-6 5-10l2-6v-2.8l-.3-1.2-.3-.6-.3-.4m-15-59.3c-.8 0-1.6 0-2.3.3-.3.2-.4.7-.4 1.5 12 14.8 17.4 31.6 16.5 50.5.5 1.4 1.3 2 2.5 1.4 1.8-5.3 2-10.8.6-16.4-.8-14.5-6.4-27-16.5-37.3m53.3 17c-1 .7-1.5 1.4-1.5 2.2 10.2.6 20.7 1.4 31.3 2.2 1-.6 2-1.4 3-2.5.5 6.5 1.3 13 2.4 19.2-3.2-.5-5.4 1-6.5 4.4l-4.2 1.4-24 6v2c8.3.2 16.5-1.3 24.4-4.4 2.4-1.2 4.7-1.8 7-1.8 2 2 3.5 4 4.2 6.8.7 0 1.4-.6 2-1.5.6-7.3.2-16.2-1-26.7s-3.4-18.8-6-24.6c-.7.3-1.2.8-1.6 1.5l.2.6 1 5.2v1.5l-.5 1.8-2.4 5.2c-2.3.6-5 1-8 1-6.6-.2-13.2 0-19.8.2M408 339c-2.5-8.6-7-15.4-13.2-20.2-1 .4-1.5 1-1.8 2.2-2.8 4.7-2 6.6 2.6 5.6l2-1.8c2.4 3.5 4 7 5 10.8-4.4.7-9 1.2-13.5 1.5.3 1 .3 2 0 3 6.8.4 13 0 19-1m-12.6-94c.8-2.6 1.5-4.7 2.2-6.2 7.2 5.3 13 11.7 17.5 19.2-4.3 4.3-3.7 7.3 2 9-6.8 15-13.5 30-20 45 .3 1 .8 1.6 1.6 1.5.8 0 1.6 0 2.4-.6 6-15.6 13.2-30 21.5-43.4 7.6 14 13.8 28.5 18.6 43.4h2c-2-10-5.4-19.8-9.8-29.2-5.3-14.4-14.5-28.7-27.6-43-13-14.5-26.8-24.6-41.2-30.3-6-2.3-13.4-4.3-22-6.2-8.8-1.8-16.4-2-23-1-7.2 1.6-14.5 3.3-21.8 5.2-14.3 4.8-28 14-41.2 27.7-13 13.7-22.3 27.5-27.7 41.5-4 10.7-8 21.4-11.8 32.3 0 .8.4 1.4.8 1.8 5.3-7.3 9-16 11-26 2.6-6.4 5.6-12.8 9-19 3-4.6 6.2-9.2 9.5-13.5 15-22.3 35.2-37 61-44 12.6-4.6 24.4-4.2 35 1l-7.5 1.5c0 1-.4 1.5-1 2v.4l.3.2.3.2.3.2.5.2h.3l1 .4h4c2.7-.4 5.4-.4 8 0 1.7.4 3.2 1 4.4 1.6.8 3.8.4 7.4-1 10.8-3.5 2.7-5.5 6-6 10 3 16.5 6 32.8 9.2 49 1 3.8 1.7 7.7 2.3 11.6.8 2 .8 4 0 6l-3 1.2c-.3 1-.4 1.6-.4 2.2.6 1.4 2.7 1.3 6-.5 2.2-2.6 4.3-5.6 6.2-9 7-9 13.8-18.4 20-28 1-1.5 3-4 5.7-7.4l3.4-5 1-1.4v-.3l.2-.6c-.3-5-1.2-8.6-2.2-10.7m-2.7-6.5c-1.3 2-1.8 4.2-1.5 6.5 2 2.8 3 5.8 3 9-5 8.2-10.5 16-16.5 23.5-4.4 7-9 13.6-14 20-4.8-14.4-8-29.6-9.6-45.4 0-1.4-.7-4-1.6-7.7l-1-4.6-.2-2.2v-.5c3-4 5.2-6.8 7-8 .3-4 .6-7.6.7-11.3 13.5 2.7 25.2 9 35 18.4l-1.3 2.5z">
    <animate attributeName="display" values="none;none;none;none;none;none;none;none;none;none;inline;none;none;none;none;none;none;none" keyTimes="0;0.06;0.12;0.18;0.24;0.30;0.36;0.42;0.48;0.54;0.60;0.66;0.72;0.78;0.84;0.90;0.96;1" dur="1s" begin="0s" repeatCount="indefinite"/>
  </path>
  <path fill="#FF9600" d="M337.5 304.7c-.8 0-1.4.4-2 .8 3.2 3 7.2 5.4 12 7 1.8.4 3.6.6 5.5.4-4.4-3.8-9.6-6.5-15.5-8.3M205 335c.8-5.7 1.4-11.3 2-16.8-.6-1-1.4-1.5-2.2-1.5-2.8 6-3.8 12.7-3 19.8 1-.7 2-1.2 3.3-1.5m70.8-45h.2c-2-5.6-6-7.7-12.2-6.6-1.7-1.3-3.2-3-4.2-4.8-1.3-.7-2.5-1.5-4-2-.6-1-1.3-1.5-2-2-.8.4-1.5.5-2.4.4 0 1-.3 2-1 3 1.6 1.6 3.6 3.2 6.3 4.7 1.2 2 2.6 3.5 4.2 4.8 4.2-.2 8 .5 12 2l.3.2 2.4.4h.4m-5.6-33c1.2 2.2 2.8 4.2 5 6h2c.5-2.8-.5-5.4-3.2-8 2.7-5.8.8-7.5-6-5-.5.7-.8 1.3-.8 2l3.6 2c.2.7 0 1.7-.6 3m76-33c-.2 1.2 0 2.2 1 3 2.4.7 4 .2 4.4-1.5-1.8-1.8-3-2.8-4-3-.2.7-.7 1.2-1.5 1.5m-25.3-10.4c-.2.7-.7 1.2-1.5 1.5 0 3 1 6.2 2.8 10-.4.8-1.2 1.4-2.2 1.7-2 1.8-4.5 3.4-7 5-7.7 5.7-14.4 12.3-20.2 19.8-2.2-1.4-4.7-1.8-7.4-1.4-.6.7-1 1.4-1 2l.6.4 4.7 4.5.8 1 .3.6.5 1.5v1.3c-.2 2.3-.5 6-.7 10.8l1 1.6 5.8 6.6 8.2 7.8 2 1.7 1.2.8h.3c1.5 0 3-.2 4-.3l-15.5-15.8-2.5-3.2-.2-.4-.3-.6c1-3 1.5-5.7 1.8-7.8-.8-1.4-1.4-3-1.8-5 1.3-2 3-4 4.8-6.2 2.8-3.8 7.5-8.8 14.3-15 6.8-6 12-6.2 15.3-.4 1.8 6.4 2 12.6.5 18.5l-1 23c-.2 3.7-.6 7.4-1 11v6c.4 2.5 1 4.3 1.6 5.5.3.6.8.8 1.4.4 1.2-10.5 2-20.8 2-31 2-10.3 2.6-21 2-31.8-2.6-4.3-5.2-7.4-7.8-9.2-.6-4.6-1.4-9-2.6-13.4-1-1-1.8-1.4-3-1.2m-8.5-26.6c-.3-.5-.8-1-1.4-1.2-12 3.5-23.2 8.4-34 14.6C263 208 250.5 219 239 234c-11.5 14.6-19.5 29.3-24 44-5 11-8.2 22.5-9.3 34.5 1-.7 2.2-1.2 3.4-1.4 6-30.8 19.3-58.3 39.6-82.4 7.4-7.2 15-14 22.5-20.5 13-8 26.7-14.2 41-19 .8-1 .8-1.6 0-2m56 248c2.4-1.2 3.7-4 3.8-8.3 3 2.5 6 5 9 7.8h2.8c0-1-1-2.8-3-5l-3.5-4.3c-2.3-3-5-5.6-7.8-8.2-.7 0-1.2 0-1.5.5 0 5.4 0 11.3.4 17.6m54-4c-2-6.5-5.6-12-10.2-16.3 0 6 2.6 11.6 7.4 16.4 1.4.2 2.3.2 2.8 0m28.7-53.5c-1.7-.4-3.5-.5-5.3-.3 2.2 9 2 18.2-.2 27.8-.7 4.4-1.7 8.7-3 13-.4 2.2-1 4.2-1.8 6.3-.4 2.5-.4 4.5 0 6 4.2-7 7-15.3 7.8-25.2.8-10 1.6-19 2.5-27.5m-39 0c.5 1 1 2 1 3 9 0 17-1.5 24-4-8.5-1.3-17-1-25 1M396.3 396v.3l9 12.8c1 2.4 2 3 2.8 2-1.3-5.3-2.6-9-3.8-11 2-4.5 3-9.3 3.4-14.2-1.8 3.3-3.7 6.8-6 10.6-2-5-3.7-5-5.3-.4m9.4-14.5l1.8-.3.4-.2c-1.3-3.6-4.8-4.3-10-2.2-.7.7-1 1.5-.8 2.3.8.5 2 1 3.5 1.6 1.7 0 3.4-.2 5-1m-31.3-3.6l-.3-.3-.3-.2c-.6.8-1.4 1.3-2.4 1.7-.2 1-.3 2.3-.2 3.8l-3.8 11c-.2 2 .2 3.6 1 5 2-2.6 3.7-6 5-10l2-6v-2.8l-.3-1.2-.3-.6-.3-.4m-15-59.3c-.8 0-1.6 0-2.3.3-.3.2-.4.7-.4 1.5 12 14.8 17.4 31.6 16.5 50.5.5 1.4 1.3 2 2.5 1.4 1.8-5.3 2-10.8.6-16.4-.8-14.5-6.4-27-16.5-37.3m53.3 25c-1 .6-1.5 1.4-1.5 2.2 7.6 2.4 15.6 3.7 24.2 3.7 3.2.5 6.3 1.7 9 3.6.8 0 1.6-.5 2.5-1 1 6 1.6 12.4 2 18.7 1-.3 1.5-.7 2-1 .4-8 0-17-1-26.8s-3.2-18-6.2-24.6c-.7.4-1.2 1-1.5 2.2.8 2.5 1.8 7 3 13.4s.5 10.3-2.2 11.6c-9.6.3-19.7-.5-30.2-2m-13-24.3l-1 1.4-3.2 6.5c-2 4.7-1.4 6 2 4 1-1 1.5-1.8 2-2.8 2.7 4 5 8.5 6.5 13.2-3 0-6 .3-9 .7-.7.7-1 1.5-.8 2.3 1.2.4 2.4 1 3.5 1.5h8c.6-5-.2-9.7-2.6-14.3l-3.5-7.2c1-2.5 1.6-4.6 2-6.3-1 .2-2 .3-3.3.3l-.4.5m-42-102c3 0 5.4.8 7 2.7l-2.5 5.8-2.5 4.2-2.2 2.7-.4.2c0 2.6-.2 5.2 0 8l6.8 65c-1 .8-2.3 1.5-4 2-.5 1-.7 2-.4 2.5 1.7.7 4 .4 7-1 1.8-2 3.6-4.4 5-7l24.6-27.6 6.7-7.7 3.5-5 .7-1.4-2.4-7.5c.2-2.7 1-4.7 2-6 6 6 11 13 15.4 20.6-.6 1.6-1.5 3-2.7 4 0 3 1.5 5 4.6 6-8.2 11.3-14.5 23-19 35.5l4.3-1.4c5-11.5 11.2-22 18.5-31.4 5.6 9.6 9.8 20 12.6 31.5.8 1 1.5 1.4 2.2 1.6-2.2-13.8-7-27-14.2-39.6-17-36-44.6-58.7-82.5-68.5-3-1-6-1.6-9.2-2-10-.6-19.7.2-29 2.2-7.6 2.6-15.3 5.6-23 9-11 5.7-22 14.4-32.3 26-10.5 11.8-18 23.5-22.4 35.2-2 4-4 8-5.7 12-2.2 7.5-4.6 14.8-7 22.2.2.8.5 1.4 1 1.8 5-7.3 8.8-16 11-26 2.5-6.3 5.5-12.6 9-19 5.3-10.2 13.6-21 25-32s22.6-18.6 33.6-22.4c5.7-2.2 11.4-4 17-5h5.8c8.4-2 16.3-1.4 24 2l-1.3 1-.8 1-.2.4-.2.6v.2c4.3 2.5 10 4 16.4 4.6m38.5 19.6c2.8 2 5 4 7 6-1.2 2-2 4-2.8 6 .5 4 1 8 1.8 12-2.2 4.3-5.5 8.3-10 12-8 8.5-15.8 17.5-23 27-.6 0-1.2-.4-1.8-1-2-15.4-3.6-30.7-5-46l-1.2-7.8-.8-5.4V238c3-4.5 5.6-7.3 7.4-8.6l2-8c9.7 3.7 18.5 8.8 26.4 15.6z">
    <animate attributeName="display" values="none;none;none;none;none;none;none;none;none;none;none;inline;none;none;none;none;none;none" keyTimes="0;0.06;0.12;0.18;0.24;0.30;0.36;0.42;0.48;0.54;0.60;0.66;0.72;0.78;0.84;0.90;0.96;1" dur="1s" begin="0s" repeatCount="indefinite"/>
  </path>
  <path fill="#FF9600" d="M337.5 304.7c-.8 0-1.4.4-2 .8 3.2 3 7.2 5.4 12 7 1.8.4 3.6.6 5.5.4-4.3-4-9.5-6.6-15.5-8.3M205 335c1-5.6 1.5-11.2 2-16.8-.6-1-1.4-1.5-2.2-1.5-2.8 6-3.8 12.7-3 19.8 1-.7 2-1.2 3.3-1.5m78.2-51l-2.5-5-1.2-2-1-1-.6-.5-.4-.2-.3-.2h-.4l-1-.5-6.8-1.5-4.6-4.4c-2.6-2.6-4.6-4.3-6-5-1 0-1.8.6-2.3 1.5.4.8.6 1.6.4 2.5 1.7 1.6 3.7 3 6 4 1 2.5 2.3 4.4 4 6 3 0 5.7.4 8.3.7-1 1.7-1.7 3.5-2.4 5.4l-1 3c-.2 2 0 3 1 3 3.2 1.8 5.5.5 7-4 1.5 3 3.2 4.6 5 5 0-.7.5-1.2 1.3-1.5-1-1.5-1.7-3.2-2.8-5m-2.8-39l2.6-1c.2-3.5-2-4.6-6.2-3.3-1 .7-1.4 1.5-1.5 2.2 1.8.3 3 1 3.6 2-.6 3.6.5 7 3 10 1.3 0 2-.2 2.6-.5 0-3.5-1.6-6.7-4.2-9.5m53.7-30c.2-1.6-.3-2.7-1.5-3.4-1 .6-2 1-3 1 .6 2.2 1 4.6 1.5 7.3-.6 1-1.5 1.6-3 2-3 2.2-6.6 4-10.3 5.6-6 4.3-11.8 9.2-17.2 14.8-1-.2-2-.8-3-1.8-2.2.5-4 1-5 2 3.3 3.6 5.4 7.8 6.5 12.3-1.2 2.5-2.2 5.2-2.8 8l.7 1.4 8 10.6c8 10.3 17 19.7 27 28 1 .5 2 0 3-1 2.4-16.7 4.5-33.2 6.2-50 1.5-5.8 2-11.5 2-17-1-2.3-2.3-4.3-4-6-1-.3-2-.8-2.6-1.5 0-4.3-1-8.5-2.5-12.5m-3.5 10.6c3.4 4 6.2 7 8.5 9.5 0 8.5-.8 16.8-3 25l-5 39c-7.8-9-15.6-18.2-23.4-27.5-3-2.4-5-5.3-6.4-8.6.7-3.8 1.3-6.8 2-9-1.7-1.8-2.3-3.8-2-6 8-9.8 18-17.3 29.3-22.4M312 187c-.3-.5-.8-1-1.4-1.2-12 3.5-23.2 8.4-34 14.6C263 208 250.5 219 239 234c-11.5 14.6-19.5 29.3-24 44-5 11-8.2 22.5-9.3 34.5 1-.7 2.2-1.2 3.4-1.4 3-13 7.6-27.3 14-42.4 6.3-15.2 14.2-27.8 23.6-38 8-8 16.2-15.4 24.5-22.5 13.5-7.7 27.2-14 41-19 .7-1 .7-1.7 0-2m60.2 248c1 .4 2 .5 2.4.5 0-4.2-2-7.8-6-10.7-.5.3-1 .8-1.3 1.5.5 3.4 2 6.3 5 8.8m35.8-48.8c-5.3-1-10.7-1.4-16.2-1.5-1 .6-1.8 1.4-2.4 2.3 4.7 1.3 9.6 2 14.8 2-.2 4-1.7 7.8-4.6 11.4-6.3-4.7-7.3-3-3.2 5.3l8.8 16.2c.5 1.2 1 2.3 1.7 3.3 1.2-6.7-1-13.5-6.6-20.5.5-1.7 1.4-3.3 2.7-5 2.8-4 4.5-8.7 5-13.6m3.2.8v.2l.2.3.3.3.4.2 1 .3h.2l.6.3h12c5.3-.2 10.6-.2 16 .2 1.8 2.6 3.3 5.7 4.5 9.3v.6l-.2 2.4-2.7 14c-1.7 5.3-2.7 10.3-3 15.2 1-.4 2-1.5 3-3 3.5-12.2 5.8-24.2 7-36v-9c.8-1.5 1-2.7 1-4-1-.2-1.8-.7-2.2-1.4-.4 2.7-1 5.4-1.7 8.2-5-1-11-1-17.4-.4l-10 1c-1.8-.2-3.5-.2-5 0-2 .6-3 1-3.8 1.4m-3.5-33.5c.5-.7.6-1.5.4-2.3-3-1.3-6-2.2-9-2.5-1 .6-1.6 1.4-1.6 2.2 2.7 2 6.2 2.8 10.3 2.5m5-1.8c-1 .6-1.4 1.4-1.4 2.2 3.3 1.2 8.6 2.6 16 4.2l12 3 1 .3.2.2c1.8 3.3 4.3 4.8 7.5 4.5l1 4.8c1-.3 1.5-.7 2-1 .4-7.7 0-16.6-1.2-26.8-1.2-10-3.2-18.3-6-24.6-.8.4-1.3 1-1.6 2.2 1.4 4.8 3 11.3 4.3 19.4 1.4 8 .7 14.2-2 18-3 .3-6-.4-9-1.8-7.4-2-15-3.5-22.7-4.7M374.4 378l-.3-.3-.3-.2c-.6.8-1.4 1.3-2.4 1.7-.2 1-.3 2.3-.2 3.8l-3.8 11c-.2 2 .2 3.6 1 5 2-2.6 3.7-6 5-10l2-6v-2.8l-.3-1.2-.3-.6-.3-.4m-15-59.3c-.8 0-1.6 0-2.3.3-.3.2-.4.7-.4 1.5 12 14.8 17.4 31.6 16.5 50.5.5 1.4 1.3 2 2.5 1.4 1.8-5.3 2-10.8.6-16.4-.8-14.5-6.3-27-16.5-37.3m47.3 9l.4-2.2.4-4.8c-3 3.2-6 6.8-9 10.8-1.6 1.3-2.4 2.5-2.2 3.7 2 3.4 4 3.2 6.2-.5 1 1.3 1.8 2.8 2.6 4.3l1 3c.7 0 1.3.4 2 1v-4l-2-5.6v-1.2l-.2-2 .2-.6.4-.8.2-1.2M357 228c1.3.5 2.5.6 3.6.5 0-.6.3-1 .6-1.6 0-1.5-1-2.6-3.5-3.3-.2.7-.7 1.2-1.5 1.5-.2 1 0 2 1 2.8m-6.5-12.6c3 .8 6 1.6 9.8 2.2 5.6 1.4 10.5 3.8 14.5 7.2-3.7 3.8-6.6 7.2-8.8 10.2-.2 11.4 0 22.7 1 34-.5 5.3-.5 10.6 0 16 0 6.5.4 12.5 1 18 .5 1.4 1 2.8 1.7 4l-5 5c1 .2 2 .7 2.6 1.4 1 0 2-.4 3-1 15-13.3 29-26.8 42.4-40.6 1.6-3.6 1.4-7.3-.7-11 .3-1.5 1-3 2.2-4 5.3 7 9.8 14.8 13.5 23-1.2 1-2.7 2.3-4.5 3.6 1 1.5 3 3 5.4 4.6-4.4 5.6-8.4 11.6-12 17.8-1.6 2-3 3.6-4 5.2.6.7.8 1.4.6 2.2 7-6.2 13.3-13.4 18.8-21.8 3.4 6.4 6 13 7.7 20.3 1 .8 1.6 1.3 2.3 1.5-2.2-13.8-7-27-14.2-39.6-17-36-44.5-58.7-82.4-68.5-2.7-.8-5.4-1.4-8-1.8-10.5-.7-20.5 0-30 2-7.7 2.7-15.4 5.7-23 9-11.2 5.8-22 14.5-32.4 26.2-10.5 11.7-18 23.4-22.4 35-2 4-4 8.2-5.8 12.3-2.2 7.4-4.6 14.7-7 22 .2 1 .5 1.5 1 2 5-7.4 8.8-16 11-26 3.4-8.4 7.5-16.6 12.4-24.6 3.3-5.7 7.3-11 12-16 9-10.2 18-18.2 26.7-23.8 8.8-5.7 19.8-10 33.3-13.2 11.2-3.3 22-2.7 32.2 2 1 0 2 0 2.8.2.8 2 1.6 3.7 2.4 5.2m27 15c.7-1.5 1.4-3 2-4.7C392 232.2 402.5 241 411 252c0 2-1 4-2.6 6 .3 3.4 1 6.7 1.8 10-1.8 3-4.5 6-8 9-9 9.2-18.5 17.7-28.4 25.5-1-1.8-1.5-4.3-1.5-7.5 0-2.8-.4-5.4-1-8-.5-5.6-.5-11.3 0-17-1.2-11.2-1.5-22.5-1-34 2-2 4.5-3.8 7.4-5.5z">
    <animate attributeName="display" values="none;none;none;none;none;none;none;none;none;none;none;none;inline;none;none;none;none;none" keyTimes="0;0.06;0.12;0.18;0.24;0.30;0.36;0.42;0.48;0.54;0.60;0.66;0.72;0.78;0.84;0.90;0.96;1" dur="1s" begin="0s" repeatCount="indefinite"/>
  </path>
  <path fill="#FF9600" d="M205 335c.6-5.7 1.2-11.3 2-16.8-.6-1-1.4-1.5-2.2-1.5-2.8 6-3.8 12.7-3 19.8 1-.7 2-1.2 3.3-1.5m65-72c0 1.6.2 3 1 4 3 1.2 6 2 9 2-1.7 3.2-3.4 6.5-5 10l-2.8 5-.5 2.7v1.9l.2.4.2.4h.3c1.4 1 2.7 1.2 4 1l7-14.8c2.3 4.4 5 9 8 13.6 1-1 1.5-2.3 1.4-4l-9-18.8-.6-1-.4-.5c-2.7-.5-5.4-1.2-8-2-2-1.4-3.3-3.2-3.8-5.5-.5-2.2-3.2-3.4-8-3.5.6 2 1.7 4 3.3 6.4 1.5.7 2.6 1.6 3.5 2.7m18.6-30.8l-4.4 2c1.7 3 3.4 7 5 11.8 0 1 .4 1.5 1.4 1.5 1 .2 1.8 0 2.4-.6l-2.8-7c-.6-1-1-2-1-3 1-.5 1.8-1.2 3-2l-3.2-3v.2h-.4m23.4-45c-.3-.7-.7-1-1.4-1.5-13 4-25.5 9.6-37 16.6-12.8 7.3-24.6 18.2-35.7 32.8-11 14.7-18.8 29-23 42.8-5 11-8.2 22.6-9.3 34.6 1-.7 2.2-1.2 3.4-1.4 4.6-17 10.3-33.8 17.2-50 3.8-7 8.3-14 13.4-20.5 2-3.6 4.3-7 7-10 8-8 16.2-15.4 24.5-22.5 13-7.8 26.6-14 40.5-18.6.5-.8.6-1.6.5-2.3m131.8 131.7c-.6.3-1 .8-1.5 1.5 4.3 17 6 34 5.5 51.2 1-.7 2.2-1 3.3-1.4 1-18.5-1.4-35.6-7.2-51.3m-31 75c-1 .6-1.5 1.4-1.5 2.2 10.6 1.7 20.5 3.8 29.8 6 .4 1.5.5 3 .3 5 1 1 2 2 2.7 3-.7 3.5-1.6 6.8-2.7 10-1 3.7-1.3 7-1.2 10 4.5-7 7-15.3 8-25l2.6-27.5c-3-.3-5.3-.3-7 0 1.5.6 3 1 4.4 1.7 0 1.4-.3 3-1 4.8-.2 5.3-.7 10.5-1.5 15.4l-3-2.8-29.7-3m-5-33c.3-.8.5-1.5.3-2.4-2.4-1.7-5-3-8-3.5-.8.4-1.3 1-1.6 1.5-.5 1 .6 2.2 3.3 3.3 2 .5 4 1 6 1m4.5 2.5c1.5.7 3.3 1.3 5.4 1.7 5 1.8 10 3.8 15 5.8 3.6 1 6.7 1 9.3-.5-7.4-3-15-5.8-22.3-8.5-2.5-1-5-1.7-7-2-.3.8-.8 1.3-1.5 1.5.6.5 1 1.2 1 2m-23.4 27.7c-.6.7-.8 1.4-.6 2.3 1.4.8 3.6 1.7 6.5 2.5 2.4.3 4.5 1 6.4 1.7-1 6.2-3.6 8-8.2 5.5-.8.5-1.3 1.2-1.6 2.3 2.8 9.3 6.5 18.3 11 27 1 .8 2 .7 3 0-.5-2.5-2-6.4-4-11.7l-3.8-9.2c2-6.7 5.5-12 10.8-16 0-.8-.7-1.5-1.6-2.2-6-1-12-1.8-17.8-2M374.4 378l-.3-.3-.3-.2c-.6.8-1.4 1.3-2.4 1.7-.2 1-.3 2.3-.2 3.8l-3.8 11c-.2 2 .2 3.6 1 5 2-2.6 3.7-6 5-10l2-6v-2.8l-.3-1.2-.3-.6-.3-.4m-15-59.3c-.8 0-1.6 0-2.3.3-.3.2-.4.7-.4 1.5 12 14.8 17.4 31.6 16.5 50.5.5 1.4 1.3 2 2.5 1.4 1.8-5.3 2-10.8.6-16.4-.7-14.5-6.3-27-16.5-37.3m39.7 24.3c.6.4 1.4.5 2.4.4 2.2-4.4 4.2-4.4 6 0v-11.8c-2 1.4-4 3-6 4.8l-2 3c-.8 2-1 3-.4 3.6m21.4-24.3h-2.8c-2.7 2-5 4.4-6.5 7.5.4 1 .5 2 .5 3.2 1-.5 2.5-1.6 4.4-3.4 2.6-2.2 4-4.7 4.4-7.3m-37-90.2c-3.2 3-6 6.3-8.3 9.6-1.7 18.2-2.4 36.5-2 55 .6 8 .8 14.7.5 20.5 1.8-.4 3.6-.8 5.4-1.4 9.5-7.5 19-15 29-22 1.2-.7 3.4-2.2 6.4-4.4l4-3 1.2-1.2.2-.4c.8-4.2 1.3-8.5 1.6-13 4.6 7.6 8.5 15.7 11.5 24l-3.7 4 3.8 4c-4.3 4.2-7.4 8.8-9.2 13.6h2.8c1-.5 1.8-1.3 2.6-2.4 2.5-2.5 5-5.3 7.5-8.3 1.4 3 2.8 6.3 4 9.7.7.6 1.3 1 2 1-2.4-16.7-9.7-34.6-22-53.8-12.5-19.2-26.3-33.2-41.5-42-9.3-4.7-18.7-8.6-28.4-11.5-4.3-1.5-8.7-2.4-13-3-10.5-.6-20.5 0-30 2.2-7.7 2.6-15.4 5.6-23 9-11.3 5.7-22 14.4-32.5 26-10.4 11.7-17.8 23.5-22.3 35.3-2 4-4 8-5.8 12.2-2.2 7.4-4.6 14.7-7 22 .2 1 .5 1.5 1 2 3-3.8 5.7-9.2 8.4-16.3l6.6-18.7c1.8-3.6 3.7-7 5.8-10.2 14.4-27.6 36.3-46.4 65.6-56.4 13-4.8 25.3-5.2 37.2-1 2.5.3 4.8.7 6.8 1.2l1.2 4.8c2.3.6 5 1 7.8 1.2 9 2.7 17.8 6.6 26 11.7m-4.3 10.6c2.8-2.8 6-5.3 9.4-7.3 2.7 1.2 5.4 3.2 8 5.8 6.6 5.2 12.2 11.2 17 18 2.3 2.6 4 5 5.2 7.5-2 2.3-3 4.6-3.6 7 1.4 2.3 2 4.6 1.7 7-11 10.7-23 20.2-36.3 28.5-1.3-.3-2.5-1-3.4-1.6-.2-5-.3-10 0-15 .2-11.2.6-22.2 1-33v-9l.2-4 .6-3.4.2-.3v-.2M368.7 226c-.8.6-1.6 1-2.4 1.4-.3 1.4 0 2.7 1 4 1 .4 2.2.6 3.3.3.3-.6.7-1 1.4-1.4-.7-1.8-1.8-3.2-3.4-4.2m-17.4 19.6c1.2-5.4 1.5-9.2 1-11.4-1-2-2-3.8-3.5-5.5-1-.5-1.8-1-2.4-1.6-.5-5.4-1-10.5-1.8-15.3-6.5-1-7.8.6-4 5-11 4.3-21.5 10.3-31 17.8-1.5.2-3-.4-4-1.8-1.7.2-3 1-4.2 2.5 2.7 3.3 4.6 7.2 5.8 11.8-.6 1.7-1.5 3.4-2.7 5.2v4.8c.4 1.8 2 4.5 4.5 8.3l6 8.3c1.8 2.7 5 7.2 9.7 13.5l7.6 11.2.7 1.4c.4 3.4 2 6.2 4.5 8.5 3 2 6.6 3.4 10.5 4.6 1.7.4 3.5.6 5.4.4-4-3.7-9-6.4-14.7-8 2.4-11.4 5-22.8 7.8-34 1-4.7 1.6-9.3 2.3-14 .7-2.3 1.7-6.2 3-11.6m-7-15c2.2 1 3.5 4.2 4 9.6-1 5.6-2.2 11.3-4 17-3 13-5.6 26-8 39-4.6-4.8-9.7-11-15.2-19s-9.7-15-12.7-21c.5-3.5 1.5-6 3-8-.8-2-1.8-4-3-6 1.4-2.8 3.7-5 7-7 8.3-6.3 17.3-11 26.8-14-.8 5.4 0 8.5 2.2 9.5z">
    <animate attributeName="display" values="none;none;none;none;none;none;none;none;none;none;none;none;none;inline;none;none;none;none" keyTimes="0;0.06;0.12;0.18;0.24;0.30;0.36;0.42;0.48;0.54;0.60;0.66;0.72;0.78;0.84;0.90;0.96;1" dur="1s" begin="0s" repeatCount="indefinite"/>
  </path>
  <path fill="#FF9600" d="M205 335c.6-5.7 1.2-11.3 2-16.8-.6-1-1.4-1.5-2.2-1.5-2.8 6-3.8 12.7-3 19.8 1-.7 2-1.2 3.3-1.5m91.5-103.4h-.2v.2l-.3.3-.2 1v1.7l.2 1.5c.5 1.7 1.2 3.3 2 5l2.5.3c1-4.5-.2-7.8-4-10m4.6-2.5c.2-1 0-1.7-.4-2.5-1-.8-2.5-1-4-1-1.5.6-2.7 1-3.5 1.5 0 1.8.8 3 2.6 3.5 2.4-.2 4.3-.7 5.5-1.5m-25.3 16l-.2-.3-4.2.5c2.5 7.3 7 12.3 13.8 15-2.4 4.7-5 9.3-7.7 14-1.3 2.4-2.5 5-3.6 7.4L272 286v3.6H272.7c1.4 1 2.7 1.2 4 1 3.7-8.5 8-16.7 13-24.6 2.3 7.5 4.8 15 7.6 22 .8.6 1.6.8 2.4.7.8 0 1.2-1 1.4-2.4l-6.2-18.8-3.6-9-.2-.2-8.2-2.8-6.8-10.2v-.2h-.3m36.3-58c-.3-.5-.7-1-1.4-1.3-13 4-25 9.4-36.5 16.2-12.7 7.2-24.7 18-36 32.8-11 14.7-18.8 29-23 43-5.3 11-8.4 22.6-9.3 34.5 1-.7 2.2-1.2 3.4-1.4 6.8-33.8 22-63.3 45.6-88.6 5-5.6 10.6-10.5 16.5-14.5 7.2-5 14.8-9 22.7-12.5 6.2-1.4 12-3.5 17.8-6.2.5-.7.6-1.5.5-2.2m83 232.2c-.8-1.5-1.3-3-1.6-4.2 2-3.4 4-6.3 6-8.8.5-1 1.3-2 2.3-2.4l5 1.5c.6-.4 1-.8 1.4-1.3-.4-.6-.5-1.4-.4-2.2-1.3-.8-3-1.2-4.7-1.2-5.4-1.8-10.8-3.3-16.3-4.7-1.3.4-2.4 1-3.2 2 4.3 2 9 3.8 13.7 5.3-1.3 4.7-4 6-8 3.8 0 9 2.3 17.7 7 26.2 1.5.4 2.5 0 3-1l-4.2-13m55.2-28.2v-9c1-1.7 1.3-3 1-3.8-1-.3-1.4-.8-1.6-1.5-1.2 2.2-2.5 4.5-4 6.8-6.2-4.7-13-7.2-20.2-7.3 8.8 3.6 14.6 8.7 17.3 15.3l2 .6 1 .2h.4c.4 8-.7 15.7-3.3 23-.5-2-1.2-4-2-5.5-9-2.8-18-5.2-27-7-1 .2-1.5.4-2 .8-.4.7-.2 1.5.5 2.5l24 6.5.4.2c2.4 5.8 3.6 11.6 3.6 17.4 2.8-4.3 5.2-10.4 7-18.4 1.8-8 2.8-14.7 3-20.6m-8-70.8c2.3 8.3 4 16.6 5 24.8.2 9 .8 17.7 1.7 26.4.6-1 1.4-1.3 2.2-1.4 1-18.5-1.6-35.6-7.3-51.3-.8.3-1.3.8-1.7 1.5m-34.6 47.3c.4-.6.5-1.4.4-2.3-2-1.7-4-3-6.2-3.5 0 .6-.6 1-1.4 1.3.4 1 1 2 1.8 3 1.7.8 3.6 1.3 5.5 1.5M418 371c-1.8-2.3-4-3.4-6.4-3.4.5 1 .8 2 1 3 1.8.4 3.6.5 5.4.4m-43.6 7l-.3-.3-.3-.2c-.6.8-1.4 1.3-2.4 1.7-.2 1-.3 2.3-.2 3.8l-3.8 11c-.2 2 .2 3.6 1 5 2-2.6 3.7-6 5-10l2-6v-2.8l-.3-1.2-.3-.6-.3-.4M357 319c-.3.2-.4.7-.4 1.5 11.8 14.8 17.3 31.7 16.5 50.5.5 1.4 1.3 2 2.5 1.4 1.8-5.3 2-10.8.6-16.4-.8-14.5-6.4-27-16.6-37.3-1 0-1.6 0-2.3.3m21.2 1c-1-.4-2-.6-3-.8h.2l2.8.8m30 21.2c-2.8.4-5.4 2-8 5 0 1.3 0 2.4.6 3.2 1-.7 2.2-1.2 3.4-1.4 2.4-2 3.7-4.4 4-6.8m3.6-1.7l4.4-2.4c5.8-6 11.4-11.5 17-17-.4-1.2-1.6-1.6-3.4-1.2-6.7 5.3-13 11-18.5 17.5-.2 1.2 0 2.3.5 3.2m-31.3-104c1-4.3-.2-6-3.4-5.5v5c1.3.5 2.5.6 3.5.4M361 234c-1.3-2-3-4-4.8-6 .2-3 .2-6.5 0-11 13 2.5 25 8.2 35.8 17-2.7 1.6-4.8 3-6.4 4.5-2.6 7.6-4 15.4-4.5 23.5.3 2.4.3 4.7 0 7-1 4.4-1.6 8.7-2 13 .3 2.4.3 4.7 0 7-2 7.5-2.2 15-1 22 1 .5 2.3.7 3.6.5 5.2 2.8 10 2 14.5-2.5l28.8-17.4 2.2-1.8c.4-3 .7-6 .7-9.2 5 7.2 8.4 15.3 10.2 24.3h-.7l-1.8-.4c-.6.4-1.3.6-2 .8.4 6 3.5 8.5 9.5 7.4-4.3-20.5-12.8-40-25.5-58s-28.7-32-47.8-41.6c-8-4.2-16-7-24.2-8.8-12.8-2-25.4-1.6-37.8 1-7.7 2.6-15.4 5.6-23 9-11.4 5.8-22.3 14.4-32.6 26s-17.6 23.3-22 35.3l-6 12.2c-2 7.3-4.5 14.6-7 22 .3.8.6 1.4 1 1.8 5.2-7.3 9-16 11-26 2.3-5.6 5-11.3 8-17 16.6-32 42-52 76.4-60.7 6.5-2 13.2-2.6 20-1.8 5.2 1.4 10.3 3 15.3 4.5H343c-2.6.2-3.6 1.2-3 3 1 .6 1.8 1.3 2.7 2-8.3 3.3-16.4 7-24.4 11.4-2 0-4.7 0-8 .2 2.5 4.2 4 9 4.5 14.4l-.2.2-.2.2-.4.8-1 3.5-1 5.3c2 5.5 5 11 8.8 16.2 5.5 11 11.4 21.5 18 32-1.5.6-3.4 1.3-5.7 2 3 5.5 7.8 9 14.5 10.4 1.7.4 3.5.6 5.4.4-3.6-2.8-7.5-5.5-11.7-8 6.5-16 11.8-33 16-50.8.8-2.2 1.8-5.6 3-10s1.6-7.7.8-9.8m33.7 4.5c.8-.2 1.4-.5 2-.8 9.5 7.3 17.2 16.2 23 26.8 2.5 3 4.4 6.3 5.5 9.5-1 2-2 4-2.8 6 .7 2.2 1 4.4.8 7-3.3 3.4-9 7.5-16.7 12-7.8 4.5-14 7.7-18.7 9.6-2.7-.6-4.8-1.8-6.4-3.6 1.2-17.7 3-35.6 5-53.8-.2-6.7 2.6-11 8.3-12.7M351.2 228c1 1.7 2.4 3.2 4.4 4.5 1 2.3 1.5 4.8 1.5 7.5-.8 5.6-2.5 11.3-4.8 17-4 12.3-7.5 24.7-10.6 37.5-4-4.8-8.8-11.8-14-20.8-5.3-9-9-16.7-11.4-22.8-.4-3.2.5-6 2.8-8 0-2.7-.5-5.3-1.8-8v-.2l.4-1 .7-1 1.7-1.7 4.3-2.7 18-7.6 1-.4c3-1.4 5.6-2 8-1.8 1.5 3.3 1.5 6.4 0 9.4z">
    <animate attributeName="display" values="none;none;none;none;none;none;none;none;none;none;none;none;none;none;inline;none;none;none" keyTimes="0;0.06;0.12;0.18;0.24;0.30;0.36;0.42;0.48;0.54;0.60;0.66;0.72;0.78;0.84;0.90;0.96;1" dur="1s" begin="0s" repeatCount="indefinite"/>
  </path>
  <path fill="#FF9600" d="M205 335c.8-5.7 1.4-11.3 2-16.8-.6-1-1.4-1.5-2.2-1.5-2.8 6-3.8 12.7-3 19.8 1-.7 2-1.2 3.3-1.5m102-99c1.2.3 2 .4 2.5.4.7-3.7 0-7-2.4-10.4-.7-.4-1.4-.4-2 0-.4.5-.7 1-1 2l3 8m-24.5-.4c-1 .6-2 1-3 1 .2.7 0 1.5-.3 2.3.5 1.4 1.5 2.8 3 4 2.3 4 5.2 7.4 8.7 10-4.2 5.6-8 11.4-11.3 17.5l-5 9-2.4 4.6-.5 2.7v1.9l.2.4.3.4h.3c1.4 1 2.7 1.2 4 1 5-12 11.4-23.3 19-33.8 3 10.6 6 21.4 8.7 32.2.8.5 1.6.7 2.4.6.6 0 1-.4 1.5-1.5-2.4-12.5-5.5-24.6-9.5-36.6-2.4-2-5.2-3.2-8.4-3.6l-5.6-9.4c-.5-1.2-1.2-2.2-2.2-2.8m24-15l-3.4 1.4c0 1 0 1.7.7 2.4h5c1.6-.2 2.5-1 2.4-2.4-1-1-2.6-1.6-4.4-1.5M301 189c-3.4 1-7 2.3-10.3 3.6-6.5 3-12.7 6.4-18.6 10.4-12.2 8-23.8 19-34.5 33s-18.2 28-22.6 41.8c-5.4 11-8.4 22.7-9.3 34.6 1-.7 2.2-1.2 3.4-1.4 4-18.7 11.3-37.7 21.7-57.2 10.4-19.5 24-34.8 40.4-46 7.2-5 14.7-9 22.7-12.3l13-4 4.4-1.6c.2-1 .5-1.6 1-2-.4-1.4-2.2-1.6-5.5-.7-1.8.6-3.6 1-5.4 1.7M397 410.7c2.6.5 5.6 1.5 8.8 2.8 1.5 0 2.3-.6 2.5-1.5-5.6-4-12-7.2-19.5-9.3-2.3-1.6-4.6-2.3-6.8-2-.3 1-.8 1.7-1.5 2.2 4.4 1.8 8.3 4 11.8 7-1.7.6-3.8.8-6.2.7-1 7.6.4 15.2 4 22.8 1-.7 2.2-1 3.4-1.4-2-5.2-3.2-9-3.4-11.8-.2-2.6 2-5.8 7-9.5m39.8 19.8c1-2.7 1-5.4.5-8.3v-.2l-.4-.2-6-3-16-6c-2.4-.2-3.5.3-3.4 1.2.7.6 1.3 1.4 1.7 2.4.8.8 2 1.2 3.7 1.2 9 1 14.8 5.2 17.6 12.4.6.6 1.4.7 2.3.5M412.2 376c-.5.3-.6.8-.5 1.5 9.3 7.6 19.4 15 30.4 21.7-3.2 5-2.2 7 3 5.8-.8 4.4-1.7 8.7-3 13-.4 2-1 4.2-1.8 6.2-.4 2.5-.5 4.5 0 6 1-.5 1.8-1.6 2.8-3.2 3.5-12 5.8-24 7-36v-9c1-1.7 1.4-3 1-3.8-.8-.3-1.3-.8-1.5-1.5-1.7 6.6-3 13-4.4 19.3-10.3-8.6-21.3-15.3-32.8-20m-8.7-7.2l-1.3 2.3 2.4.5-1-2.7m-1.8-13.3c1-.7 2.2-1.2 3.4-1.4 1.3-.3 2.3-1 3-2-.2-1-.2-2 0-2.8-2.5.3-4.8 1.3-7 3 .6 1 .7 2.2.6 3.3M374.4 378l-.3-.3-.3-.2c-.6.8-1.4 1.3-2.4 1.7-.2 1-.3 2.3-.2 3.8l-3.8 11c-.2 2 .2 3.6 1 5 2-2.6 3.7-6 5-10l2-6v-2.8l-.3-1.2-.3-.6-.3-.4m4.8-53c4.4-1.2 8.3-3.2 12-5.8-5-1-9.6.2-13.5 3.3.7.8 1.2 1.6 1.5 2.5m-19.7-6.3c-1 0-1.7 0-2.4.3-.3.2-.4.7-.4 1.5 11.8 14.8 17.3 31.7 16.5 50.5.5 1.4 1.3 2 2.5 1.4 1.8-5.3 2-10.8.6-16.4-.8-14.5-6.3-27-16.5-37.3m58.7 21.3c-2.8 1.8-5 3.5-6.8 5.2.4 1 .5 2 .5 3.2 10.5-6.6 20.8-14 30.8-22l2.4 4.8c.3 2 .4 3.8.2 5.8.7 3.6 1.3 7.3 1.8 11 .2 8 .8 15.8 1.7 23.5.6-1 1.4-1.3 2.2-1.4.2-13.6-1-27-3.8-40-.5-4.4-1.5-8-2.8-11.2-2.6 0-5 0-7.2.5 1 1.3 1.5 2.5 1.8 3.8-6.3 6.2-13.3 12-21 17m-28.7-104.4c-2.4-.3-3.5 1-3.4 3.4.3 1.3 1.2 1.8 2.6 1.5 1.5.2 2.3-.3 2.5-1.5-.4-1.3-1-2.4-1.5-3.4M340.3 213v-.2M399 240c-2 1-3.5 2.4-4.7 4-2.4 6-4.5 13.6-6 22.5-1.6 9-2.7 16.7-3.2 23.4-1.7 7-3 14.5-3.7 22 2.7 2 6 2.4 9.8 1l-4.7-5c.4-6.2 1.3-12.3 2.8-18 1-10 2.7-19.6 5-29 0-8 2.8-13.7 8.7-17.2 2.7 2 5.5 4.7 8.5 8.2 3.4 3.7 7.2 9 11.2 16 4 7 7 13 8.8 18-.5 1.7-1.5 3.4-3 5l1 7c-2 1.3-4.3 2.6-7 4-8 3.2-15.5 7-22.8 11 2.3.3 4.7.4 7.2.4l10.5-4.7c5.4-2.7 9-4.6 11-5.8 2-.7 3.4-1.5 4.6-2.6l1.4-7.4c1.8 4.3 3.5 8.7 5 13 0 2.2.5 4 1.2 6 1 .2 1.7.7 2.2 1.4-2.2-13.8-7-27-14.2-39.6-17.2-36-44.7-58.7-82.5-68.5-2.7-1-5.4-1.5-8-2-10.5-.6-20.5 0-30 2.2-7.7 2.6-15.4 5.6-23 9-11.3 5.7-22 14.4-32.5 26-10.4 11.8-17.8 23.5-22.3 35.3-5 11-9 22.6-13 34.3.3 1 .6 1.5 1 2 3.4-4.4 6.5-10.4 9.2-18.2 2.7-7.8 5.4-14.7 8-20.8 15.3-32 39.7-53.4 73.2-63.8 12.7-4.3 24.4-4 35 1l-2.5 2-.8.5.2.2 2 3.2-3 1-2.4.6c-3.2 1.3-6.4 2.7-9.5 4.2v-.4l-.3-.2h-.2l-.6-.2h-.3l-2 .4-4 1.3c2.8 4 4 8.2 4 12.7-3 3.2-4.2 7-4 11 8 18 15.8 36 24 54l-11 1.2c3 5.4 7.8 9 14.5 10.3 1.7.4 3.5.6 5.4.4-2.6-2.2-5.5-4.2-9-6 5-6.3 8.2-13.5 10-21.8 1.8-6 4.4-11 8-15.3-.2-.8-.5-1.8-1-2.8 1.6-3.7 3-7.4 4-11l3.5-9 2.3-6.6V239l-4.8-9c.4-3.3 1-6.4 1.5-9.3 12 4 22.5 10.4 31.4 19.3m-46.4-22.5c3-.5 6-.3 8.5.5 2 4 2 8 .2 12 2 2.5 4 5.5 5.8 9-5.8 18.5-12.4 36.8-20 55-7.4-11-13.4-23.4-18-37-2.3-4-4-8-5-12l4-7c-.8-3.6-1-7.2-.8-11l.4-.3h.2l.3-.4 4.6-2.2 20-6.5z">
    <animate attributeName="display" values="none;none;none;none;none;none;none;none;none;none;none;none;none;none;none;inline;none;none" keyTimes="0;0.06;0.12;0.18;0.24;0.30;0.36;0.42;0.48;0.54;0.60;0.66;0.72;0.78;0.84;0.90;0.96;1" dur="1s" begin="0s" repeatCount="indefinite"/>
  </path>
  <path fill="#FF9600" d="M345.8 308.8l-6-3.3-2.3-3.8c-1.5-.4-3-.2-4.2.5 3 5.5 7.7 9 14.4 10.4 1.7.4 3.5.6 5.4.4-1.4-1-3.7-2.4-7.2-4.2M205 335c.8-5.7 1.4-11.3 2-16.8-.6-1-1.4-1.5-2.2-1.5-2.8 6-3.8 12.7-3 19.8 1-.7 2-1.2 3.3-1.5m50-46.6l1-.4c-.4-7-3.4-8.4-8.8-4 1 1.5 2.2 3 3.8 4l3 1.5h.2l-.2-.3v-.4h.2l.3-.3h.4m51.3-43l-.3-.4c-3-1.2-5.4-2.5-7.4-3.5-2-4.6-4.4-9-7-13-1.3-.2-2.4 0-3.3.6 2.2 6.3 5 12 8.6 17-9.7 12-18 24.8-25.3 38.2-3-3.5-5.8-3.6-8.4-.4 3.8 2.8 8 5 12.4 6.6 7.4-14.7 16-29 26-42.8 2.6 5 4.6 12 6 20.8l3.5 22.5c1 .6 2 .5 3-.2-.5-6.5-1.5-12.8-3-19v-1l-4-23.6-1-1.6m9.5-24c-.6.3-1 .8-1.5 1.5.4 3.3 1.3 6.4 2.5 9.3 1-.7 2.2-1 3.4-1.4-.5-3-1.4-5.8-2.4-8.6-.7-.5-1.3-.8-2-.8m-2-1.2c3.2.3 5.6 0 7.5-1.4.3-1 0-1.7-.5-2.4h-4c-.8-.6-1.7-.7-2.4-.6 0 1-.3 1.6-1 2 0 1 .2 1.7.7 2.4M301 189c-3.4 1-7 2.3-10.3 3.6-6.5 3-12.7 6.4-18.6 10.4-13.3 8.6-25.3 20.2-36 35-11 15-18.5 30-23 45-4.2 9.5-6.7 19.4-7.2 29.5 1-.7 2.2-1.2 3.4-1.4 3-13.7 7.7-28 14-43 6.5-15 14.7-28 24.5-38.5 7.7-7.5 15.6-14.7 23.5-21.5 12-8.2 25.2-14 39.4-17.6 1-.8 1.4-1.6 1.6-2.4-.5-1.3-2.3-1.5-5.6-.6L301 189m119.7 241.6c1.2 1 2.5 1.3 4 1 0-.8.5-1.3 1.2-1.5-4-2.8-8-5.3-12.5-7.3-.8 0-1.5.4-2 .8-.6 1 .4 2.5 3 4.2l6.2 3m-14-7.2c1-.2 1.6-.7 1.5-1.5 0-.8-.2-1.5-.6-2.3l-26-14-4 .8c.5.6.5 1.2.2 2l3.4 1.5c2 1.3 3.5 2.6 5 4-1.5-.3-2.8-.3-4 0-1.6 6.8-1 13.5 2 20 .8.6 1.7.5 2.5-.4-.3-4.4-.8-9-1.4-13.4 1.5-2 3.7-3.3 6.4-3.7 5 2 10 4.5 15 7m6-40.7c-.6.3-1 .8-1.3 1.4 7 8.4 15.3 16 24.8 22.8 1.4 1.3 2.7 2.7 4 4.2-.4 1.3-1.2 2.4-2.5 3.3-.6 1.8 0 2.8 2 3 .8 0 1.6 0 2.4-.3-1 4.5-1.6 8.8-1.8 13 1-.5 2-1.6 3-3.2 3.4-12 5.7-24 7-36v-9c1-1.7 1.3-3 1-3.8-1-.3-1.4-.8-1.6-1.5-2.3 10-4.3 20.4-6 31.6-10-9.4-20.5-18-31-25.5m-11.3-5.6c1.6 2 3.7 3.8 6.3 5.3 1.3-5-.8-6.8-6.3-5.3m1-14.2c1.6-1 3.4-2 5.4-3.5.3-1 .5-1.6.4-2.3-.6 0-1-.6-1.3-1.4-2 .8-4 2.2-5.6 4.2.6 1 1 2 1.2 3m11.3-6.5c2.3-1.2 4.8-2.6 7.6-4.4 8-5 16.2-9.4 24.5-13.2 1.5 10.8 2.6 21.7 3.2 32.8.7-1 1.5-1.3 2.3-1.4-.7-13.2-1.8-26-3-38.8-.5-2.4-1.2-4.8-2-7.2 0-2-.4-3.5-1-4.8-.8.3-1.4.2-2-.2 0 3 .3 6.4 1 10-3.6.6-5 3-4 7-2 1.2-4.3 2.6-7 4l-16.3 9.7c-2 1-3.8 2.3-5.2 3.7.2.8 0 1.6-.3 2.4 1-.2 1.7 0 2.3.5m-39 21.5l-.4-.3-.3-.2c-.6.8-1.4 1.3-2.4 1.7-.2 1-.3 2.3-.2 3.8l-3.8 11c-.2 2 .2 3.6 1 5 2-2.6 3.7-6 5-10l2-6v-2.8l-.3-1.2-.3-.6-.3-.4M357 319c-.3.2-.4.7-.4 1.5 11.8 14.8 17.3 31.7 16.5 50.5 1.2.8 2 1.2 2.5 1.4 2.4-7.3 1.8-16.8-1.7-28.3-3.6-11.4-8.3-20-14.3-25.3-1 0-1.7 0-2.4.3m37.8-.3c-.2 1.5-.6 2.7-1.2 3.8l-8 3c-1 0-2 0-2.8.2-.3 1-.8 1.7-1.5 2.2 1 1 3 1.3 6.4.5l19-6c.7-1 1.3-1.7 1.5-2.5 0-1-1-1.4-3.3-1.3-1.3.5-2.5 1-3.8 1.3-2.4.5-4.5 0-6.4-1.3M380 243c0-3.5-1.2-6.5-3.8-9 0-3 .3-6.2 1.4-9.2 11.2 5.4 20.7 12.8 28.4 22-5 6-8 13-9 21l-6 23-3 11.2c-.4 2-1 3.7-1.4 5.5-.5 2.3-.7 4-.5 5.5 1.7.5 3 .7 4.5.4 0-5.6 1-11.4 2.8-17.3 1.8-5.8 4-14 6.2-24.7 2.4-10.6 5.5-17.5 9.3-20.8 1.5.3 2.8 1.3 3.8 3 3 4 5.8 8.3 8.4 12.5l8.5 16.6 6.5 15v.3c-1 3.3-1.8 7-2 11-2 1.3-4.2 2.7-6.7 4 7 2.7 11 .6 11.2-6.2 1 3 2.4 5.3 4 6.7-2.3-13.8-7-27-14.3-39.6-17-36-44.7-59-82.5-68.6-2.7-1-5.4-1.5-8-2-10.5-.6-20.5 0-30 2.2-7.8 2.6-15.4 5.6-23 9-11 5.7-22 14.4-32.4 26.2-10.5 11.7-18 23.4-22.5 35-4.8 11.2-9 22.7-12.8 34.4.2.8.5 1.4 1 1.8 3.2-4.2 6.3-10.2 9-18 2.8-8 5.5-15 8-21 15.4-32 39.8-53.3 73.3-63.7 12.7-4.3 24.4-4 35 1-1.8.4-3 1.3-3.4 2.6l1.8 1.5.3.3.3.4.2.5v.2l-13.2 2.4 2.6 5.4c1 2.3 1.3 4.6.8 7-3 4-4.3 8.2-4 13 4 14.6 9 29 15 43 5.5 7.2 5.6 13 .5 17.6.6.8 1.3 1.4 2 2 6.3-2.5 10.2-7.6 11.6-15.4 5-9.8 9.8-19.8 14-30 1-2.3 2-4.5 3.3-6.6 1-.6 1.8-1 2.4-1.6 0-3.2.8-6.6 2.3-10m-8.8-9.8c1.7 3 3.4 6.4 5 10-6.6 17.4-14.6 34.4-24 51-5.3-10.7-9.7-22-13-34-2.8-5.2-4.7-10.6-6-16v-5c1.4-2 2.7-3.6 4-5-1-4-1-7.7 0-11 8.6-5.4 17.8-6.7 27.6-3.7 3 .3 5.8 1.4 8 3 .4 4 0 7.5-1.6 10.7m24.5 9.5c-1 3.6.2 5 3.5 4.5.6-1.3 0-3-1.6-5.4-.7 0-1.4.3-2 1z">
    <animate attributeName="display" values="none;none;none;none;none;none;none;none;none;none;none;none;none;none;none;none;inline;none" keyTimes="0;0.06;0.12;0.18;0.24;0.30;0.36;0.42;0.48;0.54;0.60;0.66;0.72;0.78;0.84;0.90;0.96;1" dur="1s" begin="0s" repeatCount="indefinite"/>
  </path>
</svg>
